<?xml version="1.0" standalone="no"?>
<!DOCTYPE svg PUBLIC "-//W3C//DTD SVG 1.1//EN" "http://www.w3.org/Graphics/SVG/1.1/DTD/svg11.dtd" >
<svg xmlns="http://www.w3.org/2000/svg">
<metadata>
Created by FontPrep 20130207 at Wed Jan  1 12:48:09 2014
 By Mary H Baum
Copyright (c) 2011 by Brian J. Bonislawsky DBA Astigmatic (AOETI). All rights reserved. Available under the Apache 2.0 licence.http://www.apache.org/licenses/LICENSE-2.0.html
</metadata>
<defs>
<font id="dce665491ae9c99dadb377d404dd60b5" horiz-adv-x='1024' >
  <font-face 
    font-family="Redressed"
    font-weight="400"
    font-stretch="normal"
    units-per-em="2048"
    panose-1="2 0 5 6 0 0 0 2 0 3"
    ascent="1638"
    descent="-410"
    x-height="784"
    cap-height="1475"
    bbox="-299 -494 2142 2353.11"
    underline-thickness="41"
    underline-position="-232"
    unicode-range="U+0020-FB02"
  />
<missing-glyph horiz-adv-x="432" 
 />
    <glyph glyph-name="fi" unicode="fi" horiz-adv-x="1038" 
d="M884 1305l-53 -365l-98 -31l-60 324zM457 1374q-131 0 -131 -207v-393h551v-1l1 1v-629q0 -51 40 -53q40 -1 77 55l27 -30q-57 -122 -179 -129q-149 0 -149 162v524h-368v-877l-185 -78v955h-100l43 100h57v213q0 307 188 420q68 41 166 41q99 0 181 -60q26 -20 45 -45
l-125 -81q-18 46 -52 79t-87 33z" />
    <glyph glyph-name="fl" unicode="fl" horiz-adv-x="1042" 
d="M882 145q0 -53 40 -53t77 55l27 -30q-40 -87 -122 -119q-28 -10 -57 -10q-149 0 -149 162v1178l-102 -66q-18 46 -52 79t-87 33q-131 0 -131 -207v-393h262l-43 -100h-219v-877l-185 -78v955h-100l43 100h57v213q0 307 188 420q68 41 175 41t194 -80v2l184 64v-1289z" />
    <glyph glyph-name=".notdef" horiz-adv-x="432" 
 />
    <glyph glyph-name=".null" horiz-adv-x="0" 
 />
    <glyph glyph-name="nonmarkingreturn" horiz-adv-x="432" 
 />
    <glyph glyph-name="space" unicode=" " horiz-adv-x="432" 
 />
    <glyph glyph-name="exclam" unicode="!" horiz-adv-x="492" 
d="M350 76q0 -24 -9 -45t-25 -37t-36 -24q-20 -9 -44 -9t-46 9q-22 8 -36 24q-16 16 -26 37t-9 45q-1 24 9 45t26 37t36 26q22 10 46 9q24 1 44 -9t36 -26t25 -37t9 -45zM371 1434l-82 -1121l-107 -26l-84 1073z" />
    <glyph glyph-name="quotedbl" unicode="&#x22;" horiz-adv-x="625" 
d="M547 1434l-64 -492l-90 -33l-69 441zM301 1434l-63 -492l-91 -33l-69 441z" />
    <glyph glyph-name="numbersign" unicode="#" horiz-adv-x="1231" 
d="M84 520l27 68h227l45 143h-217l27 66h210l86 282l205 37l-112 -319h155l86 282l205 37l-113 -319h222l-27 -66h-219l-51 -143h215l-27 -68h-211l-96 -270l-158 -17l88 287h-168l-96 -270l-158 -17l88 287h-233zM506 588h166l45 143h-160z" />
    <glyph glyph-name="dollar" unicode="$" horiz-adv-x="831" 
d="M271 1080q-46 -46 -46 -104t20 -92q21 -34 53 -60t74 -46t84 -38q112 -46 160 -88q72 -64 72 -160t-65 -161q-65 -64 -162 -81l39 -242l-150 -57l37 291q-113 2 -213 86q-30 26 -53 55l110 125q19 -67 92 -134t136 -67q37 0 76 36q40 36 40 76q0 39 -20 71q-19 32 -53 57
t-76 45t-86 40q-110 50 -162 98q-74 69 -74 176q0 106 79 186t192 104l-37 238l149 55l-36 -287q180 -4 292 -153l-112 -138q-49 150 -159 198q-38 17 -97 17q-58 0 -104 -46z" />
    <glyph glyph-name="percent" unicode="%" horiz-adv-x="1460" 
d="M368 1341q-81 0 -120 -72t-39 -178q0 -107 49 -199q75 -142 175 -142q71 0 111 72t40 147t-16 137t-44 114t-69 86t-87 35zM1038 698q-80 0 -120 -71q-39 -71 -39 -146q0 -140 63 -257q63 -118 158 -118q73 0 113 72t40 148q1 74 -15 136t-44 114t-70 88q-40 34 -86 34z
M395 668q-71 0 -127 32t-96 86q-40 52 -61 118t-21 134t21 134t61 120q40 53 96 86t127 33t127 -33t96 -86q40 -54 61 -120t21 -134t-21 -134t-61 -118t-96 -86q-56 -32 -127 -32zM375 31l-105 69l822 1305l96 -66zM760 396q0 146 86 259t219 113q134 0 219 -114
q86 -114 86 -259t-86 -257q-86 -113 -220 -113q-133 0 -218 113q-86 112 -86 258z" />
    <glyph glyph-name="ampersand" unicode="&#x26;" horiz-adv-x="938" 
d="M90 276q0 198 188 342q52 40 101 72q-55 106 -55 201q0 161 118 223q38 20 82 21q78 0 123 -51t45 -105q0 -53 -12 -85t-31 -60t-43 -54t-47 -51q206 -489 217 -489q38 39 60 88l47 -25q-31 -76 -70 -127l57 -127l-157 -86l-39 88q-113 -74 -205 -74q-174 0 -276 77
q-103 77 -103 222zM514 817q109 109 109 160q-1 51 -43 77q-12 8 -30 7q-36 0 -54 -34q-19 -34 -19 -84t37 -126zM254 322q0 -107 80 -172q80 -64 188 -54q31 2 56 14t51 23l-207 469q-168 -127 -168 -280z" />
    <glyph glyph-name="quotesingle" unicode="'" horiz-adv-x="379" 
d="M301 1434l-63 -492l-91 -33l-69 441z" />
    <glyph glyph-name="parenleft" unicode="(" horiz-adv-x="645" 
d="M61 637q-1 115 41 251t116 257q155 253 398 385l29 -43q-169 -144 -266 -388q-96 -244 -96 -486q0 -241 97 -483t265 -378l-29 -51q-241 129 -398 384q-157 254 -157 552z" />
    <glyph glyph-name="parenright" unicode=")" horiz-adv-x="641" 
d="M425 88q-157 -257 -398 -387l-29 43q170 145 265 388t95 484t-96 483t-264 380l29 51q244 -132 400 -385q155 -253 155 -526q0 -274 -157 -531z" />
    <glyph glyph-name="asterisk" unicode="*" horiz-adv-x="803" 
d="M305 768l37 213l-139 -143l-105 127l207 129l-207 131l105 127l145 -162l-43 244h178l-41 -258l158 176l105 -127l-207 -131l207 -129l-105 -127l-160 166l43 -236h-178z" />
    <glyph glyph-name="plus" unicode="+" horiz-adv-x="918" 
d="M379 674h-293l64 162h229v229l162 63v-292h290l-61 -162h-229v-230l-162 -63v293z" />
    <glyph glyph-name="comma" unicode="," horiz-adv-x="440" 
d="M290 -59q-46 -61 -116 -103l-37 31q45 41 56 94q-39 11 -64 42t-25 63t9 53t25 37t36 26t45 9q23 1 45 -9t38 -26q34 -36 34 -96t-46 -121z" />
    <glyph glyph-name="hyphen" unicode="-" horiz-adv-x="950" 
d="M864 836l-61 -162h-684l63 162h682z" />
    <glyph glyph-name="period" unicode="." horiz-adv-x="438" 
d="M336 76q0 -24 -10 -45t-24 -37q-16 -16 -38 -24q-22 -9 -45 -9q-25 0 -45 9q-20 8 -36 24t-25 37t-9 45t9 45t25 37t36 26t45 9q23 1 45 -9t38 -26t24 -37q10 -21 10 -45z" />
    <glyph glyph-name="slash" unicode="/" horiz-adv-x="1163" 
d="M184 -49l-125 82l934 1446l113 -78z" />
    <glyph glyph-name="zero" unicode="0" horiz-adv-x="1378" 
d="M1098 624q0 66 -14 150t-42 166q-60 181 -168 299q-109 119 -251 119q-165 0 -255 -169q-76 -144 -77 -337q0 -250 122 -484q84 -160 209 -229q64 -35 132 -35t116 22t86 60t64 88q27 50 44 108q18 57 26 117q8 59 8 125zM1292 718q0 -90 -19 -180t-55 -172t-90 -152
q-52 -70 -119 -123q-67 -51 -147 -81t-172 -30t-172 30t-148 81q-130 101 -206 272t-76 356q0 285 163 505q107 146 267 204q80 30 172 30t172 -30t147 -81q67 -53 119 -123t90 -152q36 -82 55 -173t19 -181z" />
    <glyph glyph-name="one" unicode="1" horiz-adv-x="635" 
d="M451 33l-207 -74v1274l-189 -103l-35 60l431 250v-1407z" />
    <glyph glyph-name="two" unicode="2" horiz-adv-x="1114" 
d="M782 953q0 143 -90 235t-235 92t-275 -104q-40 -32 -73 -72l-35 31q82 126 219 219q137 94 276 94q201 0 324 -116t123 -310q0 -335 -461 -662q-124 -85 -201 -139q35 8 83 8q69 1 175 -21t150 -22q68 0 123 40q56 40 92 87l37 -24l-170 -309q-69 10 -140 20
q-424 64 -528 32q-57 -17 -86 -52l-49 34q97 96 197 182t178 158q162 145 264 301q102 155 102 298z" />
    <glyph glyph-name="three" unicode="3" horiz-adv-x="1055" 
d="M570 801q178 0 296 -104q119 -104 119 -284q1 -180 -169 -328q-196 -171 -500 -217q-76 -12 -154 -11h-29q-15 0 -31 2l-10 45q225 28 421 156q140 90 198 218q30 66 30 138q0 136 -91 216q-91 81 -215 81t-277 -56l-17 45q339 161 419 356q20 50 20 105q0 142 -148 142
q-133 0 -272 -98q-41 -29 -70 -60l-33 31q154 187 358 259q71 25 132 25q120 0 205 -62q84 -62 84 -169q0 -183 -266 -353q-82 -53 -191 -104q102 27 191 27z" />
    <glyph glyph-name="four" unicode="4" horiz-adv-x="1118" 
d="M684 586v782l207 74v-856h178l-74 -207h-104v-326l-207 -76v402h-686q338 381 465 889l137 -72q-58 -231 -231 -481q-52 -75 -103 -129h418z" />
    <glyph glyph-name="five" unicode="5" horiz-adv-x="1032" 
d="M166 803q123 65 326 65t332 -115q130 -115 130 -321q0 -250 -306 -436q-258 -157 -556 -168l-20 61q249 58 427 181q135 93 191 229q29 70 29 143q1 73 -17 112q-18 40 -56 82q-111 124 -310 124q-155 0 -264 -68l180 742h702l-71 -228h-615z" />
    <glyph glyph-name="six" unicode="6" horiz-adv-x="1251" 
d="M1133 719q69 -116 69 -246q0 -131 -88 -257q-126 -184 -344 -246q-68 -20 -166 -19q-96 0 -198 45q-102 46 -174 124q-150 164 -150 401q0 238 137 436t352 325t439 160l18 -62q-119 -16 -276 -120q-295 -195 -383 -455q127 91 295 120q52 9 100 9q118 0 209 -50
t160 -165zM315 508q0 -195 88 -322t267 -127q148 0 226 97q77 97 77 253t-99 284t-244 128t-292 -119q-23 -102 -23 -194z" />
    <glyph glyph-name="seven" unicode="7" horiz-adv-x="1012" 
d="M872 1430q80 0 146 47l37 -37q-201 -176 -367 -532q-134 -288 -182 -610q-10 -72 -10 -132t12 -94l-283 -115v12q-3 115 36 265q136 520 534 968h-433q-148 0 -244 -80q-34 -28 -52 -65l-54 43l193 330h667z" />
    <glyph glyph-name="eight" unicode="8" horiz-adv-x="1180" 
d="M946 256q0 178 -263 346q-82 53 -191 103q-124 -92 -167 -236q-14 -47 -14 -105q-1 -58 29 -121q30 -61 80 -109q109 -105 230 -105t209 61q87 62 87 166zM754 1304q-65 78 -164 78t-166 -55q-68 -55 -68 -149q0 -188 238 -326q100 53 142 96q83 85 83 182q0 96 -65 174z
M1008 1159q0 -202 -316 -354q181 -77 245 -127t95 -88q68 -84 68 -189t-46 -193t-124 -148q-157 -123 -363 -123q-207 0 -348 112t-141 302q0 189 199 337q56 42 114 72q-209 134 -209 321q0 121 80 212q103 119 301 153q59 10 121 10q139 0 231 -77q93 -78 93 -220z" />
    <glyph glyph-name="nine" unicode="9" horiz-adv-x="1251" 
d="M680 113q-217 -129 -438 -162l-21 63q158 22 341 167q183 143 258 273q37 64 63 136q-131 -91 -297 -120q-52 -9 -101 -9q-237 0 -360 198q-76 132 -76 259q0 205 179 365q179 159 407 159t381 -166t153 -403q0 -238 -136 -434q-136 -197 -353 -326zM934 879
q0 203 -80 321q-93 136 -274 135q-147 0 -226 -97q-78 -97 -78 -253t100 -284t257 -128q110 0 216 73q32 22 62 46q23 88 23 187z" />
    <glyph glyph-name="colon" unicode=":" horiz-adv-x="449" 
d="M340 690q0 -24 -10 -44t-24 -37q-16 -16 -38 -25t-45 -9q-25 0 -45 9t-36 25q-16 17 -24 37q-9 20 -9 44t9 46q8 22 24 36q16 16 36 26t45 9q23 1 45 -9t38 -26t24 -36q10 -22 10 -46zM340 76q0 -24 -10 -45t-24 -37q-16 -16 -38 -24q-22 -9 -45 -9q-25 0 -45 9
q-20 8 -36 24t-24 37q-9 21 -9 45t9 45q8 21 24 37t36 26t45 9q23 1 45 -9t38 -26t24 -37q10 -21 10 -45z" />
    <glyph glyph-name="semicolon" unicode=";" horiz-adv-x="449" 
d="M340 690q0 -24 -10 -44t-24 -37q-16 -16 -38 -25t-45 -9q-25 0 -45 9t-36 25q-16 17 -24 37q-9 20 -9 44t9 46q8 22 24 36q16 16 36 26t45 9q23 1 45 -9t38 -26t24 -36q10 -22 10 -46zM294 -59q-46 -61 -116 -103l-37 31q45 41 56 94q-39 11 -63 42t-25 63q0 32 9 53
q8 21 24 37t36 26t45 9q23 1 45 -9t38 -26q34 -36 34 -96t-46 -121z" />
    <glyph glyph-name="less" unicode="&#x3c;" horiz-adv-x="754" 
d="M629 387l-35 -43l-485 361l485 391l35 -29l-269 -362z" />
    <glyph glyph-name="equal" unicode="=" horiz-adv-x="1028" 
d="M887 672l-62 -162h-684l64 162h682zM887 999l-62 -161h-684l64 161h682z" />
    <glyph glyph-name="greater" unicode="&#x3e;" horiz-adv-x="754" 
d="M645 705l-485 -361l-35 43l268 318l-268 362l35 29z" />
    <glyph glyph-name="question" unicode="?" horiz-adv-x="1016" 
d="M539 76q1 -24 -9 -45t-26 -37t-37 -24q-21 -9 -45 -9t-45 9q-21 8 -37 24t-24 37q-9 21 -9 45t9 45q8 21 24 37t37 26t45 9q24 1 45 -9t37 -26t26 -37t9 -45zM170 840q-86 86 -86 237t133 264t287 113q155 0 277 -81q147 -98 147 -321t-158 -354q-44 -36 -94 -78
q-191 -159 -201 -307l-106 -26v18q-3 147 87 277q39 56 85 108q45 50 85 104q92 125 93 251q0 126 -80 220q-80 93 -201 93q-87 0 -153 -58t-66 -156q0 -97 90 -183z" />
    <glyph glyph-name="at" unicode="@" horiz-adv-x="1272" 
d="M799 -82q-106 -57 -278 -57t-303 138q-132 138 -132 316q0 260 177 424t444 164q191 0 338 -125t147 -317q0 -116 -71 -251q-71 -134 -181 -134q-121 0 -121 139q-63 -129 -186 -129q-101 0 -156 62t-55 149q0 165 96 283t244 118q147 0 203 -104l-119 -51
q-48 78 -120 78t-122 -83q-49 -83 -49 -165q-1 -125 65 -176q24 -19 61 -19q36 0 60 15t39 39q26 42 33 101q6 59 6 136l148 51v-317q0 -41 32 -41q79 0 127 186q18 67 17 131q0 64 -35 138q-34 74 -94 127q-126 112 -312 112q-185 0 -321 -164q-137 -164 -137 -349t96 -306
t264 -121q86 0 180 37z" />
    <glyph glyph-name="A" unicode="A" horiz-adv-x="1391" 
d="M1245 98q65 0 117 68l33 -29q-51 -99 -149 -137q-32 -12 -77 -12q-94 0 -154 74q-59 74 -59 182v387q-40 -184 -71 -270q-65 -181 -149 -271q-104 -113 -247 -113q-185 0 -295 132t-110 353t139 454t366 379q226 147 464 143h12v-45q-200 -10 -377 -147t-281 -340
t-104 -402q0 -146 53 -258q66 -140 201 -140q203 0 317 446q60 234 78 522q4 74 4 124l207 76v-1063q-1 -75 43 -103q16 -10 39 -10z" />
    <glyph glyph-name="B" unicode="B" horiz-adv-x="1296" 
d="M756 970q74 104 73 215q1 111 -97 151q-30 12 -80 12q-48 0 -94 -26t-78 -69q-61 -78 -90 -200q-28 -122 -28 -228v-772l-206 -73v735q0 299 186 515q122 140 298 196q88 28 160 28q126 0 191 -52q66 -52 66 -145q-1 -184 -257 -381q-93 -71 -188 -118q102 24 194 24
q186 0 306 -82q119 -82 119 -258q-1 -176 -153 -322q-128 -123 -329 -193q-202 -70 -387 -77l-14 50q250 53 424 167q138 89 196 221q30 68 29 140q0 129 -99 206t-219 77t-271 -58l-17 41q248 111 365 276z" />
    <glyph glyph-name="C" unicode="C" horiz-adv-x="1235" 
d="M1061 901q-110 -139 -254 -182l-21 35q132 66 176 216q14 46 13 98q0 112 -65 189q-65 76 -190 76q-125 1 -229 -103q-136 -135 -178 -375q-12 -69 -12 -131t13 -127q13 -66 38 -130q54 -138 154 -227q100 -88 231 -88q179 0 330 165l33 -32q-93 -122 -240 -210
q-148 -87 -290 -87t-253 90t-173 228q-62 139 -62 256q0 118 32 220t90 198q120 202 308 337t375 135q124 0 204 -70t80 -206t-110 -275z" />
    <glyph glyph-name="D" unicode="D" horiz-adv-x="1358" 
d="M688 124q-252 -135 -493 -149v1121l206 73v-1089q285 83 463 305t178 514q0 183 -92 305q-92 121 -270 121q-226 0 -446 -137q-68 -42 -125 -92l-31 34q122 132 321 225q198 93 377 93q244 0 372 -139t128 -379t-168 -456q-168 -215 -420 -350z" />
    <glyph glyph-name="E" unicode="E" horiz-adv-x="1092" 
d="M627 1356q-96 0 -172 -64t-76 -161t78 -166q78 -70 180 -70q56 0 104 18l15 -41q-306 -98 -410 -296q-40 -75 -39 -150q0 -132 64 -206q64 -73 178 -73t268 87q153 87 211 190l35 -31q-93 -171 -253 -288t-329 -117q-170 0 -290 99q-119 99 -119 245q0 147 102 260
t248 182q-87 15 -140 90t-53 152q0 78 22 132q21 54 59 100q74 92 192 147q117 55 214 55q179 0 285 -127l-145 -106q-101 139 -229 139z" />
    <glyph glyph-name="F" unicode="F" horiz-adv-x="1192" 
d="M803 1434q324 0 409 61l25 -27q-63 -98 -173 -165q-110 -68 -224 -68l-197 -2q-78 -94 -78 -199v-280h29q40 0 97 -2q235 -6 313 63l24 -29q-110 -167 -397 -172h-66v-381q0 -262 -223 -415l-35 39q51 57 51 196v561h-194l106 140h88v164q0 140 205 315l-321 2
q-70 0 -118 -27t-99 -86l-29 31q132 183 298 255q60 26 122 26h387z" />
    <glyph glyph-name="G" unicode="G" horiz-adv-x="1329" 
d="M1206 1254q0 -100 -106 -198q-169 -154 -400 -167l-20 35q96 25 175 98q79 74 79 154t-45 118q-45 39 -122 39t-141 -31q-64 -32 -113 -84q-91 -97 -135 -250t-44 -323t62 -304q79 -171 251 -171q101 0 181 68t125 169q46 102 46 195l207 74v-819l-207 -74v623
q-39 -166 -170 -294t-270 -128q-209 0 -342 158t-133 378q0 219 116 436q116 216 309 353q194 137 417 137q178 0 252 -100q28 -36 28 -92z" />
    <glyph glyph-name="H" unicode="H" horiz-adv-x="1325" 
d="M930 537h-520v-494l-207 -74v568h-160l74 145h86v719l207 74v-793h520v719l207 74v-1432l-207 -74v568z" />
    <glyph glyph-name="I" unicode="I" horiz-adv-x="584" 
d="M395 43l-207 -74v1432l207 74v-1432z" />
    <glyph glyph-name="J" unicode="J" horiz-adv-x="854" 
d="M397 918q0 142 205 317h-221q-102 0 -172 -64q-23 -21 -47 -49l-29 33q133 181 297 253q60 26 123 26h289q-42 -52 -82 -100t-69 -86q-51 -68 -69 -110q-18 -41 -18 -104v-801q0 -199 -143 -350t-342 -151q-158 0 -289 110l168 150q32 -65 83 -108q94 -77 152 -77
q164 0 164 246v865z" />
    <glyph glyph-name="K" unicode="K" horiz-adv-x="1257" 
d="M914 -18q-103 0 -197 92q-95 92 -235 326q-44 74 -87 139v-496l-207 -74v1432l207 74v-873l666 834l117 -11l-623 -739q75 -102 150 -213t121 -171q75 -96 104 -120q76 -63 147 -26q71 38 135 112l33 -28q-89 -159 -225 -232q-50 -26 -106 -26z" />
    <glyph glyph-name="L" unicode="L" horiz-adv-x="1128" 
d="M831 178q128 0 230 131l37 -26l-201 -326q-128 22 -263 41q-136 18 -203 30q-67 11 -114 11q-113 0 -202 -62l-31 33q59 51 77 154q5 29 5 55v590q0 281 185 472q185 192 458 192q154 0 208 -99q19 -35 19 -83t-17 -90t-47 -80q-55 -71 -141 -125q-86 -53 -176 -76
l-16 38q205 121 205 254q0 70 -48 115t-120 45q-137 0 -220 -111t-83 -257v-644q0 -139 -137 -256q112 82 189 98q33 8 79 7q56 1 162 -15t165 -16z" />
    <glyph glyph-name="M" unicode="M" horiz-adv-x="1794" 
d="M772 1239q0 86 -71 86q-25 -1 -59 -37t-68 -96q-74 -129 -127 -310q-52 -181 -52 -317v-522l-207 -74v1432l207 74v-564q71 305 191 447q95 112 219 112q157 0 171 -114q4 -34 3 -76v-297q56 231 174 359t236 128q84 0 129 -36t45 -119v-1104q0 -74 43 -101
q16 -10 39 -10q65 0 116 66l33 -29q-51 -99 -149 -137q-33 -12 -77 -12q-95 0 -153 74q-59 74 -59 182v995q0 86 -72 86q-56 -1 -128 -95q-75 -99 -126 -262t-51 -347v-578l-207 -74v1270z" />
    <glyph glyph-name="N" unicode="N" horiz-adv-x="1264" 
d="M1122 98q63 0 115 68l33 -29q-51 -99 -149 -137q-32 -12 -77 -12q-94 0 -154 74q-59 74 -59 182v916q1 151 -69 188q-22 12 -68 12t-91 -34t-79 -88q-63 -99 -96 -246q-33 -146 -33 -253v-692l-207 -76v1432l207 74v-377q71 258 249 342q66 30 140 31q132 0 193 -82
t61 -209v-971q0 -76 44 -103q16 -10 40 -10z" />
    <glyph glyph-name="O" unicode="O" 
d="M659 1358q-81 0 -131 -22t-90 -62q-72 -71 -108 -187q-35 -116 -35 -214q0 -99 12 -187q13 -88 39 -174q59 -192 178 -313t299 -121q119 0 204 84q144 142 144 435q-1 269 -119 493q-88 164 -236 232q-76 36 -157 36zM1378 715q0 -91 -20 -183t-58 -174t-94 -154
t-128 -124t-158 -82t-187 -29q-101 -1 -187 29t-158 82t-128 124t-95 154t-59 174t-20 183q0 92 20 183q20 92 59 174t95 154t128 123t158 81t187 30t187 -30t158 -81t128 -123t94 -154t58 -174q20 -91 20 -183z" />
    <glyph glyph-name="P" unicode="P" horiz-adv-x="1247" 
d="M401 45l-206 -76v1121l206 73v-1118zM811 504q-173 -84 -332 -84h-16q-9 0 -17 2l11 55q217 37 383 176t166 348q0 142 -88 235t-228 93q-230 -1 -452 -141q-70 -44 -129 -98l-31 34q139 139 343 233q204 95 380 95t295 -117q118 -117 118 -289q0 -171 -115 -314
q-115 -144 -288 -228z" />
    <glyph glyph-name="Q" unicode="Q" 
d="M769 334q67 -45 100 -116q33 -72 59 -120q121 45 182 187t61 299q-1 282 -119 506q-88 164 -236 232q-76 36 -157 36t-131 -22t-90 -62q-72 -71 -108 -187q-35 -116 -35 -212q1 -95 11 -177t32 -162q49 -177 151 -300q101 -123 256 -150q-124 215 -188 215q-17 0 -49 -8
l-29 47q80 39 152 39q71 0 138 -45zM701 -31q-69 -1 -155 29t-158 82t-128 124t-95 154t-59 174t-20 183q0 92 20 183q20 92 59 174t95 154t128 123t158 81t187 30t187 -30t158 -81q139 -100 219 -273q81 -173 81 -377t-108 -399t-295 -280q77 -110 151 -110q49 0 103 33
l28 -41q-100 -105 -196 -105q-95 1 -169 61q-37 30 -85 115q-38 -4 -106 -4z" />
    <glyph glyph-name="R" unicode="R" horiz-adv-x="1307" 
d="M401 45l-206 -76v1121l206 73v-1118zM1020 129q80 0 192 119l35 -31q-117 -159 -239 -219q-50 -24 -92 -25q-74 0 -123 35q-103 72 -347 428l11 41q217 37 383 176t166 348q0 142 -88 235t-228 93q-226 0 -453 -150q-65 -43 -128 -89l-31 34q158 153 266 211
q217 117 457 117q182 0 299 -121t117 -305q0 -142 -72 -248t-195 -172q-16 -8 -38 -21t-48 -28q-148 -84 -194 -90q164 -219 239 -285q25 -21 51 -37t60 -16z" />
    <glyph glyph-name="S" unicode="S" horiz-adv-x="1106" 
d="M522 1360q-118 0 -190 -74q-74 -74 -74 -181q0 -108 74 -191t178 -117q469 -163 469 -424q0 -186 -137 -291t-315 -105q-177 0 -339 132q-48 39 -82 84l162 186q32 -103 144 -206t215 -103q62 0 125 58t63 108t-18 90q-17 40 -47 74q-54 64 -143 114q-88 50 -161 71
q-154 45 -261 161t-107 264q0 193 161 326q161 134 361 134q140 0 260 -62t205 -175l-168 -203q-75 226 -249 303q-62 27 -126 27z" />
    <glyph glyph-name="T" unicode="T" horiz-adv-x="1008" 
d="M365 918q0 139 206 315l-331 2q-70 0 -118 -27t-99 -86l-29 31q91 123 152 175q125 106 233 106h432q106 0 161 22t75 39l24 -27q-105 -158 -283 -214q-58 -18 -116 -19l-23 -2q-38 -48 -58 -93t-20 -106v-639q0 -263 -223 -415l-33 38q50 56 50 197v703z" />
    <glyph glyph-name="U" unicode="U" horiz-adv-x="1270" 
d="M1102 100q64 0 115 66l32 -29q-51 -99 -149 -137q-32 -12 -76 -12q-95 0 -154 74t-59 182v118q-71 -263 -249 -350q-66 -32 -140 -32q-131 0 -192 82q-62 82 -62 208v1104l207 74v-1104q0 -117 12 -159q27 -93 124 -93t181 136q85 136 112 386q7 64 7 107v653l207 74
v-1237q0 -74 44 -101q16 -10 40 -10z" />
    <glyph glyph-name="V" unicode="V" horiz-adv-x="1176" 
d="M987 1049q0 193 -201 348l168 188q126 -81 172 -248q14 -49 13 -115q0 -115 -106 -334t-228 -488q-121 -269 -205 -455l-588 1398l205 91l453 -1158q47 100 79 168q43 91 86 184q43 94 75 160t54 128t23 133z" />
    <glyph glyph-name="W" unicode="W" horiz-adv-x="1591" 
d="M1393 1049q0 190 -181 348l152 188q72 -52 119 -151q47 -98 47 -189t-26 -173t-94 -242t-173 -393q-104 -234 -209 -472l-256 692l-246 -692l-508 1378l203 91l377 -1084l143 389l-188 510l203 88l352 -1038q231 512 258 596t27 154z" />
    <glyph glyph-name="X" unicode="X" horiz-adv-x="1147" 
d="M119 190q92 0 190 124q70 89 108 180q39 92 66 156l-430 655l172 118l359 -542q111 241 173 327q62 87 111 132q109 100 228 98h12l-59 -250q-28 10 -67 10q-72 0 -137 -44t-104 -117q-39 -74 -108 -230l473 -715l-172 -129l-404 615q-158 -351 -199 -416
q-139 -213 -280 -213h-14l53 246q15 -5 29 -5z" />
    <glyph glyph-name="Y" unicode="Y" horiz-adv-x="1264" 
d="M141 1317q-65 0 -116 -66l-33 29q51 100 149 138q33 12 77 12q95 0 153 -74q59 -74 59 -182v-820q0 -118 12 -160q27 -94 123 -94q97 0 182 134t112 382q7 62 7 105v653l207 74v-1395q0 -233 -174 -377q-98 -82 -170 -104q-72 -21 -147 -21q-151 0 -281 111l168 148
q55 -112 169 -166q36 -18 68 -17q30 -1 58 11q59 24 81 85q21 60 21 150v489q-70 -258 -250 -343q-66 -31 -139 -31q-130 0 -192 83t-62 208v927q0 74 -43 101q-16 10 -39 10z" />
    <glyph glyph-name="Z" unicode="Z" horiz-adv-x="1159" 
d="M285 55q-115 0 -203 -61l-31 33q381 541 821 1198h-215q-39 1 -97 1q-253 2 -333 -32q-81 -34 -139 -111l-37 27l201 324h530q38 0 78 -1q145 -4 225 52l31 -33q-598 -894 -913 -1331q80 58 133 84t115 26q73 -1 207 -27t194 -26q123 0 229 131l35 -26l-198 -324
q-563 96 -633 96z" />
    <glyph glyph-name="bracketleft" unicode="[" horiz-adv-x="578" 
d="M539 -283h-387v1788h387v-71h-181v-1645h181v-72z" />
    <glyph glyph-name="backslash" unicode="\" horiz-adv-x="1163" 
d="M1104 33l-125 -82l-922 1450l113 78z" />
    <glyph glyph-name="bracketright" unicode="]" horiz-adv-x="578" 
d="M426 -283h-387v72h180v1645h-180v71h387v-1788z" />
    <glyph glyph-name="asciicircum" unicode="^" horiz-adv-x="565" 
d="M51 795l-51 41l279 413l286 -372l-100 -107l-227 307z" />
    <glyph glyph-name="underscore" unicode="_" horiz-adv-x="1118" 
d="M956 -147l-61 -162h-684l63 162h682z" />
    <glyph glyph-name="grave" unicode="`" horiz-adv-x="350" 
d="M0 1694l117 133l233 -279l-26 -37z" />
    <glyph glyph-name="a" unicode="a" horiz-adv-x="895" 
d="M745 147q0 -53 42 -53t77 56l27 -31q-41 -87 -123 -119q-28 -10 -57 -10q-148 0 -148 162v18q-101 -190 -229 -190q-129 0 -200 89t-71 224q0 185 121 333t301 148q131 0 211 -70q28 -25 47 -61l-149 -63q-61 96 -150 96t-152 -104t-63 -203q0 -167 84 -246
q31 -29 73 -29t69 16t46 44q62 86 62 266v69l182 64v-406z" />
    <glyph glyph-name="b" unicode="b" horiz-adv-x="850" 
d="M793 392q-1 -66 -35 -140t-90 -134q-127 -138 -267 -138t-215 86t-75 223v1081l184 64v-1178q0 -74 27 -113q49 -73 127 -73t128 75t50 149q0 138 -83 242q-83 105 -196 115l166 123q111 -37 195 -147t84 -235z" />
    <glyph glyph-name="c" unicode="c" horiz-adv-x="805" 
d="M590 588q-40 96 -180 96q-36 0 -74 -22t-64 -56q-54 -71 -55 -161q0 -172 77 -265q77 -94 198 -94q84 0 204 114q30 29 54 52l30 -35q-184 -237 -381 -237q-149 0 -244 101q-94 101 -94 271q-1 170 129 300t303 130t240 -116z" />
    <glyph glyph-name="d" unicode="d" horiz-adv-x="911" 
d="M454 686q-107 0 -168 -112q-50 -92 -50 -207q0 -167 82 -245q30 -28 72 -28t70 16t46 44q61 85 61 266v213q-53 53 -113 53zM752 147q0 -53 40 -53t76 56l29 -31q-39 -87 -123 -119q-28 -10 -57 -10q-150 0 -150 162v18q-95 -190 -228 -190t-204 94q-72 94 -72 231
q0 182 108 331q108 148 284 148q58 0 112 -28v614l185 64v-1287z" />
    <glyph glyph-name="e" unicode="e" horiz-adv-x="813" 
d="M507 657q-30 33 -76 33q-84 0 -146 -103t-62 -187q0 -83 45 -162q90 50 180 152q89 103 89 168q0 66 -30 99zM778 195q-167 -215 -389 -215q-139 0 -234 99q-96 99 -96 263q1 164 139 306q85 86 201 122q57 18 108 18q99 0 159 -44q59 -44 59 -139t-153 -229t-273 -186
q84 -104 189 -104q106 0 260 141z" />
    <glyph glyph-name="f" unicode="f" horiz-adv-x="573" 
d="M457 1374q-131 0 -131 -207v-393h262l-43 -100h-219v-877l-185 -78v955h-100l43 100h57v213q0 307 188 420q68 41 166 41q99 0 181 -60q26 -20 45 -45l-125 -81q-18 46 -52 79t-87 33z" />
    <glyph glyph-name="g" unicode="g" horiz-adv-x="850" 
d="M592 580q-69 110 -155 110q-85 0 -148 -110q-62 -110 -62 -211q0 -167 84 -246q31 -29 73 -29t69 16t46 44q62 86 62 266v69l182 64v-479q0 -182 -132 -352q-85 -108 -201 -154q-58 -23 -110 -23q-98 0 -153 54l132 125q46 -62 105 -62q58 0 90 20t51 52t27 74t10 85
q2 44 0 86t-1 76v115q-101 -190 -229 -190q-129 0 -200 89t-71 224q0 186 121 340q121 155 301 155q125 0 211 -82q28 -27 47 -63z" />
    <glyph glyph-name="h" unicode="h" horiz-adv-x="883" 
d="M725 145q0 -53 40 -53t79 55l26 -30q-36 -87 -122 -119q-28 -10 -58 -10q-149 0 -149 162v407q0 55 -31 55q-89 0 -156 -261q-53 -208 -53 -328l-184 -64v1411l184 64v-1082q23 139 86 254q99 182 221 182q80 0 104 -72q12 -38 13 -143v-428z" />
    <glyph glyph-name="i" unicode="i" horiz-adv-x="465" 
d="M121 150v561l184 63v-629q0 -51 40 -53q40 -1 77 55l27 -30q-57 -122 -179 -129q-149 0 -149 162zM311 1305l-53 -365l-98 -31l-60 324z" />
    <glyph glyph-name="j" unicode="j" horiz-adv-x="430" 
d="M311 82q0 -257 -213 -432q-134 -104 -262 -104q-76 0 -135 44l113 142q86 -69 177 -56q40 6 72 27q67 51 65 261q0 54 -1 102v645l184 63v-692zM319 1305l-55 -365l-96 -31l-59 324z" />
    <glyph glyph-name="k" unicode="k" horiz-adv-x="868" 
d="M578 582q0 17 -15 32t-33 15t-38 -20t-40 -51q-50 -82 -108 -255q51 36 107 97q57 60 79 88t34 52q14 24 14 42zM639 -16q-35 0 -77 29t-82 69t-76 84q-36 42 -64 70l-16 -9q-15 -54 -23 -204l-184 -64v1411l184 64v-1110q138 464 340 464q88 0 118 -81q9 -25 9 -67
q0 -87 -86 -177q-86 -91 -197 -156q19 -16 54 -57q68 -81 99 -109q100 -91 177 4l31 -34q-50 -86 -142 -117q-30 -10 -65 -10z" />
    <glyph glyph-name="l" unicode="l" horiz-adv-x="469" 
d="M309 145q0 -53 40 -53t77 55l27 -30q-41 -87 -123 -119q-28 -10 -56 -10q-149 0 -149 162v1220l184 64v-1289z" />
    <glyph glyph-name="m" unicode="m" horiz-adv-x="1221" 
d="M879 150v419q0 39 -23 43q-23 5 -53 -53q-96 -285 -101 -536l-184 -64v610q0 39 -24 43q-24 5 -52 -53q-78 -219 -97 -443q-4 -48 -3 -93l-182 -64v672q0 51 -40 53q-40 1 -79 -55l-27 30q58 122 181 129q147 0 147 -161v-211q32 158 130 276q80 96 141 96q53 0 71 -35
t18 -114v-223q34 162 130 276q40 48 78 72t61 24q57 0 75 -38t17 -111v-494q0 -24 11 -38q11 -15 28 -15q40 -1 78 55l28 -30q-38 -81 -113 -113q-33 -14 -67 -16q-149 0 -149 162z" />
    <glyph glyph-name="n" unicode="n" horiz-adv-x="946" 
d="M788 145q0 -53 40 -53t77 55l29 -30q-40 -87 -124 -119q-27 -10 -56 -10q-150 0 -150 162v407q0 55 -27 55t-55 -34t-56 -88q-48 -98 -86 -245t-38 -222l-182 -64v672q0 53 -41 53t-78 -55l-27 30q42 87 124 119q28 10 57 10q147 0 147 -161v-326q36 163 112 305
q97 182 216 182q113 0 117 -142q1 -38 1 -73v-428z" />
    <glyph glyph-name="o" unicode="o" horiz-adv-x="856" 
d="M795 435q0 -188 -109 -323t-266 -135t-259 101t-102 257q0 157 103 282t266 176l29 -35q-147 -108 -198 -272q-17 -54 -17 -106q0 -114 60 -210q60 -94 160 -94t150 64t50 141q0 134 -80 239t-189 115q53 60 162 139q111 -36 176 -138q64 -101 64 -201z" />
    <glyph glyph-name="p" unicode="p" horiz-adv-x="909" 
d="M202 786q140 0 140 -174q90 174 219 174t207 -106t78 -261t-95 -296t-262 -141q-75 0 -127 41l78 112q40 -55 101 -55q143 0 143 317q0 88 -51 180q-51 93 -144 93q-147 0 -147 -332v-768l-182 -64v1123q0 53 -41 53t-78 -55l-27 30q42 87 124 119q28 10 64 10z" />
    <glyph glyph-name="q" unicode="q" horiz-adv-x="850" 
d="M784 -348q43 0 78 53l27 -29q-43 -88 -123 -120q-28 -11 -57 -11q-148 0 -148 162v463q-101 -190 -229 -190q-129 0 -200 89t-71 224q0 185 120 339t302 154q127 0 211 -80q28 -27 47 -63l-149 -63q-68 108 -155 108q-86 0 -148 -109t-62 -210q0 -167 84 -246
q31 -29 82 -29q93 0 137 120q30 83 31 204v71l182 64v-850q0 -19 10 -35t31 -16z" />
    <glyph glyph-name="r" unicode="r" horiz-adv-x="686" 
d="M537 102q43 0 90 33l24 -26q-54 -84 -166 -114q-35 -9 -73 -9q-77 0 -118 56q-42 56 -42 125q0 118 58 242t132 187q-75 -49 -146 -49q-72 0 -120 24l-104 -217l-43 17l108 221q-49 34 -65 67l139 156q33 -98 111 -139q26 -14 57 -14q93 0 196 67l27 -27
q-215 -198 -215 -376q1 -75 27 -126q26 -50 53 -74t70 -24z" />
    <glyph glyph-name="s" unicode="s" horiz-adv-x="602" 
d="M322 750q0 28 -31 28t-31 -36t23 -76q39 68 39 84zM367 760q0 -42 -62 -129q31 -44 83 -86q51 -42 76 -64q85 -75 85 -190q0 -139 -85 -225t-197 -86q-113 0 -195 45q-28 15 -45 36l118 154q80 -127 169 -127q88 0 124 82q11 25 11 60q1 34 -27 68t-66 66t-78 64
q-40 34 -65 74l-104 -152l-39 29l120 166q-30 62 -30 107q0 78 37 133t96 55q31 0 53 -19t21 -61z" />
    <glyph glyph-name="t" unicode="t" horiz-adv-x="537" 
d="M143 150v524h-106l43 100h63v354l183 64v-418h190l-41 -100h-149v-529q0 -24 11 -38q11 -15 28 -15q41 -1 79 55l27 -30q-57 -122 -180 -129q-148 0 -148 162z" />
    <glyph glyph-name="u" unicode="u" horiz-adv-x="924" 
d="M580 150v319q-109 -489 -308 -489q-106 0 -114 128q-2 40 -2 87v434q0 51 -40 53q-40 1 -79 -55l-27 30q58 122 180 129q148 0 148 -161v-414q0 -39 14 -51t36 4q52 36 106 166q67 240 86 401l184 64v-650q0 -24 11 -38q11 -15 28 -15q40 -1 78 55l28 -30
q-38 -81 -113 -113q-33 -14 -67 -16q-149 0 -149 162z" />
    <glyph glyph-name="v" unicode="v" horiz-adv-x="801" 
d="M752 649q0 -75 -29 -135l-254 -520q-15 -21 -43 -21t-39 23l-254 571q-37 66 -70 66q-23 0 -51 -39l-20 27q33 99 127 140q30 13 59 13t49 -16q19 -16 35 -41q16 -24 28 -50q12 -27 39 -93t75 -179t98 -225l125 256q14 24 14 78q0 117 -113 172l115 158q109 -55 109 -185
z" />
    <glyph glyph-name="w" unicode="w" horiz-adv-x="1118" 
d="M1065 649q0 -75 -29 -135l-233 -500q-17 -32 -66 -13q-13 5 -18 19l-156 551l-139 -544q-16 -35 -53 -35q-36 0 -41 24l-176 562q-26 77 -74 77q-29 0 -66 -34l-20 26q48 91 148 126q32 11 62 11q50 0 82 -55q17 -31 48 -130q30 -99 106 -343l99 401l-25 80l168 56
l164 -582l94 215q14 35 14 78q0 115 -112 172l114 158q109 -55 109 -185z" />
    <glyph glyph-name="x" unicode="x" horiz-adv-x="874" 
d="M658 -14q-26 0 -44 8t-33 20t-28 29t-25 35q-14 20 -50 90q-35 70 -52 94q-5 -16 -9 -32q-27 -105 -101 -175q-137 -128 -275 -20l63 166q82 -51 136 -51t74 16q19 16 25 30q6 12 14 33l16 42q9 24 18 51l-188 301q-29 34 -65 34q-35 0 -66 -24l-27 35q50 76 125 106
q26 10 56 10q53 0 107 -54t82 -103q28 -48 38 -65t20 -38q10 24 20 46q9 22 19 44t22 43q28 54 75 90q48 37 108 37t118 -30l-75 -174q-55 45 -90 45q-92 0 -138 -103l-20 -57q119 -249 179 -315q46 -50 126 -7l25 -32q-52 -79 -128 -113q-26 -12 -52 -12z" />
    <glyph glyph-name="y" unicode="y" horiz-adv-x="883" 
d="M340 211q0 -55 30 -55t76 73q108 175 136 506l184 64v-717q0 -214 -142 -380q-88 -102 -200 -144q-56 -20 -123 -21q-67 0 -143 53l112 142q90 -72 156 -72q156 0 156 406v403q-84 -365 -224 -463q-38 -26 -84 -26q-80 0 -104 72q-12 38 -12 143v432q0 17 -10 35t-31 18
q-41 0 -78 -55l-27 30q42 87 124 119q28 10 57 10q147 0 147 -161v-412z" />
    <glyph glyph-name="z" unicode="z" horiz-adv-x="770" 
d="M417 6q-79 16 -148 17q-70 0 -193 -41l-43 24l499 619q-98 -37 -196 -37l-182 10q-29 0 -105 -16l127 192l227 -12q164 0 283 35l25 -33l-506 -625q66 45 198 45l154 -8q97 0 174 31l-125 -205q-33 -12 -72 -12q-38 0 -117 16z" />
    <glyph glyph-name="braceleft" unicode="{" horiz-adv-x="621" 
d="M537 -225q35 0 45 4l14 -55q-39 -13 -109 -13q-69 1 -125 39t-92 116t-37 267q0 48 2 98t-1 97q-7 110 -55 175q-48 64 -169 77v71q143 17 190 108q33 64 33 216q0 53 -1 114q-2 61 4 122q13 142 66 215q68 94 210 94q34 0 84 -15l-14 -55q-17 6 -48 6q-66 0 -92 -54
q-16 -35 -16 -122l2 -197q0 -453 -324 -467q288 8 318 -362q4 -56 4 -111l-2 -182q0 -93 14 -124q14 -30 39 -46t60 -16z" />
    <glyph glyph-name="bar" unicode="|" horiz-adv-x="502" 
d="M354 -209l-207 -76v1717l207 73v-1714z" />
    <glyph glyph-name="braceright" unicode="}" horiz-adv-x="623" 
d="M518 614q-323 -9 -323 471l2 183q0 95 -13 125q-27 63 -108 63q-19 0 -37 -6l-14 55q50 15 99 15q48 0 94 -18t77 -49q94 -94 94 -320q0 -84 -2 -134q-1 -50 1 -97q6 -108 53 -173q48 -65 169 -78v-71q-144 -16 -190 -108q-33 -65 -33 -218q0 -54 1 -114q2 -60 -4 -120
q-14 -141 -66 -215q-67 -94 -209 -94q-46 0 -84 13l14 55q12 -4 46 -4q68 -1 94 53q18 37 18 123l-4 194q0 365 206 446q51 20 119 23z" />
    <glyph glyph-name="asciitilde" unicode="~" horiz-adv-x="694" 
d="M565 887q66 -79 29 -176q-48 -105 -152 -91q-52 7 -94 44t-76 63t-58 15q-69 -33 -17 -111l-43 -21q-61 58 -50 133q25 122 148 127q57 2 98 -27q40 -27 59 -45t35 -28q38 -24 71 5q32 30 5 95z" />
    <glyph glyph-name="nonbreakingspace" unicode="&#xa0;" horiz-adv-x="432" 
 />
    <glyph glyph-name="exclamdown" unicode="&#xa1;" horiz-adv-x="492" 
d="M139 909q-1 24 9 45q10 20 26 36t37 25t45 9t44 -9t37 -25q16 -16 25 -36q9 -21 9 -45t-9 -45q-9 -20 -25 -36q-17 -16 -37 -26t-44 -9q-24 -1 -45 9t-37 26t-26 36q-10 21 -9 45zM119 -449l84 1121l106 24l82 -1071z" />
    <glyph glyph-name="cent" unicode="&#xa2;" horiz-adv-x="891" 
d="M751 1143q52 -45 52 -110q0 -112 -71 -202t-167 -118l-14 26q85 43 113 139q8 30 8 61q0 70 -41 119q-41 48 -99 48t-96 -18t-68 -48q-59 -58 -91 -148q-31 -90 -31 -161q0 -142 76 -259q76 -118 192 -118q115 0 219 109l25 -25q-105 -136 -258 -182l35 -225l-150 -58
l35 271q-139 -2 -230 121q-90 123 -90 259t91 279t223 223l-41 265l149 55l-37 -285q62 27 137 27q77 0 129 -45z" />
    <glyph glyph-name="sterling" unicode="&#xa3;" horiz-adv-x="903" 
d="M629 375q78 0 145 84l29 -21l-131 -211q-73 13 -157 24t-138 19q-54 9 -78 9q-68 0 -129 -39l-25 24q54 46 54 133v209h-93l44 111h49v57q0 179 119 304q119 124 296 124q100 0 136 -65q12 -23 12 -61q0 -76 -79 -144q-79 -67 -169 -90l-12 30q131 74 131 162
q0 42 -30 70q-30 29 -74 29q-86 0 -139 -71q-52 -71 -52 -163v-182h254l-41 -111h-213v-119q0 -75 -62 -139q68 47 129 47q60 0 118 -10q59 -10 106 -10z" />
    <glyph glyph-name="currency" unicode="&#xa4;" horiz-adv-x="543" 
d="M463 721q0 -64 -36 -113l71 -86l-112 -50l-47 70q-32 -12 -68 -12t-67 12l-48 -70l-111 50l72 89q-33 47 -33 110t38 113l-77 96l111 50l56 -81q28 10 60 10t59 -10l55 81l112 -50l-77 -94q42 -51 42 -115zM237 854q-63 0 -63 -86q0 -58 28 -101q52 -81 105 -81
q65 0 65 86q0 56 -28 100q-52 82 -107 82z" />
    <glyph glyph-name="yen" unicode="&#xa5;" horiz-adv-x="930" 
d="M813 1075q0 -84 -233 -481h135l-43 -109h-121v-180l-137 -49v229h-187l43 109h125l-311 547l137 61l311 -596l105 182q45 88 45 162q0 141 -102 224l110 124q85 -57 114 -160q9 -32 9 -63z" />
    <glyph glyph-name="brokenbar" unicode="&#xa6;" horiz-adv-x="475" 
d="M342 -209l-207 -74v781l207 73v-780zM342 725l-207 -74v781l207 73v-780z" />
    <glyph glyph-name="section" unicode="&#xa7;" horiz-adv-x="995" 
d="M707 556q0 40 -31 85t-97 96t-155 78q-90 26 -154 72q-10 -32 -10 -70q0 -78 58 -144t127 -89q135 -44 235 -105q27 37 27 77zM117 1142q0 169 129 277q129 107 292 107q162 0 292 -110q42 -35 75 -79l-133 -163q-62 182 -199 242q-49 22 -100 22q-95 0 -154 -59
t-59 -146q0 -129 126 -209q36 -24 86 -40q366 -122 366 -342q0 -130 -95 -212q95 -90 95 -215t-110 -209t-254 -84q-143 0 -269 104q-38 32 -66 68l129 148q25 -81 116 -163q91 -83 171 -83q49 0 101 47q51 47 51 95q0 89 -96 165t-177 100q-143 41 -230 134q-87 92 -87 211
t78 208q-78 90 -78 186z" />
    <glyph glyph-name="dieresis" unicode="&#xa8;" horiz-adv-x="483" 
d="M390 1692q20 0 37 -8t29 -20t20 -30q7 -18 7 -37q0 -38 -27 -66t-56 -28q-29 -1 -46 7t-30 21t-20 30t-7 36t7 37t20 30t30 20q16 8 36 8zM94 1692q20 0 36 -8q17 -8 30 -20q12 -12 20 -30t8 -37q0 -38 -28 -66t-57 -28q-29 -1 -46 7t-30 21t-20 30t-7 36t7 37t20 30
t30 20t37 8z" />
    <glyph glyph-name="copyright" unicode="&#xa9;" horiz-adv-x="1171" 
d="M1004 698q0 86 -33 162t-89 132t-132 90q-76 32 -162 32t-162 -32t-132 -90q-56 -56 -90 -132q-32 -76 -32 -162t32 -162t90 -132q56 -56 132 -88t162 -33q86 1 162 33t132 88t89 132t33 162zM1055 700q0 -194 -138 -332q-137 -137 -331 -137q-196 0 -332 138
q-137 139 -137 331q0 193 137 331t331 138t332 -138q138 -137 138 -331zM733 543q-92 -123 -224 -123q-78 0 -135 78t-57 152q0 137 107 253q107 117 223 117q51 0 83 -28t32 -70q0 -71 -45 -127q-45 -57 -105 -76l-8 14q34 17 56 53t22 78t-26 75q-26 32 -72 32
q-83 0 -130 -81q-48 -81 -48 -167q0 -85 49 -161q49 -75 124 -75q74 0 142 68z" />
    <glyph glyph-name="ordfeminine" unicode="&#xaa;" horiz-adv-x="846" 
d="M715 641l-49 -129h-547l49 129h547zM666 926q0 -41 30 -41t64 43l20 -25q-30 -67 -98 -93q-22 -8 -45 -9q-119 0 -119 129v14q-78 -151 -182 -151t-161 71q-56 72 -56 160q0 166 96 284q96 119 246 119t203 -104l-121 -51q-17 30 -48 54t-71 24q-72 0 -122 -84t-50 -164
q0 -134 66 -196q24 -23 66 -23q74 -1 110 97q24 66 24 165v55l148 49v-323z" />
    <glyph glyph-name="guillemotleft" unicode="&#xab;" horiz-adv-x="868" 
d="M760 164l-35 -45l-356 262l356 262l35 -31l-168 -231zM455 164l-35 -45l-357 262l357 262l35 -31l-168 -231z" />
    <glyph glyph-name="logicalnot" unicode="&#xac;" horiz-adv-x="954" 
d="M711 674h-623l64 162h682v-363l-123 -104v305z" />
    <glyph glyph-name="uni00AD" unicode="&#xad;" horiz-adv-x="950" 
d="M864 836l-61 -162h-684l63 162h682z" />
    <glyph glyph-name="registered" unicode="&#xae;" horiz-adv-x="1171" 
d="M473 438l-84 -30v458l84 31v-459zM819 510q-80 -100 -132 -100t-103 64t-92 124l4 16q146 26 205 134q20 36 20 73q0 67 -36 105q-36 39 -83 39q-77 0 -130 -25t-120 -74l-12 15q66 63 109 87q87 48 175 48t136 -50t47 -117q0 -121 -109 -181q-16 -8 -58 -32t-56 -26
q61 -84 98 -114q21 -23 48 -23q28 0 75 47zM1004 698q0 86 -33 162t-89 132t-132 90q-76 32 -162 32t-162 -32t-132 -90q-56 -56 -90 -132q-32 -76 -32 -162t32 -162t90 -132q56 -56 132 -88t162 -33q86 1 162 33t132 88t89 132t33 162zM1055 700q0 -194 -138 -332
q-137 -137 -331 -137q-196 0 -332 138q-137 139 -137 331q0 193 137 331t331 138t332 -138q138 -137 138 -331z" />
    <glyph glyph-name="macron" unicode="&#xaf;" horiz-adv-x="485" 
d="M0 1518l72 157h413l-69 -157h-416z" />
    <glyph glyph-name="degree" unicode="&#xb0;" horiz-adv-x="520" 
d="M225 1321q-63 0 -63 -86q0 -58 28 -101q52 -81 105 -81q65 0 65 86q0 56 -28 100q-52 82 -107 82zM451 1186q0 -40 -15 -74t-41 -60t-61 -40q-35 -15 -74 -15q-40 0 -74 15q-34 14 -60 40t-40 60t-14 74t14 74t40 60t60 41t74 15q39 0 74 -15t61 -41t41 -60t15 -74z" />
    <glyph glyph-name="plusminus" unicode="&#xb1;" horiz-adv-x="956" 
d="M850 283l-62 -162h-684l64 162h682zM559 674v-230l-162 -63v293h-293l64 162h229v229l162 63v-292h291l-62 -162h-229z" />
    <glyph glyph-name="twosuperior" unicode="&#xb2;" horiz-adv-x="682" 
d="M557 858l33 -22l-92 -164q-74 8 -144 18t-133 13t-96 -35l-41 30q54 52 104 96t88 79q176 165 177 288q0 99 -88 137q-27 12 -58 11q-97 0 -174 -90l-31 28q76 111 182 152q36 14 80 14q97 0 161 -60q63 -60 63 -163q0 -142 -152 -268q-67 -56 -145 -107h4q31 -1 63 -7
q75 -16 109 -15q33 0 90 65z" />
    <glyph glyph-name="threesuperior" unicode="&#xb3;" horiz-adv-x="635" 
d="M352 1255q0 58 -62 58q-62 1 -130 -47q-21 -14 -37 -33l-31 29q83 100 186 136q36 12 68 13q64 0 108 -33t44 -78q0 -71 -47 -121t-119 -94q6 2 13 2h15q88 0 150 -54q61 -54 61 -145t-78 -161q-140 -123 -335 -123h-17q-8 0 -20 2l-10 41q117 14 219 80t102 161
q0 94 -89 126q-27 10 -68 10t-125 -31l-15 41q217 102 217 221z" />
    <glyph glyph-name="acute" unicode="&#xb4;" horiz-adv-x="350" 
d="M25 1507l-25 35l233 279l117 -131z" />
    <glyph glyph-name="mu" unicode="&#xb5;" horiz-adv-x="1040" 
d="M403 625v-414q0 -39 14 -51q15 -12 37 4q52 36 105 166q67 240 86 401l184 64v-650q0 -51 40 -53q40 -1 77 55l29 -30q-38 -81 -113 -113q-33 -14 -67 -16q-150 0 -150 162v319q-88 -404 -242 -475v-293l-184 -76l2 1004q0 51 -40 53q-40 1 -79 -55l-26 30
q56 122 180 129q147 0 147 -161z" />
    <glyph glyph-name="paragraph" unicode="&#xb6;" horiz-adv-x="1346" 
d="M932 532q-78 -21 -182 -28v-459l-207 -76v549q-207 39 -325 154t-135 273q-17 159 87 287q148 182 512 208q217 15 410 -39l-11 -45q-243 59 -488 -15q-245 -73 -291 -249q-33 -124 37 -250q71 -125 204 -185v596l207 74v-721q91 -6 182 10v637l207 74v-1282l-207 -76
v563z" />
    <glyph glyph-name="periodcentered" unicode="&#xb7;" horiz-adv-x="428" 
d="M330 731q0 -25 -10 -45t-25 -36q-16 -16 -37 -25t-45 -9q-25 0 -45 9t-36 25t-25 36t-9 45q0 23 9 45t25 38t36 24q20 10 45 10q24 0 45 -10t37 -24q15 -16 25 -38t10 -45z" />
    <glyph glyph-name="cedilla" unicode="&#xb8;" horiz-adv-x="223" 
d="M113 -49q29 0 47 -7q18 -6 32 -20t22 -36t9 -49q0 -51 -38 -84q-57 -49 -111 -28t-74 63l23 16q18 -31 45 -31q26 0 44 18t18 45t-17 46t-51 19t-39 -14l-23 19l62 105l23 -13l-43 -72q41 23 71 23z" />
    <glyph glyph-name="onesuperior" unicode="&#xb9;" horiz-adv-x="410" 
d="M164 649v623l-84 -47l-29 47l236 137v-715z" />
    <glyph glyph-name="ordmasculine" unicode="&#xba;" horiz-adv-x="823" 
d="M715 643l-49 -129h-547l49 129h547zM707 1157q0 -151 -87 -257q-87 -107 -213 -107q-125 0 -206 79q-82 79 -82 206q0 126 82 227q82 100 213 139l22 -27q-118 -88 -158 -218q-14 -44 -14 -86q0 -91 49 -167t131 -76q114 0 146 112q10 34 10 74q0 88 -64 172t-151 91
q45 49 131 111q88 -29 139 -111q52 -83 52 -162z" />
    <glyph glyph-name="guillemotright" unicode="&#xbb;" horiz-adv-x="868" 
d="M500 381l-357 -262l-34 45l167 217l-167 231l34 31zM805 381l-356 -262l-35 45l168 217l-168 231l35 31z" />
    <glyph glyph-name="onequarter" unicode="&#xbc;" horiz-adv-x="1186" 
d="M1001 231v-157l-122 -43v200h-349q97 109 153 217t93 242l84 -43q-24 -110 -104 -231q-24 -36 -47 -64h170v381l122 43v-424h93l-45 -121h-48zM227 649v623l-86 -47l-26 47l235 137v-715zM1014 1339l-813 -1308l-105 69l822 1305z" />
    <glyph glyph-name="onehalf" unicode="&#xbd;" horiz-adv-x="1272" 
d="M864 254q174 159 174 285q0 66 -40 108q-40 43 -105 43q-97 0 -174 -90l-31 29q76 111 182 152q36 14 80 14q95 0 160 -60q64 -60 64 -164q0 -170 -230 -329q-18 -14 -34 -24t-33 -21h4q31 0 63 -7q72 -16 107 -16q34 0 92 68l33 -23l-93 -166q-72 11 -142 21t-138 10
q-59 5 -90 -35l-43 31q54 54 104 96q52 42 90 78zM223 649v623l-86 -47l-26 47l235 137v-715zM1010 1339l-813 -1308l-105 69l821 1305z" />
    <glyph glyph-name="threequarters" unicode="&#xbe;" horiz-adv-x="1352" 
d="M356 1255q0 58 -62 58q-62 1 -130 -47q-21 -14 -37 -33l-31 29q83 100 186 136q36 12 68 13q64 0 108 -33t44 -78q0 -71 -47 -121t-119 -94q6 2 14 2h15q87 0 149 -54q61 -54 61 -145t-78 -161q-140 -123 -335 -123h-16q-9 0 -21 2l-10 41q117 14 219 80t102 161
q0 94 -89 126q-27 10 -68 10t-125 -31l-15 41q217 102 217 221zM1047 352v381l120 43v-424h93l-43 -121h-50v-157l-120 -43v200h-349q177 199 244 459l84 -43q-24 -108 -104 -231q-24 -36 -48 -64h173zM1180 1339l-813 -1308l-105 69l823 1305z" />
    <glyph glyph-name="questiondown" unicode="&#xbf;" horiz-adv-x="1018" 
d="M481 930q0 24 9 44q8 20 24 36t37 25t45 9t44 -9t37 -25q16 -16 25 -36t9 -44t-9 -46t-25 -36q-17 -16 -37 -26t-44 -9q-24 -1 -45 9t-37 26t-24 36q-9 22 -9 46zM848 166q86 -86 86 -238t-133 -264q-133 -113 -288 -113q-156 -1 -275 81q-148 101 -148 315
q0 229 162 362q134 111 184 167q99 111 107 216l108 27v-19q3 -146 -88 -278q-39 -56 -85 -106t-86 -105q-93 -126 -93 -251t80 -219q80 -93 201 -93q87 0 153 58t66 156q0 97 -90 183z" />
    <glyph glyph-name="Agrave" unicode="&#xc0;" horiz-adv-x="1391" 
d="M563 1681l117 133l233 -279l-26 -37zM1245 98q65 0 117 68l33 -29q-51 -99 -149 -137q-32 -12 -77 -12q-94 0 -154 74q-59 74 -59 182v387q-40 -184 -71 -270q-65 -181 -149 -271q-104 -113 -247 -113q-185 0 -295 132t-110 353t139 454t366 379q226 147 464 143h12v-45
q-200 -10 -377 -147t-281 -340t-104 -402q0 -146 53 -258q66 -140 201 -140q203 0 317 446q60 234 78 522q4 74 4 124l207 76v-1063q-1 -75 43 -103q16 -10 39 -10z" />
    <glyph glyph-name="Aacute" unicode="&#xc1;" horiz-adv-x="1391" 
d="M844 1498l-25 35l233 279l117 -131zM1245 98q65 0 117 68l33 -29q-51 -99 -149 -137q-32 -12 -77 -12q-94 0 -154 74q-59 74 -59 182v387q-40 -184 -71 -270q-65 -181 -149 -271q-104 -113 -247 -113q-185 0 -295 132t-110 353t139 454t366 379q226 147 464 143h12v-45
q-200 -10 -377 -147t-281 -340t-104 -402q0 -146 53 -258q66 -140 201 -140q203 0 317 446q60 234 78 522q4 74 4 124l207 76v-1063q-1 -75 43 -103q16 -10 39 -10z" />
    <glyph glyph-name="Acircumflex" unicode="&#xc2;" horiz-adv-x="1391" 
d="M508 1529l-51 41l279 312l286 -271l-100 -106l-244 231zM1245 98q65 0 117 68l33 -29q-51 -99 -149 -137q-32 -12 -77 -12q-94 0 -154 74q-59 74 -59 182v387q-40 -184 -71 -270q-65 -181 -149 -271q-104 -113 -247 -113q-185 0 -295 132t-110 353t139 454t366 379
q226 147 464 143h12v-45q-200 -10 -377 -147t-281 -340t-104 -402q0 -146 53 -258q66 -140 201 -140q203 0 317 446q60 234 78 522q4 74 4 124l207 76v-1063q-1 -75 43 -103q16 -10 39 -10z" />
    <glyph glyph-name="Atilde" unicode="&#xc3;" horiz-adv-x="1391" 
d="M594 1515l-39 -20q-54 59 -44 123t39 99q30 35 76 37t71 -10t45 -28t38 -34q16 -18 31 -28q34 -24 61 6q27 29 5 95l38 16q60 -80 27 -176q-27 -67 -80 -85t-92 8q-38 26 -59 47t-51 47t-52 14q-62 -35 -14 -111zM1245 98q65 0 117 68l33 -29q-51 -99 -149 -137
q-32 -12 -77 -12q-94 0 -154 74q-59 74 -59 182v387q-40 -184 -71 -270q-65 -181 -149 -271q-104 -113 -247 -113q-185 0 -295 132t-110 353t139 454t366 379q226 147 464 143h12v-45q-200 -10 -377 -147t-281 -340t-104 -402q0 -146 53 -258q66 -140 201 -140
q203 0 317 446q60 234 78 522q4 74 4 124l207 76v-1063q-1 -75 43 -103q16 -10 39 -10z" />
    <glyph glyph-name="Adieresis" unicode="&#xc4;" horiz-adv-x="1391" 
d="M888 1702q20 0 37 -8t29 -20t20 -30q7 -18 7 -37q0 -38 -27 -66t-56 -28q-29 -1 -46 7t-30 21t-20 30t-7 36t7 37t20 30t30 20q16 8 36 8zM592 1702q20 0 36 -8q17 -8 30 -20q12 -12 20 -30t8 -37q0 -38 -28 -66t-57 -28q-29 -1 -46 7t-30 21t-20 30t-7 36t7 37t20 30
t30 20t37 8zM1245 98q65 0 117 68l33 -29q-51 -99 -149 -137q-32 -12 -77 -12q-94 0 -154 74q-59 74 -59 182v387q-40 -184 -71 -270q-65 -181 -149 -271q-104 -113 -247 -113q-185 0 -295 132t-110 353t139 454t366 379q226 147 464 143h12v-45q-200 -10 -377 -147
t-281 -340t-104 -402q0 -146 53 -258q66 -140 201 -140q203 0 317 446q60 234 78 522q4 74 4 124l207 76v-1063q-1 -75 43 -103q16 -10 39 -10z" />
    <glyph glyph-name="Aring" unicode="&#xc5;" horiz-adv-x="1391" 
d="M795 1545q15 7 25 23t11 38q2 22 -2 46q-4 25 -16 51q-13 26 -29 46t-34 32q-18 11 -36 15t-34 -3q-31 -14 -36 -75q-6 -61 37 -115t71 -60q28 -5 43 2zM738 1864q40 0 76 -16t62 -42t42 -62t16 -76t-16 -76t-42 -62t-62 -42t-76 -15q-40 -1 -76 15t-62 42t-42 62t-15 76
q-1 40 15 76t42 62t62 42t76 16zM1245 98q65 0 117 68l33 -29q-51 -99 -149 -137q-32 -12 -77 -12q-94 0 -154 74q-59 74 -59 182v387q-40 -184 -71 -270q-65 -181 -149 -271q-104 -113 -247 -113q-185 0 -295 132t-110 353t139 454t366 379q226 147 464 143h12v-45
q-200 -10 -377 -147t-281 -340t-104 -402q0 -146 53 -258q66 -140 201 -140q203 0 317 446q60 234 78 522q4 74 4 124l207 76v-1063q-1 -75 43 -103q16 -10 39 -10z" />
    <glyph glyph-name="AE" unicode="&#xc6;" horiz-adv-x="1976" 
d="M1511 1356q-95 0 -171 -64t-76 -161t78 -166q78 -70 180 -70q54 0 104 18l14 -41q-304 -98 -408 -296q-40 -75 -40 -150q0 -132 64 -206q64 -73 178 -73t268 87q153 87 211 190l35 -31q-93 -171 -253 -288t-329 -117q-170 0 -290 99t-120 251v293q-40 -184 -71 -270
q-65 -181 -149 -271q-104 -113 -247 -113q-185 0 -295 132t-110 354t140 455q140 232 365 378t464 142h12v-45q-200 -10 -377 -147t-281 -340t-104 -402q0 -146 53 -258q66 -140 201 -140q203 0 317 446q60 234 78 522q4 74 4 124l207 76v-70q66 108 196 177t234 69
q186 0 293 -127l-145 -106q-101 139 -230 139zM1163 688q58 44 144 86q-89 15 -144 96v-182z" />
    <glyph glyph-name="Ccedilla" unicode="&#xc7;" horiz-adv-x="1231" 
d="M563 -121q-41 0 -49 -18l-29 24l62 105q-134 6 -247 101q-156 131 -205 357q-15 68 -15 150t32 184t90 198q120 202 308 337t375 135q122 0 203 -69t81 -206t-110 -276t-254 -182l-21 35q132 66 176 216q14 46 13 98q0 112 -65 189q-65 76 -190 76q-125 1 -229 -103
q-136 -135 -178 -375q-12 -69 -12 -131t13 -127q13 -66 38 -130q54 -138 154 -227q100 -88 231 -88q179 0 330 165l33 -32q-88 -118 -229 -203q-141 -86 -285 -94l-45 -78q74 48 146 20q46 -18 68 -69q11 -25 11 -61q0 -66 -48 -106t-88 -40q-104 0 -143 84l29 20
q21 -35 55 -37q34 -1 56 21t22 56q1 34 -21 57q-22 24 -63 24z" />
    <glyph glyph-name="Egrave" unicode="&#xc8;" horiz-adv-x="1092" 
d="M279 1694l117 133l233 -279l-26 -37zM627 1356q-96 0 -172 -64t-76 -161t78 -166q78 -70 180 -70q56 0 104 18l15 -41q-306 -98 -410 -296q-40 -75 -39 -150q0 -132 64 -206q64 -73 178 -73t268 87q153 87 211 190l35 -31q-93 -171 -253 -288t-329 -117q-170 0 -290 99
q-119 99 -119 245q0 147 102 260t248 182q-87 15 -140 90t-53 152q0 78 22 132q21 54 59 100q74 92 192 147q117 55 214 55q179 0 285 -127l-145 -106q-101 139 -229 139z" />
    <glyph glyph-name="Eacute" unicode="&#xc9;" horiz-adv-x="1092" 
d="M594 1504l-25 35l233 279l117 -131zM627 1356q-96 0 -172 -64t-76 -161t78 -166q78 -70 180 -70q56 0 104 18l15 -41q-306 -98 -410 -296q-40 -75 -39 -150q0 -132 64 -206q64 -73 178 -73t268 87q153 87 211 190l35 -31q-93 -171 -253 -288t-329 -117q-170 0 -290 99
q-119 99 -119 245q0 147 102 260t248 182q-87 15 -140 90t-53 152q0 78 22 132q21 54 59 100q74 92 192 147q117 55 214 55q179 0 285 -127l-145 -106q-101 139 -229 139z" />
    <glyph glyph-name="Ecircumflex" unicode="&#xca;" horiz-adv-x="1092" 
d="M418 1534l-51 41l279 312l286 -271l-100 -106l-244 231zM627 1356q-96 0 -172 -64t-76 -161t78 -166q78 -70 180 -70q56 0 104 18l15 -41q-306 -98 -410 -296q-40 -75 -39 -150q0 -132 64 -206q64 -73 178 -73t268 87q153 87 211 190l35 -31q-93 -171 -253 -288
t-329 -117q-170 0 -290 99q-119 99 -119 245q0 147 102 260t248 182q-87 15 -140 90t-53 152q0 78 22 132q21 54 59 100q74 92 192 147q117 55 214 55q179 0 285 -127l-145 -106q-101 139 -229 139z" />
    <glyph glyph-name="Edieresis" unicode="&#xcb;" horiz-adv-x="1092" 
d="M740 1706q20 0 37 -8t29 -20t20 -30q7 -18 7 -37q0 -38 -27 -66t-56 -28q-29 -1 -46 7t-30 21t-20 30t-7 36t7 37t20 30t30 20q16 8 36 8zM444 1706q20 0 36 -8q17 -8 30 -20q12 -12 20 -30t8 -37q0 -38 -28 -66t-57 -28q-29 -1 -46 7t-30 21t-20 30t-7 36t7 37t20 30
t30 20t37 8zM627 1356q-96 0 -172 -64t-76 -161t78 -166q78 -70 180 -70q56 0 104 18l15 -41q-306 -98 -410 -296q-40 -75 -39 -150q0 -132 64 -206q64 -73 178 -73t268 87q153 87 211 190l35 -31q-93 -171 -253 -288t-329 -117q-170 0 -290 99q-119 99 -119 245
q0 147 102 260t248 182q-87 15 -140 90t-53 152q0 78 22 132q21 54 59 100q74 92 192 147q117 55 214 55q179 0 285 -127l-145 -106q-101 139 -229 139z" />
    <glyph glyph-name="Igrave" unicode="&#xcc;" horiz-adv-x="584" 
d="M-48 1691l117 133l233 -279l-26 -37zM395 43l-207 -74v1432l207 74v-1432z" />
    <glyph glyph-name="Iacute" unicode="&#xcd;" horiz-adv-x="584" 
d="M281 1511l-25 35l233 279l117 -131zM395 43l-207 -74v1432l207 74v-1432z" />
    <glyph glyph-name="Icircumflex" unicode="&#xce;" horiz-adv-x="584" 
d="M61 1519l-51 41l279 312l286 -271l-100 -106l-244 231zM395 43l-207 -74v1432l207 74v-1432z" />
    <glyph glyph-name="Idieresis" unicode="&#xcf;" horiz-adv-x="584" 
d="M442 1715q20 1 36 -7q18 -8 30 -21t19 -31t7 -36q0 -38 -27 -66t-56 -28t-46 8t-30 20q-13 13 -20 30t-7 36q0 18 7 36t20 31t30 21t37 7zM144 1715q20 1 37 -7t30 -21t21 -31t7 -36q0 -38 -28 -66t-57 -28t-46 8t-30 20q-13 13 -20 30t-7 36q0 18 7 36t20 31t30 21
q16 8 36 7zM395 43l-207 -74v1432l207 74v-1432z" />
    <glyph glyph-name="Eth" unicode="&#xd0;" horiz-adv-x="1364" 
d="M408 653v-573q286 84 463 305q178 221 178 514q0 183 -91 304q-91 122 -272 122q-226 0 -446 -137q-68 -42 -125 -92l-31 34q121 132 321 225q199 93 377 93q244 0 372 -139t128 -380q0 -240 -167 -455t-421 -350q-253 -135 -493 -149v678h-219l43 101h176v342l207 73
v-415h299l-41 -101h-258z" />
    <glyph glyph-name="Ntilde" unicode="&#xd1;" horiz-adv-x="1264" 
d="M584 1542l-39 -20q-54 59 -44 123t39 99q30 35 76 37q46 3 71 -9t45 -28t38 -34q16 -18 31 -28q34 -24 61 5t5 95l38 16q60 -80 27 -176q-27 -67 -80 -85t-92 8q-38 26 -59 47t-51 47t-52 14q-62 -35 -14 -111zM1122 98q63 0 115 68l33 -29q-51 -99 -149 -137
q-32 -12 -77 -12q-94 0 -154 74q-59 74 -59 182v916q1 151 -69 188q-22 12 -68 12t-91 -34t-79 -88q-63 -99 -96 -246q-33 -146 -33 -253v-692l-207 -76v1432l207 74v-377q71 258 249 342q66 30 140 31q132 0 193 -82t61 -209v-971q0 -76 44 -103q16 -10 40 -10z" />
    <glyph glyph-name="Ograve" unicode="&#xd2;" 
d="M322 1710l117 133l233 -279l-26 -37zM659 1358q-81 0 -131 -22t-90 -62q-72 -71 -108 -187q-35 -116 -35 -214q0 -99 12 -187q13 -88 39 -174q59 -192 178 -313t299 -121q119 0 204 84q144 142 144 435q-1 269 -119 493q-88 164 -236 232q-76 36 -157 36zM1378 715
q0 -91 -20 -183t-58 -174t-94 -154t-128 -124t-158 -82t-187 -29q-101 -1 -187 29t-158 82t-128 124t-95 154t-59 174t-20 183q0 92 20 183q20 92 59 174t95 154t128 123t158 81t187 30t187 -30t158 -81t128 -123t94 -154t58 -174q20 -91 20 -183z" />
    <glyph glyph-name="Oacute" unicode="&#xd3;" 
d="M680 1521l-25 35l233 279l117 -131zM659 1358q-81 0 -131 -22t-90 -62q-72 -71 -108 -187q-35 -116 -35 -214q0 -99 12 -187q13 -88 39 -174q59 -192 178 -313t299 -121q119 0 204 84q144 142 144 435q-1 269 -119 493q-88 164 -236 232q-76 36 -157 36zM1378 715
q0 -91 -20 -183t-58 -174t-94 -154t-128 -124t-158 -82t-187 -29q-101 -1 -187 29t-158 82t-128 124t-95 154t-59 174t-20 183q0 92 20 183q20 92 59 174t95 154t128 123t158 81t187 30t187 -30t158 -81t128 -123t94 -154t58 -174q20 -91 20 -183z" />
    <glyph glyph-name="Ocircumflex" unicode="&#xd4;" 
d="M500 1542l-51 41l279 312l286 -271l-100 -106l-244 231zM659 1358q-81 0 -131 -22t-90 -62q-72 -71 -108 -187q-35 -116 -35 -214q0 -99 12 -187q13 -88 39 -174q59 -192 178 -313t299 -121q119 0 204 84q144 142 144 435q-1 269 -119 493q-88 164 -236 232
q-76 36 -157 36zM1378 715q0 -91 -20 -183t-58 -174t-94 -154t-128 -124t-158 -82t-187 -29q-101 -1 -187 29t-158 82t-128 124t-95 154t-59 174t-20 183q0 92 20 183q20 92 59 174t95 154t128 123t158 81t187 30t187 -30t158 -81t128 -123t94 -154t58 -174q20 -91 20 -183z
" />
    <glyph glyph-name="Otilde" unicode="&#xd5;" 
d="M586 1540l-39 -20q-54 59 -44 123t39 99q30 35 76 37q46 3 71 -9t45 -28t38 -34q16 -18 31 -28q34 -24 61 5t5 95l38 16q60 -80 27 -176q-27 -67 -80 -85t-92 8q-38 26 -59 47t-51 47t-52 14q-62 -35 -14 -111zM659 1358q-81 0 -131 -22t-90 -62q-72 -71 -108 -187
q-35 -116 -35 -214q0 -99 12 -187q13 -88 39 -174q59 -192 178 -313t299 -121q119 0 204 84q144 142 144 435q-1 269 -119 493q-88 164 -236 232q-76 36 -157 36zM1378 715q0 -91 -20 -183t-58 -174t-94 -154t-128 -124t-158 -82t-187 -29q-101 -1 -187 29t-158 82t-128 124
t-95 154t-59 174t-20 183q0 92 20 183q20 92 59 174t95 154t128 123t158 81t187 30t187 -30t158 -81t128 -123t94 -154t58 -174q20 -91 20 -183z" />
    <glyph glyph-name="Odieresis" unicode="&#xd6;" 
d="M880 1702q20 0 36 -8q18 -8 30 -20t19 -30t7 -37q0 -38 -27 -66t-56 -28q-29 -1 -46 7t-30 21t-20 30t-7 36t7 37t20 30t30 20t37 8zM582 1702q20 0 37 -8t30 -20t21 -30t7 -37q0 -38 -28 -66t-57 -28q-29 -1 -46 7t-30 21t-20 30t-7 36t7 37t20 30t30 20q16 8 36 8z
M659 1358q-81 0 -131 -22t-90 -62q-72 -71 -108 -187q-35 -116 -35 -214q0 -99 12 -187q13 -88 39 -174q59 -192 178 -313t299 -121q119 0 204 84q144 142 144 435q-1 269 -119 493q-88 164 -236 232q-76 36 -157 36zM1378 715q0 -91 -20 -183t-58 -174t-94 -154t-128 -124
t-158 -82t-187 -29q-101 -1 -187 29t-158 82t-128 124t-95 154t-59 174t-20 183q0 92 20 183q20 92 59 174t95 154t128 123t158 81t187 30t187 -30t158 -81t128 -123t94 -154t58 -174q20 -91 20 -183z" />
    <glyph glyph-name="multiply" unicode="&#xd7;" horiz-adv-x="887" 
d="M764 1044l-236 -288l236 -289l-158 -70l-162 238l-163 -238l-158 70l235 289l-235 288l158 70l163 -237l162 237z" />
    <glyph glyph-name="Oslash" unicode="&#xd8;" 
d="M1194 1239q184 -217 184 -535q0 -178 -78 -346q-82 -175 -229 -282q-146 -107 -322 -107t-313 80l-61 -98l-125 82l67 106q-165 163 -215 415q-16 80 -16 166t20 178t59 174q84 177 230 282q147 106 341 106t358 -123l90 142l112 -78zM372 1186q-77 -144 -77 -346
t75 -398q26 -68 62 -127l559 867q-136 176 -348 176q-179 0 -271 -172zM1171 584q0 245 -98 465l-545 -854q128 -117 295 -117q119 0 204 84q108 106 136 310q8 58 8 112z" />
    <glyph glyph-name="Ugrave" unicode="&#xd9;" horiz-adv-x="1272" 
d="M242 1700l117 133l233 -279l-26 -37zM1104 100q64 0 115 66l32 -29q-51 -99 -149 -137q-32 -12 -76 -12q-95 0 -154 74t-59 182v118q-71 -263 -249 -350q-66 -32 -140 -32q-131 0 -192 82q-62 82 -62 208v1104l207 74v-1104q0 -117 12 -159q27 -93 124 -93t181 136
q85 136 112 386q7 64 7 107v653l207 74v-1237q0 -74 44 -101q16 -10 40 -10z" />
    <glyph glyph-name="Uacute" unicode="&#xda;" horiz-adv-x="1272" 
d="M627 1515l-25 35l233 279l117 -131zM1104 100q64 0 115 66l32 -29q-51 -99 -149 -137q-32 -12 -76 -12q-95 0 -154 74t-59 182v118q-71 -263 -249 -350q-66 -32 -140 -32q-131 0 -192 82q-62 82 -62 208v1104l207 74v-1104q0 -117 12 -159q27 -93 124 -93t181 136
q85 136 112 386q7 64 7 107v653l207 74v-1237q0 -74 44 -101q16 -10 40 -10z" />
    <glyph glyph-name="Ucircumflex" unicode="&#xdb;" horiz-adv-x="1272" 
d="M383 1540l-51 41l279 312l286 -271l-100 -106l-244 231zM1104 100q64 0 115 66l32 -29q-51 -99 -149 -137q-32 -12 -76 -12q-95 0 -154 74t-59 182v118q-71 -263 -249 -350q-66 -32 -140 -32q-131 0 -192 82q-62 82 -62 208v1104l207 74v-1104q0 -117 12 -159
q27 -93 124 -93t181 136q85 136 112 386q7 64 7 107v653l207 74v-1237q0 -74 44 -101q16 -10 40 -10z" />
    <glyph glyph-name="Udieresis" unicode="&#xdc;" horiz-adv-x="1272" 
d="M762 1698q20 0 36 -8q18 -8 30 -20t19 -30t7 -37q0 -38 -27 -66t-56 -28q-29 -1 -46 7t-30 21t-20 30t-7 36t7 37t20 30t30 20t37 8zM464 1698q20 0 37 -8t30 -20t21 -30t7 -37q0 -38 -28 -66t-57 -28q-29 -1 -46 7t-30 21t-20 30t-7 36t7 37t20 30t30 20q16 8 36 8z
M1104 100q64 0 115 66l32 -29q-51 -99 -149 -137q-32 -12 -76 -12q-95 0 -154 74t-59 182v118q-71 -263 -249 -350q-66 -32 -140 -32q-131 0 -192 82q-62 82 -62 208v1104l207 74v-1104q0 -117 12 -159q27 -93 124 -93t181 136q85 136 112 386q7 64 7 107v653l207 74v-1237
q0 -74 44 -101q16 -10 40 -10z" />
    <glyph glyph-name="Yacute" unicode="&#xdd;" horiz-adv-x="1264" 
d="M639 1479l-25 35l233 279l117 -131zM141 1317q-65 0 -116 -66l-33 29q51 100 149 138q33 12 77 12q95 0 153 -74q59 -74 59 -182v-820q0 -118 12 -160q27 -94 123 -94q97 0 182 134t112 382q7 62 7 105v653l207 74v-1395q0 -233 -174 -377q-98 -82 -170 -104
q-72 -21 -147 -21q-151 0 -281 111l168 148q55 -112 169 -166q36 -18 68 -17q30 -1 58 11q59 24 81 85q21 60 21 150v489q-70 -258 -250 -343q-66 -31 -139 -31q-130 0 -192 83t-62 208v927q0 74 -43 101q-16 10 -39 10z" />
    <glyph glyph-name="Thorn" unicode="&#xde;" horiz-adv-x="1247" 
d="M401 1102q214 104 395 104t300 -117q118 -117 118 -289t-116 -315t-288 -227t-331 -84h-16q-9 0 -17 2l11 55q217 37 383 176t166 349q0 141 -88 234t-225 93q-138 0 -292 -59v-1020l-206 -76v985q-52 -39 -86 -69l-31 35q54 53 117 98v424l206 74v-373z" />
    <glyph glyph-name="germandbls" unicode="&#xdf;" horiz-adv-x="991" 
d="M457 1372q-133 0 -133 -209v-1370l-185 -80v928h-100l43 100h57q1 204 11 291q24 190 94 290q89 124 257 124t224 -124q18 -40 18 -88q0 -46 -12 -80t-30 -66q-17 -32 -39 -64t-52 -85q-30 -54 -30 -116t26 -106t66 -82t86 -74q178 -139 178 -291q0 -125 -85 -212
t-198 -87t-195 47q-28 16 -46 37l120 152q46 -81 114 -115q24 -12 51 -12q58 0 99 39q40 39 38 89q-1 49 -29 83q-29 34 -69 69t-88 75q-182 153 -181 380q0 61 43 157q42 96 62 149t20 92q0 68 -39 113q-39 46 -96 46z" />
    <glyph glyph-name="agrave" unicode="&#xe0;" horiz-adv-x="895" 
d="M109 1031l117 133l233 -279l-26 -37zM745 147q0 -53 42 -53t77 56l27 -31q-41 -87 -123 -119q-28 -10 -57 -10q-148 0 -148 162v18q-101 -190 -229 -190q-129 0 -200 89t-71 224q0 185 121 333t301 148q131 0 211 -70q28 -25 47 -61l-149 -63q-61 96 -150 96t-152 -104
t-63 -203q0 -167 84 -246q31 -29 73 -29t69 16t46 44q62 86 62 266v69l182 64v-406z" />
    <glyph glyph-name="aacute" unicode="&#xe1;" horiz-adv-x="895" 
d="M449 838l-25 35l233 279l117 -131zM745 147q0 -53 42 -53t77 56l27 -31q-41 -87 -123 -119q-28 -10 -57 -10q-148 0 -148 162v18q-101 -190 -229 -190q-129 0 -200 89t-71 224q0 185 121 333t301 148q131 0 211 -70q28 -25 47 -61l-149 -63q-61 96 -150 96t-152 -104
t-63 -203q0 -167 84 -246q31 -29 73 -29t69 16t46 44q62 86 62 266v69l182 64v-406z" />
    <glyph glyph-name="acircumflex" unicode="&#xe2;" horiz-adv-x="895" 
d="M213 832l-51 41l279 312l286 -271l-100 -106l-244 231zM745 147q0 -53 42 -53t77 56l27 -31q-41 -87 -123 -119q-28 -10 -57 -10q-148 0 -148 162v18q-101 -190 -229 -190q-129 0 -200 89t-71 224q0 185 121 333t301 148q131 0 211 -70q28 -25 47 -61l-149 -63
q-61 96 -150 96t-152 -104t-63 -203q0 -167 84 -246q31 -29 73 -29t69 16t46 44q62 86 62 266v69l182 64v-406z" />
    <glyph glyph-name="atilde" unicode="&#xe3;" horiz-adv-x="895" 
d="M293 859l-39 -20q-54 59 -44 123t39 99t75 37t72 -10t46 -28t36 -34t32 -28q34 -24 61 6q27 29 5 95l38 16q60 -80 27 -176q-27 -67 -80 -85t-92 8q-38 26 -59 47t-51 47t-52 14q-62 -35 -14 -111zM745 147q0 -53 42 -53t77 56l27 -31q-41 -87 -123 -119q-28 -10 -57 -10
q-148 0 -148 162v18q-101 -190 -229 -190q-129 0 -200 89t-71 224q0 185 121 333t301 148q131 0 211 -70q28 -25 47 -61l-149 -63q-61 96 -150 96t-152 -104t-63 -203q0 -167 84 -246q31 -29 73 -29t69 16t46 44q62 86 62 266v69l182 64v-406z" />
    <glyph glyph-name="adieresis" unicode="&#xe4;" horiz-adv-x="895" 
d="M586 1011q20 1 36 -7q18 -8 30 -21t19 -31t7 -36q0 -38 -27 -66t-56 -28t-46 8t-30 20q-13 13 -20 30t-7 36q0 18 7 36t20 31t30 21t37 7zM288 1011q20 1 37 -7t30 -21t21 -31t7 -36q0 -38 -28 -66t-57 -28t-46 8t-30 20q-13 13 -20 30t-7 36q0 18 7 36t20 31t30 21
q16 8 36 7zM745 147q0 -53 42 -53t77 56l27 -31q-41 -87 -123 -119q-28 -10 -57 -10q-148 0 -148 162v18q-101 -190 -229 -190q-129 0 -200 89t-71 224q0 185 121 333t301 148q131 0 211 -70q28 -25 47 -61l-149 -63q-61 96 -150 96t-152 -104t-63 -203q0 -167 84 -246
q31 -29 73 -29t69 16t46 44q62 86 62 266v69l182 64v-406z" />
    <glyph glyph-name="aring" unicode="&#xe5;" horiz-adv-x="895" 
d="M485 908q15 7 25 23q10 15 11 37q2 22 -2 47t-16 51q-13 26 -29 46t-34 32t-36 16t-34 -4q-31 -14 -36 -75q-6 -61 37 -115t71 -60q28 -5 43 2zM428 1227q40 1 76 -15t62 -42t42 -63q16 -36 16 -76q0 -39 -16 -75t-42 -62t-62 -42t-76 -16t-76 16t-62 42t-42 62t-15 75
q-1 40 15 76q16 37 42 63t62 42t76 15zM745 147q0 -53 42 -53t77 56l27 -31q-41 -87 -123 -119q-28 -10 -57 -10q-148 0 -148 162v18q-101 -190 -229 -190q-129 0 -200 89t-71 224q0 185 121 333t301 148q131 0 211 -70q28 -25 47 -61l-149 -63q-61 96 -150 96t-152 -104
t-63 -203q0 -167 84 -246q31 -29 73 -29t69 16t46 44q62 86 62 266v69l182 64v-406z" />
    <glyph glyph-name="ae" unicode="&#xe6;" horiz-adv-x="1356" 
d="M940 -20q-114 0 -202 66t-122 175q-33 -91 -113 -166t-182 -75t-181 74t-79 188q0 227 145 385q145 157 343 157q112 0 192 -71l-118 -86q-25 95 -129 89q-50 -2 -98 -44t-80 -104q-66 -123 -66 -259t64 -194q26 -23 64 -23q72 0 145 78t79 156q4 27 8 49q20 95 19 192
l80 41q111 180 350 180q143 0 192 -98q17 -34 17 -74q0 -42 -22 -84t-60 -84q-67 -77 -168 -152q-102 -75 -174 -106q82 -104 191 -104q108 0 255 141l33 -32q-116 -149 -271 -198q-54 -17 -112 -17zM1050 656q-29 34 -76 34q-84 0 -146 -104t-62 -188t45 -160
q92 52 152 121q116 133 116 199q0 64 -29 98z" />
    <glyph glyph-name="ccedilla" unicode="&#xe7;" horiz-adv-x="809" 
d="M592 588q-40 96 -180 96q-36 0 -74 -22t-64 -56q-54 -71 -55 -161q0 -172 77 -265q77 -94 198 -94q84 0 204 114q30 29 54 52l30 -35q-184 -237 -381 -237l-24 2l-41 -72q45 29 84 29q68 0 105 -37q36 -37 36 -88q0 -81 -47 -120q-47 -40 -88 -40q-104 0 -143 84l28 20
q21 -35 56 -37q33 -1 55 21t22 56t-21 57q-21 24 -63 24t-49 -18l-28 24l57 101q-123 18 -200 114q-77 97 -77 260q-1 162 129 292t303 130t240 -116z" />
    <glyph glyph-name="egrave" unicode="&#xe8;" horiz-adv-x="813" 
d="M70 1009l117 133l233 -279l-26 -37zM507 657q-30 33 -76 33q-84 0 -146 -103t-62 -187q0 -83 45 -162q90 50 180 152q89 103 89 168q0 66 -30 99zM778 195q-167 -215 -389 -215q-139 0 -234 99q-96 99 -96 263q1 164 139 306q85 86 201 122q57 18 108 18q99 0 159 -44
q59 -44 59 -139t-153 -229t-273 -186q84 -104 189 -104q106 0 260 141z" />
    <glyph glyph-name="eacute" unicode="&#xe9;" horiz-adv-x="813" 
d="M414 849l-25 35l233 279l117 -131zM507 657q-30 33 -76 33q-84 0 -146 -103t-62 -187q0 -83 45 -162q90 50 180 152q89 103 89 168q0 66 -30 99zM778 195q-167 -215 -389 -215q-139 0 -234 99q-96 99 -96 263q1 164 139 306q85 86 201 122q57 18 108 18q99 0 159 -44
q59 -44 59 -139t-153 -229t-273 -186q84 -104 189 -104q106 0 260 141z" />
    <glyph glyph-name="ecircumflex" unicode="&#xea;" horiz-adv-x="813" 
d="M186 859l-51 41l279 312l286 -271l-100 -106l-244 231zM507 657q-30 33 -76 33q-84 0 -146 -103t-62 -187q0 -83 45 -162q90 50 180 152q89 103 89 168q0 66 -30 99zM778 195q-167 -215 -389 -215q-139 0 -234 99q-96 99 -96 263q1 164 139 306q85 86 201 122
q57 18 108 18q99 0 159 -44q59 -44 59 -139t-153 -229t-273 -186q84 -104 189 -104q106 0 260 141z" />
    <glyph glyph-name="edieresis" unicode="&#xeb;" horiz-adv-x="813" 
d="M566 1038q20 0 37 -8t29 -20t20 -30q7 -18 7 -37q0 -38 -27 -66t-56 -28q-29 -1 -46 7t-30 21t-20 30t-7 36t7 37t20 30t30 20q16 8 36 8zM270 1038q20 0 36 -8q17 -8 30 -20q12 -12 20 -30t8 -37q0 -38 -28 -66t-57 -28q-29 -1 -46 7t-30 21t-20 30t-7 36t7 37t20 30
t30 20t37 8zM507 657q-30 33 -76 33q-84 0 -146 -103t-62 -187q0 -83 45 -162q90 50 180 152q89 103 89 168q0 66 -30 99zM778 195q-167 -215 -389 -215q-139 0 -234 99q-96 99 -96 263q1 164 139 306q85 86 201 122q57 18 108 18q99 0 159 -44q59 -44 59 -139t-153 -229
t-273 -186q84 -104 189 -104q106 0 260 141z" />
    <glyph glyph-name="igrave" unicode="&#xec;" horiz-adv-x="465" 
d="M-118 1019l117 133l233 -279l-26 -37zM121 150v561l184 63v-629q0 -51 40 -53q40 -1 77 55l27 -30q-57 -122 -179 -129q-149 0 -149 162z" />
    <glyph glyph-name="iacute" unicode="&#xed;" horiz-adv-x="465" 
d="M211 836l-25 35l233 279l117 -131zM121 150v561l184 63v-629q0 -51 40 -53q40 -1 77 55l27 -30q-57 -122 -179 -129q-149 0 -149 162z" />
    <glyph glyph-name="icircumflex" unicode="&#xee;" horiz-adv-x="465" 
d="M-18 855l-51 41l279 312l286 -271l-100 -106l-244 231zM121 150v561l184 63v-629q0 -51 40 -53q40 -1 77 55l27 -30q-57 -122 -179 -129q-149 0 -149 162z" />
    <glyph glyph-name="idieresis" unicode="&#xef;" horiz-adv-x="465" 
d="M356 1029q20 1 37 -7t29 -21t20 -31q7 -18 7 -36q0 -38 -27 -66t-56 -28t-46 8t-30 20q-13 13 -20 30t-7 36q0 18 7 36t20 31t30 21q16 8 36 7zM60 1029q20 1 36 -7q17 -8 30 -21q12 -13 20 -31t8 -36q0 -38 -28 -66t-57 -28t-46 8t-30 20q-13 13 -20 30t-7 36q0 18 7 36
t20 31t30 21t37 7zM121 150v561l184 63v-629q0 -51 40 -53q40 -1 77 55l27 -30q-57 -122 -179 -129q-149 0 -149 162z" />
    <glyph glyph-name="eth" unicode="&#xf0;" horiz-adv-x="907" 
d="M813 434q0 -179 -113 -318t-268 -139q-156 0 -265 136q-110 136 -110 301q0 126 105 258q105 131 239 131q105 -74 162 -139q-221 0 -331 -204q-42 -79 -42 -141q0 -115 50 -179t152 -64t171 112q68 112 68 269q0 328 -193 590l-243 -95v109l174 67q-107 117 -234 193
l29 35q181 -64 325 -182l230 88v-109l-148 -55q242 -261 242 -664z" />
    <glyph glyph-name="ntilde" unicode="&#xf1;" horiz-adv-x="946" 
d="M328 867l-39 -20q-54 59 -44 123t39 99q30 35 76 37t71 -10t45 -28t38 -34q16 -18 31 -28q34 -24 61 6q27 29 5 95l38 16q60 -80 27 -176q-27 -67 -80 -85t-92 8q-38 26 -59 47t-51 47t-52 14q-62 -35 -14 -111zM788 145q0 -53 40 -53t77 55l29 -30q-40 -87 -124 -119
q-27 -10 -56 -10q-150 0 -150 162v407q0 55 -27 55t-55 -34t-56 -88q-48 -98 -86 -245t-38 -222l-182 -64v672q0 53 -41 53t-78 -55l-27 30q42 87 124 119q28 10 57 10q147 0 147 -161v-326q36 163 112 305q97 182 216 182q113 0 117 -142q1 -38 1 -73v-428z" />
    <glyph glyph-name="ograve" unicode="&#xf2;" horiz-adv-x="856" 
d="M96 1033l117 133l233 -279l-26 -37zM795 435q0 -188 -109 -323t-266 -135t-259 101t-102 257q0 157 103 282t266 176l29 -35q-147 -108 -198 -272q-17 -54 -17 -106q0 -114 60 -210q60 -94 160 -94t150 64t50 141q0 134 -80 239t-189 115q53 60 162 139q111 -36 176 -138
q64 -101 64 -201z" />
    <glyph glyph-name="oacute" unicode="&#xf3;" horiz-adv-x="856" 
d="M441 859l-25 35l233 279l117 -131zM795 435q0 -188 -109 -323t-266 -135t-259 101t-102 257q0 157 103 282t266 176l29 -35q-147 -108 -198 -272q-17 -54 -17 -106q0 -114 60 -210q60 -94 160 -94t150 64t50 141q0 134 -80 239t-189 115q53 60 162 139q111 -36 176 -138
q64 -101 64 -201z" />
    <glyph glyph-name="ocircumflex" unicode="&#xf4;" horiz-adv-x="856" 
d="M194 859l-51 41l279 312l286 -271l-100 -106l-244 231zM795 435q0 -188 -109 -323t-266 -135t-259 101t-102 257q0 157 103 282t266 176l29 -35q-147 -108 -198 -272q-17 -54 -17 -106q0 -114 60 -210q60 -94 160 -94t150 64t50 141q0 134 -80 239t-189 115
q53 60 162 139q111 -36 176 -138q64 -101 64 -201z" />
    <glyph glyph-name="otilde" unicode="&#xf5;" horiz-adv-x="856" 
d="M281 853l-39 -20q-54 59 -44 123t39 99t75 37t72 -10t46 -28t36 -34t32 -28q34 -24 61 6q27 29 5 95l38 16q60 -80 27 -176q-27 -67 -80 -85t-92 8q-38 26 -59 47t-51 47t-52 14q-62 -35 -14 -111zM795 435q0 -188 -109 -323t-266 -135t-259 101t-102 257q0 157 103 282
t266 176l29 -35q-147 -108 -198 -272q-17 -54 -17 -106q0 -114 60 -210q60 -94 160 -94t150 64t50 141q0 134 -80 239t-189 115q53 60 162 139q111 -36 176 -138q64 -101 64 -201z" />
    <glyph glyph-name="odieresis" unicode="&#xf6;" horiz-adv-x="856" 
d="M574 1042q20 0 37 -8t29 -20t20 -30q7 -18 7 -37q0 -38 -27 -66t-56 -28q-29 -1 -46 7t-30 21t-20 30t-7 36t7 37t20 30t30 20q16 8 36 8zM278 1042q20 0 36 -8q17 -8 30 -20q12 -12 20 -30t8 -37q0 -38 -28 -66t-57 -28q-29 -1 -46 7t-30 21t-20 30t-7 36t7 37t20 30
t30 20t37 8zM795 435q0 -188 -109 -323t-266 -135t-259 101t-102 257q0 157 103 282t266 176l29 -35q-147 -108 -198 -272q-17 -54 -17 -106q0 -114 60 -210q60 -94 160 -94t150 64t50 141q0 134 -80 239t-189 115q53 60 162 139q111 -36 176 -138q64 -101 64 -201z" />
    <glyph glyph-name="divide" unicode="&#xf7;" horiz-adv-x="938" 
d="M475 604q38 0 66 -28t28 -57q1 -29 -7 -46t-21 -30t-30 -20t-36 -7q-39 0 -67 28t-27 56q-1 29 7 46t21 30q28 28 66 28zM475 1096q38 0 66 -28t28 -58q1 -30 -7 -46q-8 -17 -21 -30t-30 -20t-36 -7q-39 -1 -67 27t-27 57q-1 29 7 47t21 30q28 28 66 28zM842 836
l-62 -162h-684l64 162h682z" />
    <glyph glyph-name="oslash" unicode="&#xf8;" horiz-adv-x="856" 
d="M166 74q-107 98 -107 258t103 285t266 176l29 -35q-147 -108 -198 -272q-17 -54 -17 -123t28 -132l238 361q-54 37 -115 43q53 60 162 139q30 -9 57 -24l60 88l92 -64l-64 -98q95 -107 95 -268t-109 -296t-274 -135q-78 0 -144 29l-61 -94l-103 68zM554 94
q108 54 108 211q0 100 -70 203l-248 -385q53 -47 113 -47q61 0 97 18z" />
    <glyph glyph-name="ugrave" unicode="&#xf9;" horiz-adv-x="924" 
d="M123 1025l117 133l233 -279l-26 -37zM580 150v319q-109 -489 -308 -489q-106 0 -114 128q-2 40 -2 87v434q0 51 -40 53q-40 1 -79 -55l-27 30q58 122 180 129q148 0 148 -161v-414q0 -39 14 -51t36 4q52 36 106 166q67 240 86 401l184 64v-650q0 -24 11 -38
q11 -15 28 -15q40 -1 78 55l28 -30q-38 -81 -113 -113q-33 -14 -67 -16q-149 0 -149 162z" />
    <glyph glyph-name="uacute" unicode="&#xfa;" horiz-adv-x="924" 
d="M469 840l-25 35l233 279l117 -131zM580 150v319q-109 -489 -308 -489q-106 0 -114 128q-2 40 -2 87v434q0 51 -40 53q-40 1 -79 -55l-27 30q58 122 180 129q148 0 148 -161v-414q0 -39 14 -51t36 4q52 36 106 166q67 240 86 401l184 64v-650q0 -24 11 -38q11 -15 28 -15
q40 -1 78 55l28 -30q-38 -81 -113 -113q-33 -14 -67 -16q-149 0 -149 162z" />
    <glyph glyph-name="ucircumflex" unicode="&#xfb;" horiz-adv-x="924" 
d="M227 855l-51 41l279 312l286 -271l-100 -106l-244 231zM580 150v319q-109 -489 -308 -489q-106 0 -114 128q-2 40 -2 87v434q0 51 -40 53q-40 1 -79 -55l-27 30q58 122 180 129q148 0 148 -161v-414q0 -39 14 -51t36 4q52 36 106 166q67 240 86 401l184 64v-650
q0 -24 11 -38q11 -15 28 -15q40 -1 78 55l28 -30q-38 -81 -113 -113q-33 -14 -67 -16q-149 0 -149 162z" />
    <glyph glyph-name="udieresis" unicode="&#xfc;" horiz-adv-x="924" 
d="M608 1036q20 0 36 -8q18 -8 30 -20t19 -30t7 -37q0 -38 -27 -66t-56 -28q-29 -1 -46 7t-30 21t-20 30t-7 36t7 37t20 30t30 20t37 8zM310 1036q20 0 37 -8t30 -20t21 -30t7 -37q0 -38 -28 -66t-57 -28q-29 -1 -46 7t-30 21t-20 30t-7 36t7 37t20 30t30 20q16 8 36 8z
M580 150v319q-109 -489 -308 -489q-106 0 -114 128q-2 40 -2 87v434q0 51 -40 53q-40 1 -79 -55l-27 30q58 122 180 129q148 0 148 -161v-414q0 -39 14 -51t36 4q52 36 106 166q67 240 86 401l184 64v-650q0 -24 11 -38q11 -15 28 -15q40 -1 78 55l28 -30q-38 -81 -113 -113
q-33 -14 -67 -16q-149 0 -149 162z" />
    <glyph glyph-name="yacute" unicode="&#xfd;" horiz-adv-x="883" 
d="M474 840l-25 35l233 279l117 -131zM340 211q0 -55 30 -55t76 73q108 175 136 506l184 64v-717q0 -214 -142 -380q-88 -102 -200 -144q-56 -20 -123 -21q-67 0 -143 53l112 142q90 -72 156 -72q156 0 156 406v403q-84 -365 -224 -463q-38 -26 -84 -26q-80 0 -104 72
q-12 38 -12 143v432q0 17 -10 35t-31 18q-41 0 -78 -55l-27 30q42 87 124 119q28 10 57 10q147 0 147 -161v-412z" />
    <glyph glyph-name="thorn" unicode="&#xfe;" horiz-adv-x="868" 
d="M500 80q143 0 143 317q0 88 -51 180q-51 93 -143 93q-148 0 -148 -332v-768l-182 -64v1741q0 53 -42 53t-77 -55l-27 31q41 86 123 118q28 10 58 11q142 0 147 -158v-635q90 174 219 174t207 -106t78 -261t-95 -296t-261 -141q-77 0 -127 41l77 112q40 -55 101 -55z" />
    <glyph glyph-name="ydieresis" unicode="&#xff;" horiz-adv-x="883" 
d="M538 1044q20 0 36 -8q18 -8 30 -20t19 -30t7 -37q0 -38 -27 -66t-56 -28q-29 -1 -46 7t-30 21t-20 30t-7 36t7 37t20 30t30 20t37 8zM240 1044q20 0 37 -8t30 -20t21 -30t7 -37q0 -38 -28 -66t-57 -28q-29 -1 -46 7t-30 21t-20 30t-7 36t7 37t20 30t30 20q16 8 36 8z
M340 211q0 -55 30 -55t76 73q108 175 136 506l184 64v-717q0 -214 -142 -380q-88 -102 -200 -144q-56 -20 -123 -21q-67 0 -143 53l112 142q90 -72 156 -72q156 0 156 406v403q-84 -365 -224 -463q-38 -26 -84 -26q-80 0 -104 72q-12 38 -12 143v432q0 17 -10 35t-31 18
q-41 0 -78 -55l-27 30q42 87 124 119q28 10 57 10q147 0 147 -161v-412z" />
    <glyph glyph-name="Amacron" unicode="&#x100;" horiz-adv-x="1391" 
d="M483 1526l72 157h413l-69 -157h-416zM1245 98q65 0 117 68l33 -29q-51 -99 -149 -137q-32 -12 -77 -12q-94 0 -154 74q-59 74 -59 182v387q-40 -184 -71 -270q-65 -181 -149 -271q-104 -113 -247 -113q-185 0 -295 132t-110 353t139 454t366 379q226 147 464 143h12v-45
q-200 -10 -377 -147t-281 -340t-104 -402q0 -146 53 -258q66 -140 201 -140q203 0 317 446q60 234 78 522q4 74 4 124l207 76v-1063q-1 -75 43 -103q16 -10 39 -10z" />
    <glyph glyph-name="amacron" unicode="&#x101;" horiz-adv-x="895" 
d="M205 837l72 157h413l-69 -157h-416zM745 147q0 -53 42 -53t77 56l27 -31q-41 -87 -123 -119q-28 -10 -57 -10q-148 0 -148 162v18q-101 -190 -229 -190q-129 0 -200 89t-71 224q0 185 121 333t301 148q131 0 211 -70q28 -25 47 -61l-149 -63q-61 96 -150 96t-152 -104
t-63 -203q0 -167 84 -246q31 -29 73 -29t69 16t46 44q62 86 62 266v69l182 64v-406z" />
    <glyph glyph-name="Abreve" unicode="&#x102;" horiz-adv-x="1391" 
d="M596 1619q34 -60 85 -60q51 -1 77 27t27 71q0 81 -65 133l131 84q57 -63 57 -157t-66 -157t-159 -63t-147 51t-54 129q0 79 48 153q14 22 32 38l29 -22q-29 -40 -29 -103q0 -64 34 -124zM1245 98q65 0 117 68l33 -29q-51 -99 -149 -137q-32 -12 -77 -12q-94 0 -154 74
q-59 74 -59 182v387q-40 -184 -71 -270q-65 -181 -149 -271q-104 -113 -247 -113q-185 0 -295 132t-110 353t139 454t366 379q226 147 464 143h12v-45q-200 -10 -377 -147t-281 -340t-104 -402q0 -146 53 -258q66 -140 201 -140q203 0 317 446q60 234 78 522q4 74 4 124
l207 76v-1063q-1 -75 43 -103q16 -10 39 -10z" />
    <glyph glyph-name="abreve" unicode="&#x103;" horiz-adv-x="895" 
d="M348 957q34 -60 85 -60q51 -1 77 27t27 71q0 81 -65 133l131 84q57 -63 57 -157t-66 -157t-159 -63t-147 51t-54 129q0 79 48 153q14 22 32 38l29 -22q-29 -40 -29 -103q0 -64 34 -124zM745 147q0 -53 42 -53t77 56l27 -31q-41 -87 -123 -119q-28 -10 -57 -10
q-148 0 -148 162v18q-101 -190 -229 -190q-129 0 -200 89t-71 224q0 185 121 333t301 148q131 0 211 -70q28 -25 47 -61l-149 -63q-61 96 -150 96t-152 -104t-63 -203q0 -167 84 -246q31 -29 73 -29t69 16t46 44q62 86 62 266v69l182 64v-406z" />
    <glyph glyph-name="Aogonek" unicode="&#x104;" horiz-adv-x="1391" 
d="M1245 98q65 0 117 68l33 -29q-51 -99 -149 -137q-32 -12 -66 -12h-9q-59 -80 -20 -133q29 -29 59 -21t51 35l23 -19q-47 -73 -108 -92q-53 -10 -98 30q-45 39 -19 120q13 41 64 87q-79 19 -123 88t-44 161v387q-40 -184 -71 -270q-65 -181 -149 -271q-104 -113 -247 -113
q-185 0 -295 132t-110 353t139 454t366 379q226 147 464 143h12v-45q-200 -10 -377 -147t-281 -340t-104 -402q0 -146 53 -258q66 -140 201 -140q203 0 317 446q60 234 78 522q4 74 4 124l207 76v-1063q-1 -75 43 -103q16 -10 39 -10z" />
    <glyph glyph-name="aogonek" unicode="&#x105;" horiz-adv-x="895" 
d="M563 152v18q-101 -190 -229 -190q-129 0 -200 89t-71 224q0 185 121 333t301 148q131 0 211 -70q28 -25 47 -61l-149 -63q-61 96 -150 96t-152 -104t-63 -203q0 -167 84 -246q31 -29 73 -29t69 16t46 44q62 86 62 266v69l182 64v-406q0 -53 42 -53t77 56l27 -31
q-21 -48 -65 -85t-99 -43q-41 -71 -8 -115q29 -29 59 -21t51 35l23 -19q-47 -73 -108 -92q-53 -10 -98 30q-45 39 -19 120q11 30 42 65q-106 20 -106 158z" />
    <glyph glyph-name="Cacute" unicode="&#x106;" horiz-adv-x="1235" 
d="M678 1498l-25 35l233 279l117 -131zM1061 901q-110 -139 -254 -182l-21 35q132 66 176 216q14 46 13 98q0 112 -65 189q-65 76 -190 76q-125 1 -229 -103q-136 -135 -178 -375q-12 -69 -12 -131t13 -127q13 -66 38 -130q54 -138 154 -227q100 -88 231 -88q179 0 330 165
l33 -32q-93 -122 -240 -210q-148 -87 -290 -87t-253 90t-173 228q-62 139 -62 256q0 118 32 220t90 198q120 202 308 337t375 135q124 0 204 -70t80 -206t-110 -275z" />
    <glyph glyph-name="cacute" unicode="&#x107;" horiz-adv-x="805" 
d="M391 834l-25 35l233 279l117 -131zM590 588q-40 96 -180 96q-36 0 -74 -22t-64 -56q-54 -71 -55 -161q0 -172 77 -265q77 -94 198 -94q84 0 204 114q30 29 54 52l30 -35q-184 -237 -381 -237q-149 0 -244 101q-94 101 -94 271q-1 170 129 300t303 130t240 -116z" />
    <glyph glyph-name="Ccircumflex" unicode="&#x108;" horiz-adv-x="1235" 
d="M386 1521l-51 41l279 312l286 -271l-100 -106l-244 231zM1061 901q-110 -139 -254 -182l-21 35q132 66 176 216q14 46 13 98q0 112 -65 189q-65 76 -190 76q-125 1 -229 -103q-136 -135 -178 -375q-12 -69 -12 -131t13 -127q13 -66 38 -130q54 -138 154 -227
q100 -88 231 -88q179 0 330 165l33 -32q-93 -122 -240 -210q-148 -87 -290 -87t-253 90t-173 228q-62 139 -62 256q0 118 32 220t90 198q120 202 308 337t375 135q124 0 204 -70t80 -206t-110 -275z" />
    <glyph glyph-name="ccircumflex" unicode="&#x109;" horiz-adv-x="805" 
d="M171 858l-51 41l279 312l286 -271l-100 -106l-244 231zM590 588q-40 96 -180 96q-36 0 -74 -22t-64 -56q-54 -71 -55 -161q0 -172 77 -265q77 -94 198 -94q84 0 204 114q30 29 54 52l30 -35q-184 -237 -381 -237q-149 0 -244 101q-94 101 -94 271q-1 170 129 300t303 130
t240 -116z" />
    <glyph glyph-name="Cdotaccent" unicode="&#x10a;" horiz-adv-x="1235" 
d="M616 1700q20 0 37 -8t30 -20t21 -30t7 -37q0 -38 -28 -66t-57 -28q-29 -1 -46 7t-30 21t-20 30t-7 36t7 37t20 30t30 20q16 8 36 8zM1061 901q-110 -139 -254 -182l-21 35q132 66 176 216q14 46 13 98q0 112 -65 189q-65 76 -190 76q-125 1 -229 -103
q-136 -135 -178 -375q-12 -69 -12 -131t13 -127q13 -66 38 -130q54 -138 154 -227q100 -88 231 -88q179 0 330 165l33 -32q-93 -122 -240 -210q-148 -87 -290 -87t-253 90t-173 228q-62 139 -62 256q0 118 32 220t90 198q120 202 308 337t375 135q124 0 204 -70t80 -206
t-110 -275z" />
    <glyph glyph-name="cdotaccent" unicode="&#x10b;" horiz-adv-x="805" 
d="M402 1023q20 1 36 -7q17 -8 30 -21q12 -13 20 -31t8 -36q0 -38 -28 -66t-57 -28t-46 8t-30 20q-13 13 -20 30t-7 36q0 18 7 36t20 31t30 21t37 7zM590 588q-40 96 -180 96q-36 0 -74 -22t-64 -56q-54 -71 -55 -161q0 -172 77 -265q77 -94 198 -94q84 0 204 114
q30 29 54 52l30 -35q-184 -237 -381 -237q-149 0 -244 101q-94 101 -94 271q-1 170 129 300t303 130t240 -116z" />
    <glyph glyph-name="Ccaron" unicode="&#x10c;" horiz-adv-x="1235" 
d="M900 1805l-276 -311l-289 270l102 107l244 -232l170 207zM1061 901q-110 -139 -254 -182l-21 35q132 66 176 216q14 46 13 98q0 112 -65 189q-65 76 -190 76q-125 1 -229 -103q-136 -135 -178 -375q-12 -69 -12 -131t13 -127q13 -66 38 -130q54 -138 154 -227
q100 -88 231 -88q179 0 330 165l33 -32q-93 -122 -240 -210q-148 -87 -290 -87t-253 90t-173 228q-62 139 -62 256q0 118 32 220t90 198q120 202 308 337t375 135q124 0 204 -70t80 -206t-110 -275z" />
    <glyph glyph-name="ccaron" unicode="&#x10d;" horiz-adv-x="805" 
d="M685 1146l-276 -311l-289 270l102 107l244 -232l170 207zM590 588q-40 96 -180 96q-36 0 -74 -22t-64 -56q-54 -71 -55 -161q0 -172 77 -265q77 -94 198 -94q84 0 204 114q30 29 54 52l30 -35q-184 -237 -381 -237q-149 0 -244 101q-94 101 -94 271q-1 170 129 300
t303 130t240 -116z" />
    <glyph glyph-name="Dcaron" unicode="&#x10e;" horiz-adv-x="1358" 
d="M961 1808l-276 -311l-289 270l102 107l244 -232l170 207zM688 124q-252 -135 -493 -149v1121l206 73v-1089q285 83 463 305t178 514q0 183 -92 305q-92 121 -270 121q-226 0 -446 -137q-68 -42 -125 -92l-31 34q122 132 321 225q198 93 377 93q244 0 372 -139t128 -379
t-168 -456q-168 -215 -420 -350z" />
    <glyph glyph-name="dcaron" unicode="&#x10f;" horiz-adv-x="1052" 
d="M907 1276q-61 18 -61 82q0 31 23 55t57 24t57 -24q24 -25 24 -55q0 -103 -113 -169l-25 22q32 29 38 65zM454 686q-107 0 -168 -112q-50 -92 -50 -207q0 -167 82 -245q30 -28 72 -28t70 16t46 44q61 85 61 266v213q-53 53 -113 53zM752 147q0 -53 40 -53t76 56l29 -31
q-39 -87 -123 -119q-28 -10 -57 -10q-150 0 -150 162v18q-95 -190 -228 -190t-204 94q-72 94 -72 231q0 182 108 331q108 148 284 148q58 0 112 -28v614l185 64v-1287z" />
    <glyph glyph-name="Dcroat" unicode="&#x110;" horiz-adv-x="1364" 
d="M408 653v-573q286 84 463 305q178 221 178 514q0 183 -91 304q-91 122 -272 122q-226 0 -446 -137q-68 -42 -125 -92l-31 34q121 132 321 225q199 93 377 93q244 0 372 -139t128 -380q0 -240 -167 -455t-421 -350q-253 -135 -493 -149v678h-219l43 101h176v342l207 73
v-415h299l-41 -101h-258z" />
    <glyph glyph-name="dcroat" unicode="&#x111;" horiz-adv-x="911" 
d="M454 686q-107 0 -168 -112q-50 -92 -50 -207q0 -167 82 -245q30 -28 72 -28t70 16t46 44q61 85 61 266v213q-53 53 -113 53zM752 147q0 -53 40 -53t76 56l29 -31q-39 -87 -123 -119q-28 -10 -57 -10q-150 0 -150 162v18q-95 -190 -228 -190t-204 94q-72 94 -72 231
q0 182 108 331q108 148 284 148q58 0 112 -28v160h-179l43 101h136v353l185 64v-417h127l-41 -101h-86v-769z" />
    <glyph glyph-name="Emacron" unicode="&#x112;" horiz-adv-x="1092" 
d="M405 1509l72 157h413l-69 -157h-416zM627 1356q-96 0 -172 -64t-76 -161t78 -166q78 -70 180 -70q56 0 104 18l15 -41q-306 -98 -410 -296q-40 -75 -39 -150q0 -132 64 -206q64 -73 178 -73t268 87q153 87 211 190l35 -31q-93 -171 -253 -288t-329 -117q-170 0 -290 99
q-119 99 -119 245q0 147 102 260t248 182q-87 15 -140 90t-53 152q0 78 22 132q21 54 59 100q74 92 192 147q117 55 214 55q179 0 285 -127l-145 -106q-101 139 -229 139z" />
    <glyph glyph-name="emacron" unicode="&#x113;" horiz-adv-x="813" 
d="M174 844l72 157h413l-69 -157h-416zM507 657q-30 33 -76 33q-84 0 -146 -103t-62 -187q0 -83 45 -162q90 50 180 152q89 103 89 168q0 66 -30 99zM778 195q-167 -215 -389 -215q-139 0 -234 99q-96 99 -96 263q1 164 139 306q85 86 201 122q57 18 108 18q99 0 159 -44
q59 -44 59 -139t-153 -229t-273 -186q84 -104 189 -104q106 0 260 141z" />
    <glyph glyph-name="Ebreve" unicode="&#x114;" horiz-adv-x="1092" 
d="M507 1622q34 -60 85 -60q52 0 78 28t26 70q0 81 -65 133l131 84q57 -63 57 -157t-66 -157t-159 -63t-147 51t-54 129q-1 78 47 152q14 22 33 39l29 -22q-29 -40 -29 -103q0 -64 34 -124zM627 1356q-96 0 -172 -64t-76 -161t78 -166q78 -70 180 -70q56 0 104 18l15 -41
q-306 -98 -410 -296q-40 -75 -39 -150q0 -132 64 -206q64 -73 178 -73t268 87q153 87 211 190l35 -31q-93 -171 -253 -288t-329 -117q-170 0 -290 99q-119 99 -119 245q0 147 102 260t248 182q-87 15 -140 90t-53 152q0 78 22 132q21 54 59 100q74 92 192 147q117 55 214 55
q179 0 285 -127l-145 -106q-101 139 -229 139z" />
    <glyph glyph-name="ebreve" unicode="&#x115;" horiz-adv-x="813" 
d="M327 971q34 -60 85 -60q52 -1 78 27t26 71q0 81 -65 133l131 84q57 -63 57 -157t-66 -157t-159 -63t-147 51t-54 129q-1 79 47 153q14 22 33 38l29 -22q-29 -40 -29 -103q0 -64 34 -124zM507 657q-30 33 -76 33q-84 0 -146 -103t-62 -187q0 -83 45 -162q90 50 180 152
q89 103 89 168q0 66 -30 99zM778 195q-167 -215 -389 -215q-139 0 -234 99q-96 99 -96 263q1 164 139 306q85 86 201 122q57 18 108 18q99 0 159 -44q59 -44 59 -139t-153 -229t-273 -186q84 -104 189 -104q106 0 260 141z" />
    <glyph glyph-name="Edotaccent" unicode="&#x116;" horiz-adv-x="1092" 
d="M616 1704q20 0 36 -8q17 -8 30 -20q12 -12 20 -30t8 -37q0 -38 -28 -66t-57 -28q-29 -1 -46 7t-30 21t-20 30t-7 36t7 37t20 30t30 20t37 8zM627 1356q-96 0 -172 -64t-76 -161t78 -166q78 -70 180 -70q56 0 104 18l15 -41q-306 -98 -410 -296q-40 -75 -39 -150
q0 -132 64 -206q64 -73 178 -73t268 87q153 87 211 190l35 -31q-93 -171 -253 -288t-329 -117q-170 0 -290 99q-119 99 -119 245q0 147 102 260t248 182q-87 15 -140 90t-53 152q0 78 22 132q21 54 59 100q74 92 192 147q117 55 214 55q179 0 285 -127l-145 -106
q-101 139 -229 139z" />
    <glyph glyph-name="edotaccent" unicode="&#x117;" horiz-adv-x="813" 
d="M426 1032q20 0 36 -8q17 -8 30 -20q12 -12 20 -30t8 -37q0 -38 -28 -66t-57 -28q-29 -1 -46 7t-30 21t-20 30t-7 36t7 37t20 30t30 20t37 8zM507 657q-30 33 -76 33q-84 0 -146 -103t-62 -187q0 -83 45 -162q90 50 180 152q89 103 89 168q0 66 -30 99zM778 195
q-167 -215 -389 -215q-139 0 -234 99q-96 99 -96 263q1 164 139 306q85 86 201 122q57 18 108 18q99 0 159 -44q59 -44 59 -139t-153 -229t-273 -186q84 -104 189 -104q106 0 260 141z" />
    <glyph glyph-name="Eogonek" unicode="&#x118;" horiz-adv-x="1092" 
d="M627 1356q-96 0 -172 -64t-76 -161t78 -166q78 -70 180 -70q56 0 104 18l15 -41q-306 -98 -410 -296q-40 -75 -39 -150q0 -132 64 -206q64 -73 178 -73t268 87q153 87 211 190l35 -31q-139 -255 -377 -359q-81 -36 -170 -43q-84 -97 -37 -155q29 -29 59 -21t51 35l23 -19
q-47 -73 -108 -92q-53 -10 -98 30q-45 39 -19 120q18 49 78 99q-156 0 -275 99q-118 99 -118 246t102 259q102 113 248 182q-87 15 -140 90t-53 152q0 78 22 132q21 54 59 100q74 92 192 147q117 55 214 55q179 0 285 -127l-145 -106q-101 139 -229 139z" />
    <glyph glyph-name="eogonek" unicode="&#x119;" horiz-adv-x="813" 
d="M507 657q-30 33 -76 33q-84 0 -146 -103t-62 -187q0 -83 45 -162q90 50 180 152q89 103 89 168q0 66 -30 99zM59 326q1 180 139 322q85 86 201 122q57 18 108 18q99 0 159 -44q59 -44 59 -139t-153 -229t-273 -186q84 -104 189 -104q106 0 260 141l30 -32
q-152 -195 -346 -213q-74 -91 -30 -146q29 -29 59 -21t51 35l23 -19q-47 -73 -108 -92q-53 -10 -98 30q-45 39 -19 120q13 41 69 92q-140 6 -230 104t-90 241z" />
    <glyph glyph-name="Ecaron" unicode="&#x11a;" horiz-adv-x="1092" 
d="M898 1815l-276 -311l-289 270l102 107l244 -232l170 207zM627 1356q-96 0 -172 -64t-76 -161t78 -166q78 -70 180 -70q56 0 104 18l15 -41q-306 -98 -410 -296q-40 -75 -39 -150q0 -132 64 -206q64 -73 178 -73t268 87q153 87 211 190l35 -31q-93 -171 -253 -288
t-329 -117q-170 0 -290 99q-119 99 -119 245q0 147 102 260t248 182q-87 15 -140 90t-53 152q0 78 22 132q21 54 59 100q74 92 192 147q117 55 214 55q179 0 285 -127l-145 -106q-101 139 -229 139z" />
    <glyph glyph-name="ecaron" unicode="&#x11b;" horiz-adv-x="813" 
d="M689 1150l-276 -311l-289 270l102 107l244 -232l170 207zM507 657q-30 33 -76 33q-84 0 -146 -103t-62 -187q0 -83 45 -162q90 50 180 152q89 103 89 168q0 66 -30 99zM778 195q-167 -215 -389 -215q-139 0 -234 99q-96 99 -96 263q1 164 139 306q85 86 201 122
q57 18 108 18q99 0 159 -44q59 -44 59 -139t-153 -229t-273 -186q84 -104 189 -104q106 0 260 141z" />
    <glyph glyph-name="Gcircumflex" unicode="&#x11c;" horiz-adv-x="1329" 
d="M433 1528l-51 41l279 312l286 -271l-100 -106l-244 231zM1206 1254q0 -100 -106 -198q-169 -154 -400 -167l-20 35q96 25 175 98q79 74 79 154t-45 118q-45 39 -122 39t-141 -31q-64 -32 -113 -84q-91 -97 -135 -250t-44 -323t62 -304q79 -171 251 -171q101 0 181 68
t125 169q46 102 46 195l207 74v-819l-207 -74v623q-39 -166 -170 -294t-270 -128q-209 0 -342 158t-133 378q0 219 116 436q116 216 309 353q194 137 417 137q178 0 252 -100q28 -36 28 -92z" />
    <glyph glyph-name="gcircumflex" unicode="&#x11d;" horiz-adv-x="850" 
d="M193 858l-51 41l279 312l286 -271l-100 -106l-244 231zM592 580q-69 110 -155 110q-85 0 -148 -110q-62 -110 -62 -211q0 -167 84 -246q31 -29 73 -29t69 16t46 44q62 86 62 266v69l182 64v-479q0 -182 -132 -352q-85 -108 -201 -154q-58 -23 -110 -23q-98 0 -153 54
l132 125q46 -62 105 -62q58 0 90 20t51 52t27 74t10 85q2 44 0 86t-1 76v115q-101 -190 -229 -190q-129 0 -200 89t-71 224q0 186 121 340q121 155 301 155q125 0 211 -82q28 -27 47 -63z" />
    <glyph glyph-name="Gbreve" unicode="&#x11e;" horiz-adv-x="1329" 
d="M615 1625q34 -60 85 -60q52 -1 78 27t26 71q0 81 -65 133l131 84q57 -63 57 -157t-66 -157t-159 -63t-147 51t-54 129q-1 79 47 153q14 22 33 38l29 -22q-29 -40 -29 -103q0 -64 34 -124zM1206 1254q0 -100 -106 -198q-169 -154 -400 -167l-20 35q96 25 175 98
q79 74 79 154t-45 118q-45 39 -122 39t-141 -31q-64 -32 -113 -84q-91 -97 -135 -250t-44 -323t62 -304q79 -171 251 -171q101 0 181 68t125 169q46 102 46 195l207 74v-819l-207 -74v623q-39 -166 -170 -294t-270 -128q-209 0 -342 158t-133 378q0 219 116 436
q116 216 309 353q194 137 417 137q178 0 252 -100q28 -36 28 -92z" />
    <glyph glyph-name="gbreve" unicode="&#x11f;" horiz-adv-x="850" 
d="M326 955q34 -60 85 -60q51 -1 77 27t27 71q0 81 -65 133l131 84q57 -63 57 -157t-66 -157t-159 -63t-147 51t-54 129q0 79 48 153q14 22 32 38l29 -22q-29 -40 -29 -103q0 -64 34 -124zM592 580q-69 110 -155 110q-85 0 -148 -110q-62 -110 -62 -211q0 -167 84 -246
q31 -29 73 -29t69 16t46 44q62 86 62 266v69l182 64v-479q0 -182 -132 -352q-85 -108 -201 -154q-58 -23 -110 -23q-98 0 -153 54l132 125q46 -62 105 -62q58 0 90 20t51 52t27 74t10 85q2 44 0 86t-1 76v115q-101 -190 -229 -190q-129 0 -200 89t-71 224q0 186 121 340
q121 155 301 155q125 0 211 -82q28 -27 47 -63z" />
    <glyph glyph-name="Gdotaccent" unicode="&#x120;" horiz-adv-x="1329" 
d="M664 1685q20 1 36 -7q17 -8 30 -21q12 -13 20 -31t8 -36q0 -38 -28 -66t-57 -28t-46 8t-30 20q-13 13 -20 30t-7 36q0 18 7 36t20 31t30 21t37 7zM1206 1254q0 -100 -106 -198q-169 -154 -400 -167l-20 35q96 25 175 98q79 74 79 154t-45 118q-45 39 -122 39t-141 -31
q-64 -32 -113 -84q-91 -97 -135 -250t-44 -323t62 -304q79 -171 251 -171q101 0 181 68t125 169q46 102 46 195l207 74v-819l-207 -74v623q-39 -166 -170 -294t-270 -128q-209 0 -342 158t-133 378q0 219 116 436q116 216 309 353q194 137 417 137q178 0 252 -100
q28 -36 28 -92z" />
    <glyph glyph-name="gdotaccent" unicode="&#x121;" horiz-adv-x="850" 
d="M424 1030q20 0 37 -8t30 -20t21 -30t7 -37q0 -38 -28 -66t-57 -28q-29 -1 -46 7t-30 21t-20 30t-7 36t7 37t20 30t30 20q16 8 36 8zM592 580q-69 110 -155 110q-85 0 -148 -110q-62 -110 -62 -211q0 -167 84 -246q31 -29 73 -29t69 16t46 44q62 86 62 266v69l182 64v-479
q0 -182 -132 -352q-85 -108 -201 -154q-58 -23 -110 -23q-98 0 -153 54l132 125q46 -62 105 -62q58 0 90 20t51 52t27 74t10 85q2 44 0 86t-1 76v115q-101 -190 -229 -190q-129 0 -200 89t-71 224q0 186 121 340q121 155 301 155q125 0 211 -82q28 -27 47 -63z" />
    <glyph glyph-name="Gcommaaccent" unicode="&#x122;" horiz-adv-x="1329" 
d="M745 -164q0 -102 -113 -169l-26 21q30 28 39 66q-27 8 -45 30t-17 52q-1 30 23 54t58 25q34 -1 57 -25q24 -24 24 -54zM1206 1254q0 -100 -106 -198q-169 -154 -400 -167l-20 35q96 25 175 98q79 74 79 154t-45 118q-45 39 -122 39t-141 -31q-64 -32 -113 -84
q-91 -97 -135 -250t-44 -323t62 -304q79 -171 251 -171q101 0 181 68t125 169q46 102 46 195l207 74v-819l-207 -74v623q-39 -166 -170 -294t-270 -128q-209 0 -342 158t-133 378q0 219 116 436q116 216 309 353q194 137 417 137q178 0 252 -100q28 -36 28 -92z" />
    <glyph glyph-name="gcommaaccent" unicode="&#x123;" horiz-adv-x="850" 
d="M505 910q0 -30 -24 -54q-23 -24 -57 -23q-34 -1 -57 23t-23 54q0 102 113 171l25 -23q-32 -32 -38 -66q27 -7 44 -29q17 -23 17 -53zM592 580q-69 110 -155 110q-85 0 -148 -110q-62 -110 -62 -211q0 -167 84 -246q31 -29 73 -29t69 16t46 44q62 86 62 266v69l182 64
v-479q0 -182 -132 -352q-85 -108 -201 -154q-58 -23 -110 -23q-98 0 -153 54l132 125q46 -62 105 -62q58 0 90 20t51 52t27 74t10 85q2 44 0 86t-1 76v115q-101 -190 -229 -190q-129 0 -200 89t-71 224q0 186 121 340q121 155 301 155q125 0 211 -82q28 -27 47 -63z" />
    <glyph glyph-name="Hcircumflex" unicode="&#x124;" horiz-adv-x="1325" 
d="M491 1535l-51 41l279 312l286 -271l-100 -106l-244 231zM930 537h-520v-494l-207 -74v568h-160l74 145h86v719l207 74v-793h520v719l207 74v-1432l-207 -74v568z" />
    <glyph glyph-name="hcircumflex" unicode="&#x125;" horiz-adv-x="883" 
d="M210 1474l-51 41l279 312l286 -271l-100 -106l-244 231zM725 145q0 -53 40 -53t79 55l26 -30q-36 -87 -122 -119q-28 -10 -58 -10q-149 0 -149 162v407q0 55 -31 55q-89 0 -156 -261q-53 -208 -53 -328l-184 -64v1411l184 64v-1082q23 139 86 254q99 182 221 182
q80 0 104 -72q12 -38 13 -143v-428z" />
    <glyph glyph-name="Hbar" unicode="&#x126;" horiz-adv-x="1325" 
d="M930 682v152h-520v-152h520zM1137 834v-791l-207 -74v568h-520v-494l-207 -74v568h-160l74 145h86v152h-145l50 103h95v464l207 74v-538h520v464l207 74v-538h104l-50 -103h-54z" />
    <glyph glyph-name="hbar" unicode="&#x127;" horiz-adv-x="883" 
d="M725 145q0 -53 40 -53t79 55l26 -30q-36 -87 -122 -119q-28 -10 -58 -10q-149 0 -149 162v407q0 55 -31 55q-89 0 -156 -261q-53 -208 -53 -328l-184 -64v957h-129l43 101h86v353l184 64v-417h178l-41 -101h-137v-564q23 139 86 254q99 182 221 182q80 0 104 -72
q12 -38 13 -143v-428z" />
    <glyph glyph-name="Itilde" unicode="&#x128;" horiz-adv-x="584" 
d="M146 1533l-39 -20q-54 59 -44 123t39 99q30 35 76 37t71 -10t45 -28t38 -34q16 -18 31 -28q34 -24 61 6q27 29 5 95l38 16q60 -80 27 -176q-27 -67 -80 -85t-92 8q-38 26 -59 47t-51 47t-52 14q-62 -35 -14 -111zM395 43l-207 -74v1432l207 74v-1432z" />
    <glyph glyph-name="itilde" unicode="&#x129;" horiz-adv-x="465" 
d="M87 860l-39 -20q-54 59 -44 123t39 99t75 37q46 3 72 -9t46 -28t36 -34t32 -28q34 -24 61 5t5 95l38 16q60 -80 27 -176q-27 -67 -80 -85t-92 8q-38 26 -59 47t-51 47t-52 14q-62 -35 -14 -111zM121 150v561l184 63v-629q0 -51 40 -53q40 -1 77 55l27 -30
q-57 -122 -179 -129q-149 0 -149 162z" />
    <glyph glyph-name="Imacron" unicode="&#x12a;" horiz-adv-x="584" 
d="M49 1525l72 157h413l-69 -157h-416zM395 43l-207 -74v1432l207 74v-1432z" />
    <glyph glyph-name="imacron" unicode="&#x12b;" horiz-adv-x="465" 
d="M-9 839l72 157h413l-69 -157h-416zM121 150v561l184 63v-629q0 -51 40 -53q40 -1 77 55l27 -30q-57 -122 -179 -129q-149 0 -149 162z" />
    <glyph glyph-name="Ibreve" unicode="&#x12c;" horiz-adv-x="584" 
d="M193 1653q34 -60 85 -60q52 -1 78 27t26 71q0 81 -65 133l131 84q57 -63 57 -157t-66 -157t-159 -63t-147 51t-54 129q-1 79 47 153q14 22 33 38l29 -22q-29 -40 -29 -103q0 -64 34 -124zM395 43l-207 -74v1432l207 74v-1432z" />
    <glyph glyph-name="ibreve" unicode="&#x12d;" horiz-adv-x="465" 
d="M133 959q34 -60 85 -60q52 -1 78 27t26 71q0 81 -65 133l131 84q57 -63 57 -157t-66 -157t-159 -63t-147 51t-54 129q-1 79 47 153q14 22 33 38l29 -22q-29 -40 -29 -103q0 -64 34 -124zM121 150v561l184 63v-629q0 -51 40 -53q40 -1 77 55l27 -30q-57 -122 -179 -129
q-149 0 -149 162z" />
    <glyph glyph-name="Iogonek" unicode="&#x12e;" horiz-adv-x="584" 
d="M395 43l-70 -25q-91 -101 -42 -160q29 -29 59 -21t51 35l23 -19q-47 -73 -108 -92q-53 -10 -98 30q-45 39 -19 120q14 38 55 79l-58 -21v1432l207 74v-1432z" />
    <glyph glyph-name="iogonek" unicode="&#x12f;" horiz-adv-x="465" 
d="M121 150v561l184 63v-629q0 -51 40 -53q40 -1 77 55l27 -30q-57 -122 -179 -129q-15 0 -28 2q-54 -62 -52 -113q1 -25 16 -41q16 -16 32 -20q43 -10 77 34l23 -19q-47 -73 -108 -92q-53 -10 -98 30q-45 39 -19 120q27 64 92 110q-84 33 -84 151zM311 1305l-53 -365
l-98 -31l-60 324z" />
    <glyph glyph-name="Idotaccent" unicode="&#x130;" horiz-adv-x="584" 
d="M292 2353q20 1 36 -7q17 -8 30 -21q12 -13 20 -31t8 -36q0 -38 -28 -66t-57 -28t-46 8t-30 20q-13 13 -20 30t-7 36q0 18 7 36t20 31t30 21t37 7zM395 43l-207 -74v1432l207 74v-1432z" />
    <glyph glyph-name="dotlessi" unicode="&#x131;" horiz-adv-x="465" 
d="M121 150v561l184 63v-629q0 -51 40 -53q40 -1 77 55l27 -30q-57 -122 -179 -129q-149 0 -149 162z" />
    <glyph glyph-name="IJ" unicode="&#x132;" horiz-adv-x="1428" 
d="M971 918q0 142 205 317h-221q-102 0 -172 -64q-23 -21 -47 -49l-29 33q133 181 297 253q60 26 123 26h289q-42 -52 -82 -100t-69 -86q-51 -68 -69 -110q-18 -41 -18 -104v-801q0 -199 -143 -350t-342 -151q-158 0 -289 110l168 150q32 -65 83 -108q94 -77 152 -77
q164 0 164 246v865zM395 43l-207 -74v1432l207 74v-1432z" />
    <glyph glyph-name="ij" unicode="&#x133;" horiz-adv-x="895" 
d="M776 82q0 -257 -213 -432q-135 -104 -263 -104q-76 0 -134 44l113 142q86 -69 177 -56q40 6 72 27q66 51 64 261v102v645l184 63v-692zM784 1305l-55 -365l-96 -31l-59 324zM121 150v561l184 63v-629q0 -51 40 -53q40 -1 77 55l27 -30q-57 -122 -179 -129
q-149 0 -149 162zM311 1305l-53 -365l-98 -31l-60 324z" />
    <glyph glyph-name="Jcircumflex" unicode="&#x134;" horiz-adv-x="854" 
d="M275 1521l-51 41l279 312l286 -271l-100 -106l-244 231zM397 918q0 142 205 317h-221q-102 0 -172 -64q-23 -21 -47 -49l-29 33q133 181 297 253q60 26 123 26h289q-42 -52 -82 -100t-69 -86q-51 -68 -69 -110q-18 -41 -18 -104v-801q0 -199 -143 -350t-342 -151
q-158 0 -289 110l168 150q32 -65 83 -108q94 -77 152 -77q164 0 164 246v865z" />
    <glyph glyph-name="jcircumflex" unicode="&#x135;" horiz-adv-x="430" 
d="M-15 858l-51 41l279 312l286 -271l-100 -106l-244 231zM311 82q0 -257 -213 -432q-134 -104 -262 -104q-76 0 -135 44l113 142q86 -69 177 -56q40 6 72 27q67 51 65 261q0 54 -1 102v645l184 63v-692z" />
    <glyph glyph-name="Kcommaaccent" unicode="&#x136;" horiz-adv-x="1257" 
d="M709 -164q0 -102 -113 -169l-26 21q30 28 39 66q-27 8 -45 30t-17 52q-1 30 23 54t58 25q34 -1 57 -25q24 -24 24 -54zM914 -18q-103 0 -197 92q-95 92 -235 326q-44 74 -87 139v-496l-207 -74v1432l207 74v-873l666 834l117 -11l-623 -739q75 -102 150 -213t121 -171
q75 -96 104 -120q76 -63 147 -26q71 38 135 112l33 -28q-89 -159 -225 -232q-50 -26 -106 -26z" />
    <glyph glyph-name="kcommaaccent" unicode="&#x137;" horiz-adv-x="868" 
d="M515 -164q0 -102 -113 -169l-26 21q30 28 39 66q-27 8 -45 30t-17 52q-1 30 23 54t58 25q34 -1 57 -25q24 -24 24 -54zM578 582q0 17 -15 32t-33 15t-38 -20t-40 -51q-50 -82 -108 -255q51 36 107 97q57 60 79 88t34 52q14 24 14 42zM639 -16q-35 0 -77 29t-82 69t-76 84
q-36 42 -64 70l-16 -9q-15 -54 -23 -204l-184 -64v1411l184 64v-1110q138 464 340 464q88 0 118 -81q9 -25 9 -67q0 -87 -86 -177q-86 -91 -197 -156q19 -16 54 -57q68 -81 99 -109q100 -91 177 4l31 -34q-50 -86 -142 -117q-30 -10 -65 -10z" />
    <glyph glyph-name="kgreenlandic" unicode="&#x138;" horiz-adv-x="868" 
d="M578 582q0 17 -15 32t-33 15t-38 -20t-40 -51q-50 -82 -108 -255q51 36 107 97q57 60 79 88t34 52q14 24 14 42zM639 -16q-35 0 -77 29t-82 69t-76 84q-36 42 -64 70l-16 -9q-15 -54 -23 -204l-184 -64v785l184 64v-484q138 464 340 464q88 0 118 -81q9 -25 9 -67
q0 -87 -86 -177q-86 -91 -197 -156q19 -16 54 -57q68 -81 99 -109q100 -91 177 4l31 -34q-50 -86 -142 -117q-30 -10 -65 -10z" />
    <glyph glyph-name="Lacute" unicode="&#x139;" horiz-adv-x="1128" 
d="M605 1499l-25 35l233 279l117 -131zM831 178q128 0 230 131l37 -26l-201 -326q-128 22 -263 41q-136 18 -203 30q-67 11 -114 11q-113 0 -202 -62l-31 33q59 51 77 154q5 29 5 55v590q0 281 185 472q185 192 458 192q154 0 208 -99q19 -35 19 -83t-17 -90t-47 -80
q-55 -71 -141 -125q-86 -53 -176 -76l-16 38q205 121 205 254q0 70 -48 115t-120 45q-137 0 -220 -111t-83 -257v-644q0 -139 -137 -256q112 82 189 98q33 8 79 7q56 1 162 -15t165 -16z" />
    <glyph glyph-name="lacute" unicode="&#x13a;" horiz-adv-x="469" 
d="M213 1461l-25 35l233 279l117 -131zM309 145q0 -53 40 -53t77 55l27 -30q-41 -87 -123 -119q-28 -10 -56 -10q-149 0 -149 162v1220l184 64v-1289z" />
    <glyph glyph-name="Lcommaaccent" unicode="&#x13b;" horiz-adv-x="1128" 
d="M645 -164q0 -102 -113 -169l-26 21q30 28 39 66q-27 8 -45 30t-17 52q-1 30 23 54t58 25q34 -1 57 -25q24 -24 24 -54zM831 178q128 0 230 131l37 -26l-201 -326q-128 22 -263 41q-136 18 -203 30q-67 11 -114 11q-113 0 -202 -62l-31 33q59 51 77 154q5 29 5 55v590
q0 281 185 472q185 192 458 192q154 0 208 -99q19 -35 19 -83t-17 -90t-47 -80q-55 -71 -141 -125q-86 -53 -176 -76l-16 38q205 121 205 254q0 70 -48 115t-120 45q-137 0 -220 -111t-83 -257v-644q0 -139 -137 -256q112 82 189 98q33 8 79 7q56 1 162 -15t165 -16z" />
    <glyph glyph-name="lcommaaccent" unicode="&#x13c;" horiz-adv-x="469" 
d="M315 -164q0 -102 -113 -169l-26 21q30 28 39 66q-27 8 -45 30t-17 52q-1 30 23 54t58 25q34 -1 57 -25q24 -24 24 -54zM309 145q0 -53 40 -53t77 55l27 -30q-41 -87 -123 -119q-28 -10 -56 -10q-149 0 -149 162v1220l184 64v-1289z" />
    <glyph glyph-name="Lcaron" unicode="&#x13d;" horiz-adv-x="1315" 
d="M1170 1272q-61 18 -61 82q0 31 23 55q22 24 56 24t58 -24q24 -25 24 -55q0 -103 -113 -169l-25 22q32 29 38 65zM831 178q128 0 230 131l37 -26l-201 -326q-128 22 -263 41q-136 18 -203 30q-67 11 -114 11q-113 0 -202 -62l-31 33q59 51 77 154q5 29 5 55v590
q0 281 185 472q185 192 458 192q154 0 208 -99q19 -35 19 -83t-17 -90t-47 -80q-55 -71 -141 -125q-86 -53 -176 -76l-16 38q205 121 205 254q0 70 -48 115t-120 45q-137 0 -220 -111t-83 -257v-644q0 -139 -137 -256q112 82 189 98q33 8 79 7q56 1 162 -15t165 -16z" />
    <glyph glyph-name="lcaron" unicode="&#x13e;" horiz-adv-x="600" 
d="M455 1276q-61 18 -61 82q0 31 23 55t57 24t57 -24q24 -25 24 -55q0 -103 -113 -169l-25 22q32 29 38 65zM309 145q0 -53 40 -53t77 55l27 -30q-41 -87 -123 -119q-28 -10 -56 -10q-149 0 -149 162v1220l184 64v-1289z" />
    <glyph glyph-name="Ldot" unicode="&#x13f;" horiz-adv-x="1341" 
d="M1243 731q1 -25 -9 -45t-26 -36t-37 -25t-45 -9t-44 9t-37 25q-16 16 -25 36t-9 45q0 23 9 45t25 38q17 16 37 24q20 10 44 10t45 -10t37 -24q16 -16 26 -38t9 -45zM831 178q128 0 230 131l37 -26l-201 -326q-128 22 -263 41q-136 18 -203 30q-67 11 -114 11
q-113 0 -202 -62l-31 33q59 51 77 154q5 29 5 55v590q0 281 185 472q185 192 458 192q154 0 208 -99q19 -35 19 -83t-17 -90t-47 -80q-55 -71 -141 -125q-86 -53 -176 -76l-16 38q205 121 205 254q0 70 -48 115t-120 45q-137 0 -220 -111t-83 -257v-644q0 -139 -137 -256
q112 82 189 98q33 8 79 7q56 1 162 -15t165 -16z" />
    <glyph glyph-name="ldotaccent" unicode="&#x140;" horiz-adv-x="791" 
d="M693 731q1 -25 -9 -45t-26 -36t-37 -25t-45 -9t-44 9t-37 25q-16 16 -25 36t-9 45q0 23 9 45t25 38q17 16 37 24q20 10 44 10t45 -10t37 -24q16 -16 26 -38t9 -45zM309 145q0 -53 40 -53t77 55l27 -30q-41 -87 -123 -119q-28 -10 -56 -10q-149 0 -149 162v1220l184 64
v-1289z" />
    <glyph glyph-name="Lslash" unicode="&#x141;" horiz-adv-x="1130" 
d="M846 1212q0 108 -100 148q-30 12 -84 12t-111 -32t-95 -84q-78 -106 -79 -252v-318l166 64v-109l-166 -63v-218q0 -139 -137 -256q112 82 188 98q34 8 80 7q56 1 162 -15t166 -16q125 0 227 131l37 -26l-201 -326q-125 22 -260 40t-203 30t-114 12q-114 0 -203 -62
l-31 33q59 51 77 154q5 29 5 55v279l-150 -58v109l150 57v203q0 281 185 472q185 192 456 192q154 0 208 -99q19 -35 19 -83t-17 -90t-46 -80q-55 -73 -142 -126t-174 -75l-16 38q203 119 203 254z" />
    <glyph glyph-name="lslash" unicode="&#x142;" horiz-adv-x="514" 
d="M311 -12q-149 0 -149 162v458l-170 -65v108l170 66v653l182 64v-648l170 66v-109l-170 -65v-533q0 -53 40 -53t79 55l26 -30q-35 -87 -121 -119q-28 -10 -57 -10z" />
    <glyph glyph-name="Nacute" unicode="&#x143;" horiz-adv-x="1264" 
d="M655 1507l-25 35l233 279l117 -131zM1122 98q63 0 115 68l33 -29q-51 -99 -149 -137q-32 -12 -77 -12q-94 0 -154 74q-59 74 -59 182v916q1 151 -69 188q-22 12 -68 12t-91 -34t-79 -88q-63 -99 -96 -246q-33 -146 -33 -253v-692l-207 -76v1432l207 74v-377
q71 258 249 342q66 30 140 31q132 0 193 -82t61 -209v-971q0 -76 44 -103q16 -10 40 -10z" />
    <glyph glyph-name="nacute" unicode="&#x144;" horiz-adv-x="946" 
d="M521 836l-25 35l233 279l117 -131zM788 145q0 -53 40 -53t77 55l29 -30q-40 -87 -124 -119q-27 -10 -56 -10q-150 0 -150 162v407q0 55 -27 55t-55 -34t-56 -88q-48 -98 -86 -245t-38 -222l-182 -64v672q0 53 -41 53t-78 -55l-27 30q42 87 124 119q28 10 57 10
q147 0 147 -161v-326q36 163 112 305q97 182 216 182q113 0 117 -142q1 -38 1 -73v-428z" />
    <glyph glyph-name="Ncommaaccent" unicode="&#x145;" horiz-adv-x="1264" 
d="M713 -164q0 -102 -113 -169l-26 21q30 28 39 66q-27 8 -45 30t-17 52q-1 30 23 54t58 25q34 -1 57 -25q24 -24 24 -54zM1122 98q63 0 115 68l33 -29q-51 -99 -149 -137q-32 -12 -77 -12q-94 0 -154 74q-59 74 -59 182v916q1 151 -69 188q-22 12 -68 12t-91 -34t-79 -88
q-63 -99 -96 -246q-33 -146 -33 -253v-692l-207 -76v1432l207 74v-377q71 258 249 342q66 30 140 31q132 0 193 -82t61 -209v-971q0 -76 44 -103q16 -10 40 -10z" />
    <glyph glyph-name="ncommaaccent" unicode="&#x146;" horiz-adv-x="946" 
d="M554 -164q0 -102 -113 -169l-26 21q30 28 39 66q-26 8 -44 30t-18 52t24 54t56 25q34 -1 58 -25t24 -54zM788 145q0 -53 40 -53t77 55l29 -30q-40 -87 -124 -119q-27 -10 -56 -10q-150 0 -150 162v407q0 55 -27 55t-55 -34t-56 -88q-48 -98 -86 -245t-38 -222l-182 -64
v672q0 53 -41 53t-78 -55l-27 30q42 87 124 119q28 10 57 10q147 0 147 -161v-326q36 163 112 305q97 182 216 182q113 0 117 -142q1 -38 1 -73v-428z" />
    <glyph glyph-name="Ncaron" unicode="&#x147;" horiz-adv-x="1264" 
d="M914 1822l-276 -311l-289 270l102 107l244 -232l170 207zM1122 98q63 0 115 68l33 -29q-51 -99 -149 -137q-32 -12 -77 -12q-94 0 -154 74q-59 74 -59 182v916q1 151 -69 188q-22 12 -68 12t-91 -34t-79 -88q-63 -99 -96 -246q-33 -146 -33 -253v-692l-207 -76v1432
l207 74v-377q71 258 249 342q66 30 140 31q132 0 193 -82t61 -209v-971q0 -76 44 -103q16 -10 40 -10z" />
    <glyph glyph-name="ncaron" unicode="&#x148;" horiz-adv-x="946" 
d="M755 1148l-276 -311l-289 270l102 107l244 -232l170 207zM788 145q0 -53 40 -53t77 55l29 -30q-40 -87 -124 -119q-27 -10 -56 -10q-150 0 -150 162v407q0 55 -27 55t-55 -34t-56 -88q-48 -98 -86 -245t-38 -222l-182 -64v672q0 53 -41 53t-78 -55l-27 30q42 87 124 119
q28 10 57 10q147 0 147 -161v-326q36 163 112 305q97 182 216 182q113 0 117 -142q1 -38 1 -73v-428z" />
    <glyph glyph-name="napostrophe" unicode="&#x149;" horiz-adv-x="1137" 
d="M979 145q0 -53 40 -53t77 55l29 -30q-40 -87 -124 -119q-27 -10 -56 -10q-150 0 -150 162v407q0 55 -27 55q-28 0 -56 -34t-54 -88q-48 -98 -87 -245q-38 -147 -38 -222l-182 -64v672q0 53 -41 53t-78 -55l-27 30q41 87 123 119q28 10 58 10q147 0 147 -161v-326
q35 163 111 305q97 181 217 182q113 0 117 -142q1 -38 1 -73v-428zM116 1007q-61 18 -61 82q0 31 23 55q22 24 56 24t58 -24t24 -54q0 -103 -113 -170l-25 22q32 29 38 65z" />
    <glyph glyph-name="Eng" unicode="&#x14a;" horiz-adv-x="1129" 
d="M831 1160q1 151 -69 188q-22 12 -68 12t-91 -34t-79 -88q-63 -99 -96 -246q-33 -146 -33 -253v-692l-207 -76v1432l207 74v-377q71 258 249 342q66 30 140 31q132 0 193 -82t61 -209l2 -1099q0 -199 -143 -350t-342 -151q-158 0 -289 110l168 150q32 -65 83 -108
q94 -77 152 -77q164 0 164 246l-2 1205v52z" />
    <glyph glyph-name="eng" unicode="&#x14b;" horiz-adv-x="908" 
d="M195 788q147 0 147 -161v-326q36 163 112 305q97 182 216 182q113 0 117 -142q1 -38 1 -73l-1 -491q0 -257 -213 -432q-134 -104 -262 -104q-76 0 -135 44l113 142q86 -69 177 -56q40 6 72 27q67 51 65 261q0 54 -1 102l1 491q0 55 -27 55t-55 -34t-56 -88
q-48 -98 -86 -245t-38 -222l-182 -64v672q0 53 -41 53t-78 -55l-27 30q42 87 124 119q28 10 57 10z" />
    <glyph glyph-name="Omacron" unicode="&#x14c;" 
d="M489 1525l72 157h413l-69 -157h-416zM659 1358q-81 0 -131 -22t-90 -62q-72 -71 -108 -187q-35 -116 -35 -214q0 -99 12 -187q13 -88 39 -174q59 -192 178 -313t299 -121q119 0 204 84q144 142 144 435q-1 269 -119 493q-88 164 -236 232q-76 36 -157 36zM1378 715
q0 -91 -20 -183t-58 -174t-94 -154t-128 -124t-158 -82t-187 -29q-101 -1 -187 29t-158 82t-128 124t-95 154t-59 174t-20 183q0 92 20 183q20 92 59 174t95 154t128 123t158 81t187 30t187 -30t158 -81t128 -123t94 -154t58 -174q20 -91 20 -183z" />
    <glyph glyph-name="omacron" unicode="&#x14d;" horiz-adv-x="856" 
d="M185 844l72 157h413l-69 -157h-416zM795 435q0 -188 -109 -323t-266 -135t-259 101t-102 257q0 157 103 282t266 176l29 -35q-147 -108 -198 -272q-17 -54 -17 -106q0 -114 60 -210q60 -94 160 -94t150 64t50 141q0 134 -80 239t-189 115q53 60 162 139q111 -36 176 -138
q64 -101 64 -201z" />
    <glyph glyph-name="Obreve" unicode="&#x14e;" 
d="M633 1645q34 -60 85 -60q52 -1 78 27t26 71q0 81 -65 133l131 84q57 -63 57 -157t-66 -157t-159 -63t-147 51t-54 129q-1 79 47 153q14 22 33 38l29 -22q-29 -40 -29 -103q0 -64 34 -124zM659 1358q-81 0 -131 -22t-90 -62q-72 -71 -108 -187q-35 -116 -35 -214
q0 -99 12 -187q13 -88 39 -174q59 -192 178 -313t299 -121q119 0 204 84q144 142 144 435q-1 269 -119 493q-88 164 -236 232q-76 36 -157 36zM1378 715q0 -91 -20 -183t-58 -174t-94 -154t-128 -124t-158 -82t-187 -29q-101 -1 -187 29t-158 82t-128 124t-95 154t-59 174
t-20 183q0 92 20 183q20 92 59 174t95 154t128 123t158 81t187 30t187 -30t158 -81t128 -123t94 -154t58 -174q20 -91 20 -183z" />
    <glyph glyph-name="obreve" unicode="&#x14f;" horiz-adv-x="856" 
d="M329 969q34 -60 85 -60q52 -1 78 27t26 71q0 81 -65 133l131 84q57 -63 57 -157t-66 -157t-159 -63t-147 51t-54 129q-1 79 47 153q14 22 33 38l29 -22q-29 -40 -29 -103q0 -64 34 -124zM795 435q0 -188 -109 -323t-266 -135t-259 101t-102 257q0 157 103 282t266 176
l29 -35q-147 -108 -198 -272q-17 -54 -17 -106q0 -114 60 -210q60 -94 160 -94t150 64t50 141q0 134 -80 239t-189 115q53 60 162 139q111 -36 176 -138q64 -101 64 -201z" />
    <glyph glyph-name="Ohungarumlaut" unicode="&#x150;" 
d="M815 1511l-25 35l234 279l116 -131zM549 1511l-25 35l233 279l117 -131zM659 1358q-81 0 -131 -22t-90 -62q-72 -71 -108 -187q-35 -116 -35 -214q0 -99 12 -187q13 -88 39 -174q59 -192 178 -313t299 -121q119 0 204 84q144 142 144 435q-1 269 -119 493
q-88 164 -236 232q-76 36 -157 36zM1378 715q0 -91 -20 -183t-58 -174t-94 -154t-128 -124t-158 -82t-187 -29q-101 -1 -187 29t-158 82t-128 124t-95 154t-59 174t-20 183q0 92 20 183q20 92 59 174t95 154t128 123t158 81t187 30t187 -30t158 -81t128 -123t94 -154
t58 -174q20 -91 20 -183z" />
    <glyph glyph-name="ohungarumlaut" unicode="&#x151;" horiz-adv-x="856" 
d="M544 842l-25 35l234 279l116 -131zM278 842l-25 35l233 279l117 -131zM795 435q0 -188 -109 -323t-266 -135t-259 101t-102 257q0 157 103 282t266 176l29 -35q-147 -108 -198 -272q-17 -54 -17 -106q0 -114 60 -210q60 -94 160 -94t150 64t50 141q0 134 -80 239
t-189 115q53 60 162 139q111 -36 176 -138q64 -101 64 -201z" />
    <glyph glyph-name="OE" unicode="&#x152;" horiz-adv-x="2171" 
d="M1706 1356q-96 0 -172 -64t-76 -161t78 -166q78 -70 180 -70q55 0 105 18l14 -41q-305 -98 -409 -296q-40 -75 -40 -150q0 -133 65 -206t179 -73t268 88t209 189l35 -31q-93 -171 -253 -288t-337 -117q-178 0 -298 114q-38 36 -64 82q-186 -215 -457 -215
q-192 0 -339 107t-227 278q-81 171 -81 361q0 289 174 511q114 146 286 204q86 30 188 30q197 0 346 -112t229 -293q11 165 170 280t326 115t276 -127l-146 -106q-101 139 -229 139zM1366 858q15 -88 12 -143v-10q69 45 123 69q-79 15 -135 84zM659 1358q-81 0 -131 -22
t-90 -62q-72 -71 -108 -187q-35 -116 -35 -214q0 -99 12 -187q13 -88 39 -174q59 -192 178 -313t299 -121q119 0 204 84q144 142 144 435q-1 269 -119 493q-88 164 -236 232q-76 36 -157 36z" />
    <glyph glyph-name="oe" unicode="&#x153;" horiz-adv-x="1415" 
d="M1109 657q-30 33 -76 33q-84 0 -146 -103t-62 -187q0 -83 45 -162q90 50 180 152q89 103 89 168q0 66 -30 99zM1382 195q-166 -215 -402 -215q-78 0 -153 44t-118 119q-120 -166 -297 -166q-149 0 -251 101t-102 257q0 157 103 282t266 176l29 -35q-147 -108 -198 -272
q-17 -54 -17 -106q0 -114 60 -210q60 -94 160 -94t150 64t50 141q0 134 -80 239t-189 115q53 60 162 139q136 -45 199 -180q102 138 258 180q52 14 100 14q96 0 156 -44q59 -44 59 -139t-152 -229t-272 -186q79 -104 187 -104t262 141z" />
    <glyph glyph-name="Racute" unicode="&#x154;" horiz-adv-x="1307" 
d="M640 1493l-25 35l233 279l117 -131zM401 45l-206 -76v1121l206 73v-1118zM1020 129q80 0 192 119l35 -31q-117 -159 -239 -219q-50 -24 -92 -25q-74 0 -123 35q-103 72 -347 428l11 41q217 37 383 176t166 348q0 142 -88 235t-228 93q-226 0 -453 -150q-65 -43 -128 -89
l-31 34q158 153 266 211q217 117 457 117q182 0 299 -121t117 -305q0 -142 -72 -248t-195 -172q-16 -8 -38 -21t-48 -28q-148 -84 -194 -90q164 -219 239 -285q25 -21 51 -37t60 -16z" />
    <glyph glyph-name="racute" unicode="&#x155;" horiz-adv-x="686" 
d="M389 816l-25 35l233 279l117 -131zM537 102q43 0 90 33l24 -26q-54 -84 -166 -114q-35 -9 -73 -9q-77 0 -118 56q-42 56 -42 125q0 118 58 242t132 187q-75 -49 -146 -49q-72 0 -120 24l-104 -217l-43 17l108 221q-49 34 -65 67l139 156q33 -98 111 -139q26 -14 57 -14
q93 0 196 67l27 -27q-215 -198 -215 -376q1 -75 27 -126q26 -50 53 -74t70 -24z" />
    <glyph glyph-name="Rcommaaccent" unicode="&#x156;" horiz-adv-x="1307" 
d="M734 -164q0 -102 -113 -169l-26 21q30 28 39 66q-26 8 -44 30t-18 52t24 54t56 25q34 -1 58 -25t24 -54zM401 45l-206 -76v1121l206 73v-1118zM1020 129q80 0 192 119l35 -31q-117 -159 -239 -219q-50 -24 -92 -25q-74 0 -123 35q-103 72 -347 428l11 41q217 37 383 176
t166 348q0 142 -88 235t-228 93q-226 0 -453 -150q-65 -43 -128 -89l-31 34q158 153 266 211q217 117 457 117q182 0 299 -121t117 -305q0 -142 -72 -248t-195 -172q-16 -8 -38 -21t-48 -28q-148 -84 -194 -90q164 -219 239 -285q25 -21 51 -37t60 -16z" />
    <glyph glyph-name="rcommaaccent" unicode="&#x157;" horiz-adv-x="686" 
d="M376 -164q0 -102 -113 -169l-26 21q30 28 39 66q-26 8 -44 30t-18 52t24 54t56 25q34 -1 58 -25t24 -54zM537 102q43 0 90 33l24 -26q-54 -84 -166 -114q-35 -9 -73 -9q-77 0 -118 56q-42 56 -42 125q0 118 58 242t132 187q-75 -49 -146 -49q-72 0 -120 24l-104 -217
l-43 17l108 221q-49 34 -65 67l139 156q33 -98 111 -139q26 -14 57 -14q93 0 196 67l27 -27q-215 -198 -215 -376q1 -75 27 -126q26 -50 53 -74t70 -24z" />
    <glyph glyph-name="Rcaron" unicode="&#x158;" horiz-adv-x="1307" 
d="M936 1817l-276 -311l-289 270l102 107l244 -232l170 207zM401 45l-206 -76v1121l206 73v-1118zM1020 129q80 0 192 119l35 -31q-117 -159 -239 -219q-50 -24 -92 -25q-74 0 -123 35q-103 72 -347 428l11 41q217 37 383 176t166 348q0 142 -88 235t-228 93
q-226 0 -453 -150q-65 -43 -128 -89l-31 34q158 153 266 211q217 117 457 117q182 0 299 -121t117 -305q0 -142 -72 -248t-195 -172q-16 -8 -38 -21t-48 -28q-148 -84 -194 -90q164 -219 239 -285q25 -21 51 -37t60 -16z" />
    <glyph glyph-name="rcaron" unicode="&#x159;" horiz-adv-x="686" 
d="M625 1141l-276 -311l-289 270l102 107l244 -232l170 207zM537 102q43 0 90 33l24 -26q-54 -84 -166 -114q-35 -9 -73 -9q-77 0 -118 56q-42 56 -42 125q0 118 58 242t132 187q-75 -49 -146 -49q-72 0 -120 24l-104 -217l-43 17l108 221q-49 34 -65 67l139 156
q33 -98 111 -139q26 -14 57 -14q93 0 196 67l27 -27q-215 -198 -215 -376q1 -75 27 -126q26 -50 53 -74t70 -24z" />
    <glyph glyph-name="Sacute" unicode="&#x15a;" horiz-adv-x="1106" 
d="M598 1517l-25 35l233 279l117 -131zM522 1360q-118 0 -190 -74q-74 -74 -74 -181q0 -108 74 -191t178 -117q469 -163 469 -424q0 -186 -137 -291t-315 -105q-177 0 -339 132q-48 39 -82 84l162 186q32 -103 144 -206t215 -103q62 0 125 58t63 108t-18 90q-17 40 -47 74
q-54 64 -143 114q-88 50 -161 71q-154 45 -261 161t-107 264q0 193 161 326q161 134 361 134q140 0 260 -62t205 -175l-168 -203q-75 226 -249 303q-62 27 -126 27z" />
    <glyph glyph-name="sacute" unicode="&#x15b;" horiz-adv-x="602" 
d="M297 907l-25 35l233 279l117 -131zM322 750q0 28 -31 28t-31 -36t23 -76q39 68 39 84zM367 760q0 -42 -62 -129q31 -44 83 -86q51 -42 76 -64q85 -75 85 -190q0 -139 -85 -225t-197 -86q-113 0 -195 45q-28 15 -45 36l118 154q80 -127 169 -127q88 0 124 82q11 25 11 60
q1 34 -27 68t-66 66t-78 64q-40 34 -65 74l-104 -152l-39 29l120 166q-30 62 -30 107q0 78 37 133t96 55q31 0 53 -19t21 -61z" />
    <glyph glyph-name="Scircumflex" unicode="&#x15c;" horiz-adv-x="1106" 
d="M321 1537l-51 41l279 312l286 -271l-100 -106l-244 231zM522 1360q-118 0 -190 -74q-74 -74 -74 -181q0 -108 74 -191t178 -117q469 -163 469 -424q0 -186 -137 -291t-315 -105q-177 0 -339 132q-48 39 -82 84l162 186q32 -103 144 -206t215 -103q62 0 125 58t63 108
t-18 90q-17 40 -47 74q-54 64 -143 114q-88 50 -161 71q-154 45 -261 161t-107 264q0 193 161 326q161 134 361 134q140 0 260 -62t205 -175l-168 -203q-75 226 -249 303q-62 27 -126 27z" />
    <glyph glyph-name="scircumflex" unicode="&#x15d;" horiz-adv-x="602" 
d="M69 883l-51 41l279 312l286 -271l-100 -106l-244 231zM322 750q0 28 -31 28t-31 -36t23 -76q39 68 39 84zM367 760q0 -42 -62 -129q31 -44 83 -86q51 -42 76 -64q85 -75 85 -190q0 -139 -85 -225t-197 -86q-113 0 -195 45q-28 15 -45 36l118 154q80 -127 169 -127
q88 0 124 82q11 25 11 60q1 34 -27 68t-66 66t-78 64q-40 34 -65 74l-104 -152l-39 29l120 166q-30 62 -30 107q0 78 37 133t96 55q31 0 53 -19t21 -61z" />
    <glyph glyph-name="Scedilla" unicode="&#x15e;" horiz-adv-x="1106" 
d="M815 236q0 50 -18 90q-17 40 -47 74q-54 64 -143 114q-88 50 -161 71q-154 45 -261 161t-107 264q0 193 161 326q161 134 361 134q140 0 260 -62t205 -175l-168 -203q-75 226 -249 303q-62 27 -126 27q-118 0 -190 -74q-74 -74 -74 -181q0 -108 74 -191t178 -117
q283 -98 391 -227q78 -93 78 -193q0 -174 -116 -276q-116 -103 -281 -120l-31 -53q40 23 71 23q30 0 48 -7q18 -6 31 -20q15 -14 23 -36t8 -49q0 -51 -38 -84q-57 -49 -111 -28t-74 63l23 16q18 -31 45 -31t45 18t17 45q0 27 -17 46t-51 19t-39 -14l-23 19l41 70l-28 -1
q-174 0 -334 132q-48 39 -82 84l162 186q32 -103 144 -206t215 -103q62 0 125 58t63 108z" />
    <glyph glyph-name="scedilla" unicode="&#x15f;" horiz-adv-x="602" 
d="M322 750q0 28 -31 28t-31 -36t23 -76q39 68 39 84zM367 760q0 -42 -62 -129q31 -44 83 -86q51 -42 76 -64q85 -75 85 -187q0 -131 -73 -214t-180 -97l-33 -55q40 23 71 23q30 0 48 -7q18 -6 31 -20q15 -14 23 -36t8 -49q0 -51 -38 -84q-57 -49 -111 -28t-74 63l23 16
q18 -31 45 -31t45 18t17 45q0 27 -17 46t-51 19t-39 -14l-23 19l42 72h-11q-98 0 -180 45q-28 15 -45 36l118 154q80 -127 169 -127q88 0 124 82q11 25 11 60q1 34 -27 68t-66 66t-78 64q-40 34 -65 74l-104 -152l-39 29l120 166q-30 62 -30 107q0 78 37 133t96 55
q31 0 53 -19t21 -61z" />
    <glyph glyph-name="Scaron" unicode="&#x160;" horiz-adv-x="1106" 
d="M854 1841l-276 -311l-289 270l102 107l244 -232l170 207zM522 1360q-118 0 -190 -74q-74 -74 -74 -181q0 -108 74 -191t178 -117q469 -163 469 -424q0 -186 -137 -291t-315 -105q-177 0 -339 132q-48 39 -82 84l162 186q32 -103 144 -206t215 -103q62 0 125 58t63 108
t-18 90q-17 40 -47 74q-54 64 -143 114q-88 50 -161 71q-154 45 -261 161t-107 264q0 193 161 326q161 134 361 134q140 0 260 -62t205 -175l-168 -203q-75 226 -249 303q-62 27 -126 27z" />
    <glyph glyph-name="scaron" unicode="&#x161;" horiz-adv-x="602" 
d="M571 1199l-276 -311l-289 270l102 107l244 -232l170 207zM322 750q0 28 -31 28t-31 -36t23 -76q39 68 39 84zM367 760q0 -42 -62 -129q31 -44 83 -86q51 -42 76 -64q85 -75 85 -190q0 -139 -85 -225t-197 -86q-113 0 -195 45q-28 15 -45 36l118 154q80 -127 169 -127
q88 0 124 82q11 25 11 60q1 34 -27 68t-66 66t-78 64q-40 34 -65 74l-104 -152l-39 29l120 166q-30 62 -30 107q0 78 37 133t96 55q31 0 53 -19t21 -61z" />
    <glyph glyph-name="Tcommaaccent" unicode="&#x162;" horiz-adv-x="1008" 
d="M549 -164q0 -102 -113 -169l-26 21q30 28 39 66q-27 8 -45 30t-17 52q-1 30 23 54t58 25q34 -1 57 -25q24 -24 24 -54zM365 918q0 139 206 315l-331 2q-70 0 -118 -27t-99 -86l-29 31q91 123 152 175q125 106 233 106h432q106 0 161 22t75 39l24 -27q-105 -158 -283 -214
q-58 -18 -116 -19l-23 -2q-38 -48 -58 -93t-20 -106v-639q0 -263 -223 -415l-33 38q50 56 50 197v703z" />
    <glyph glyph-name="tcommaaccent" unicode="&#x163;" horiz-adv-x="537" 
d="M327 -164q0 -102 -113 -169l-26 21q30 28 39 66q-27 8 -45 30t-17 52q-1 30 23 54t58 25q34 -1 57 -25q24 -24 24 -54zM143 150v524h-106l43 100h63v354l183 64v-418h190l-41 -100h-149v-529q0 -24 11 -38q11 -15 28 -15q41 -1 79 55l27 -30q-57 -122 -180 -129
q-148 0 -148 162z" />
    <glyph glyph-name="Tcaron" unicode="&#x164;" horiz-adv-x="1008" 
d="M786 1805l-276 -311l-289 270l102 107l244 -232l170 207zM365 918q0 139 206 315l-331 2q-70 0 -118 -27t-99 -86l-29 31q91 123 152 175q125 106 233 106h432q106 0 161 22t75 39l24 -27q-105 -158 -283 -214q-58 -18 -116 -19l-23 -2q-38 -48 -58 -93t-20 -106v-639
q0 -263 -223 -415l-33 38q50 56 50 197v703z" />
    <glyph glyph-name="tcaron" unicode="&#x165;" horiz-adv-x="708" 
d="M563 1133q-61 18 -61 82q0 31 23 55t57 24t57 -24q24 -24 24 -54q0 -103 -113 -170l-25 22q32 29 38 65zM143 150v524h-106l43 100h63v354l183 64v-418h190l-41 -100h-149v-529q0 -24 11 -38q11 -15 28 -15q41 -1 79 55l27 -30q-57 -122 -180 -129q-148 0 -148 162z" />
    <glyph glyph-name="Tbar" unicode="&#x166;" horiz-adv-x="1008" 
d="M365 918q0 139 206 315l-331 2q-70 0 -118 -27t-99 -86l-29 31q91 123 152 175q125 106 233 106h432q106 0 161 22t75 39l24 -27q-105 -158 -283 -214q-58 -18 -116 -19l-23 -2q-38 -48 -58 -93t-20 -106v-260h161l-51 -101h-110v-278q0 -263 -223 -415l-33 38
q50 56 50 197v458h-167l43 101h124v144z" />
    <glyph glyph-name="tbar" unicode="&#x167;" horiz-adv-x="537" 
d="M143 150v343h-115l43 101h72v80h-106l43 100h63v354l183 64v-418h190l-41 -100h-149v-80h178l-41 -101h-137v-348q0 -24 11 -38q11 -15 28 -15q41 -1 79 55l27 -30q-57 -122 -180 -129q-148 0 -148 162z" />
    <glyph glyph-name="Utilde" unicode="&#x168;" horiz-adv-x="1270" 
d="M489 1512l-39 -20q-54 59 -44 123t39 99t75 37q46 3 72 -9t46 -28t36 -34t32 -28q34 -24 61 5t5 95l38 16q60 -80 27 -176q-27 -67 -80 -85t-92 8q-38 26 -59 47t-51 47t-52 14q-62 -35 -14 -111zM1102 100q64 0 115 66l32 -29q-51 -99 -149 -137q-32 -12 -76 -12
q-95 0 -154 74t-59 182v118q-71 -263 -249 -350q-66 -32 -140 -32q-131 0 -192 82q-62 82 -62 208v1104l207 74v-1104q0 -117 12 -159q27 -93 124 -93t181 136q85 136 112 386q7 64 7 107v653l207 74v-1237q0 -74 44 -101q16 -10 40 -10z" />
    <glyph glyph-name="utilde" unicode="&#x169;" horiz-adv-x="924" 
d="M316 857l-39 -20q-54 59 -44 123t39 99q30 35 76 37t71 -10t45 -28t38 -34q16 -18 31 -28q34 -24 61 6q27 29 5 95l38 16q60 -80 27 -176q-27 -67 -80 -85t-92 8q-38 26 -59 47t-51 47t-52 14q-62 -35 -14 -111zM580 150v319q-109 -489 -308 -489q-106 0 -114 128
q-2 40 -2 87v434q0 51 -40 53q-40 1 -79 -55l-27 30q58 122 180 129q148 0 148 -161v-414q0 -39 14 -51t36 4q52 36 106 166q67 240 86 401l184 64v-650q0 -24 11 -38q11 -15 28 -15q40 -1 78 55l28 -30q-38 -81 -113 -113q-33 -14 -67 -16q-149 0 -149 162z" />
    <glyph glyph-name="Umacron" unicode="&#x16a;" horiz-adv-x="1270" 
d="M392 1499l72 157h413l-69 -157h-416zM1102 100q64 0 115 66l32 -29q-51 -99 -149 -137q-32 -12 -76 -12q-95 0 -154 74t-59 182v118q-71 -263 -249 -350q-66 -32 -140 -32q-131 0 -192 82q-62 82 -62 208v1104l207 74v-1104q0 -117 12 -159q27 -93 124 -93t181 136
q85 136 112 386q7 64 7 107v653l207 74v-1237q0 -74 44 -101q16 -10 40 -10z" />
    <glyph glyph-name="umacron" unicode="&#x16b;" horiz-adv-x="924" 
d="M219 839l72 157h413l-69 -157h-416zM580 150v319q-109 -489 -308 -489q-106 0 -114 128q-2 40 -2 87v434q0 51 -40 53q-40 1 -79 -55l-27 30q58 122 180 129q148 0 148 -161v-414q0 -39 14 -51t36 4q52 36 106 166q67 240 86 401l184 64v-650q0 -24 11 -38q11 -15 28 -15
q40 -1 78 55l28 -30q-38 -81 -113 -113q-33 -14 -67 -16q-149 0 -149 162z" />
    <glyph glyph-name="Ubreve" unicode="&#x16c;" horiz-adv-x="1270" 
d="M536 1615q34 -60 85 -60q51 -1 77 27t27 71q0 81 -65 133l131 84q57 -63 57 -157t-66 -157t-159 -63t-147 51t-54 129q0 79 48 153q14 22 32 38l29 -22q-29 -40 -29 -103q0 -64 34 -124zM1102 100q64 0 115 66l32 -29q-51 -99 -149 -137q-32 -12 -76 -12q-95 0 -154 74
t-59 182v118q-71 -263 -249 -350q-66 -32 -140 -32q-131 0 -192 82q-62 82 -62 208v1104l207 74v-1104q0 -117 12 -159q27 -93 124 -93t181 136q85 136 112 386q7 64 7 107v653l207 74v-1237q0 -74 44 -101q16 -10 40 -10z" />
    <glyph glyph-name="ubreve" unicode="&#x16d;" horiz-adv-x="924" 
d="M363 958q34 -60 85 -60q52 0 78 28t26 70q0 81 -65 133l131 84q57 -63 57 -157t-66 -157t-159 -63t-147 51t-54 129q-1 78 47 152q14 22 33 39l29 -22q-29 -40 -29 -103q0 -64 34 -124zM580 150v319q-109 -489 -308 -489q-106 0 -114 128q-2 40 -2 87v434q0 51 -40 53
q-40 1 -79 -55l-27 30q58 122 180 129q148 0 148 -161v-414q0 -39 14 -51t36 4q52 36 106 166q67 240 86 401l184 64v-650q0 -24 11 -38q11 -15 28 -15q40 -1 78 55l28 -30q-38 -81 -113 -113q-33 -14 -67 -16q-149 0 -149 162z" />
    <glyph glyph-name="Uring" unicode="&#x16e;" horiz-adv-x="1270" 
d="M691 1572q15 7 25 23q10 15 11 37q2 22 -2 47t-16 51q-13 26 -29 46t-34 32t-36 16t-34 -4q-31 -14 -36 -75q-6 -61 37 -115t71 -60q28 -5 43 2zM634 1891q40 1 76 -15t62 -42t42 -63q16 -36 16 -76q0 -39 -16 -75t-42 -62t-62 -42t-76 -16t-76 16t-62 42t-42 62t-15 75
q-1 40 15 76q16 37 42 63t62 42t76 15zM1102 100q64 0 115 66l32 -29q-51 -99 -149 -137q-32 -12 -76 -12q-95 0 -154 74t-59 182v118q-71 -263 -249 -350q-66 -32 -140 -32q-131 0 -192 82q-62 82 -62 208v1104l207 74v-1104q0 -117 12 -159q27 -93 124 -93t181 136
q85 136 112 386q7 64 7 107v653l207 74v-1237q0 -74 44 -101q16 -10 40 -10z" />
    <glyph glyph-name="uring" unicode="&#x16f;" horiz-adv-x="924" 
d="M518 906q14 7 24 23q10 15 12 37t-2 47t-16 51t-28 46t-35 32t-37 16t-33 -4q-31 -14 -36 -75q-6 -61 37 -115t71 -60q28 -5 43 2zM461 1225q40 1 76 -15q37 -16 63 -42t42 -63q16 -36 15 -76q1 -39 -15 -75t-42 -62t-63 -42q-36 -16 -76 -16q-39 0 -75 16t-62 42t-42 62
t-16 75q0 40 16 76q16 37 42 63t62 42t75 15zM580 150v319q-109 -489 -308 -489q-106 0 -114 128q-2 40 -2 87v434q0 51 -40 53q-40 1 -79 -55l-27 30q58 122 180 129q148 0 148 -161v-414q0 -39 14 -51t36 4q52 36 106 166q67 240 86 401l184 64v-650q0 -24 11 -38
q11 -15 28 -15q40 -1 78 55l28 -30q-38 -81 -113 -113q-33 -14 -67 -16q-149 0 -149 162z" />
    <glyph glyph-name="Uhungarumlaut" unicode="&#x170;" horiz-adv-x="1270" 
d="M758 1510l-25 35l234 279l116 -131zM492 1510l-25 35l233 279l117 -131zM1102 100q64 0 115 66l32 -29q-51 -99 -149 -137q-32 -12 -76 -12q-95 0 -154 74t-59 182v118q-71 -263 -249 -350q-66 -32 -140 -32q-131 0 -192 82q-62 82 -62 208v1104l207 74v-1104
q0 -117 12 -159q27 -93 124 -93t181 136q85 136 112 386q7 64 7 107v653l207 74v-1237q0 -74 44 -101q16 -10 40 -10z" />
    <glyph glyph-name="uhungarumlaut" unicode="&#x171;" horiz-adv-x="924" 
d="M606 846l-25 35l234 279l116 -131zM340 846l-25 35l233 279l117 -131zM580 150v319q-109 -489 -308 -489q-106 0 -114 128q-2 40 -2 87v434q0 51 -40 53q-40 1 -79 -55l-27 30q58 122 180 129q148 0 148 -161v-414q0 -39 14 -51t36 4q52 36 106 166q67 240 86 401l184 64
v-650q0 -24 11 -38q11 -15 28 -15q40 -1 78 55l28 -30q-38 -81 -113 -113q-33 -14 -67 -16q-149 0 -149 162z" />
    <glyph glyph-name="Uogonek" unicode="&#x172;" horiz-adv-x="1270" 
d="M1102 100q64 0 115 66l32 -29q-47 -89 -132 -129q-29 -14 -59 -18q-82 -94 -37 -154q29 -29 59 -21t51 35l23 -19q-47 -73 -108 -92q-53 -10 -98 30q-45 39 -19 120q17 51 80 101q-93 8 -145 80q-53 72 -53 174v118q-71 -263 -249 -350q-66 -32 -140 -32q-131 0 -192 82
q-62 82 -62 208v1104l207 74v-1104q0 -117 12 -159q27 -93 124 -93t181 136q85 136 112 386q7 64 7 107v653l207 74v-1237q0 -74 44 -101q16 -10 40 -10z" />
    <glyph glyph-name="uogonek" unicode="&#x173;" horiz-adv-x="924" 
d="M580 150v319q-109 -489 -308 -489q-106 0 -114 128q-2 40 -2 87v434q0 51 -40 53q-40 1 -79 -55l-27 30q58 122 180 129q148 0 148 -161v-414q0 -39 14 -51t36 4q52 36 106 166q67 240 86 401l184 64v-650q0 -24 11 -38q11 -15 28 -15q40 -1 78 55l28 -30
q-50 -103 -153 -125q-83 -96 -38 -156q29 -29 59 -21t51 35l23 -19q-47 -73 -108 -92q-53 -10 -98 30q-45 39 -19 120q16 48 79 100q-125 14 -125 161z" />
    <glyph glyph-name="Wcircumflex" unicode="&#x174;" horiz-adv-x="1591" 
d="M564 1460l-51 41l279 312l286 -271l-100 -106l-244 231zM1393 1049q0 190 -181 348l152 188q72 -52 119 -151q47 -98 47 -189t-26 -173t-94 -242t-173 -393q-104 -234 -209 -472l-256 692l-246 -692l-508 1378l203 91l377 -1084l143 389l-188 510l203 88l352 -1038
q231 512 258 596t27 154z" />
    <glyph glyph-name="wcircumflex" unicode="&#x175;" horiz-adv-x="1118" 
d="M384 853l-51 41l279 312l286 -271l-100 -106l-244 231zM1065 649q0 -75 -29 -135l-233 -500q-17 -32 -66 -13q-13 5 -18 19l-156 551l-139 -544q-16 -35 -53 -35q-36 0 -41 24l-176 562q-26 77 -74 77q-29 0 -66 -34l-20 26q48 91 148 126q32 11 62 11q50 0 82 -55
q17 -31 48 -130q30 -99 106 -343l99 401l-25 80l168 56l164 -582l94 215q14 35 14 78q0 115 -112 172l114 158q109 -55 109 -185z" />
    <glyph glyph-name="Ycircumflex" unicode="&#x176;" horiz-adv-x="1264" 
d="M400 1498l-51 41l279 312l286 -271l-100 -106l-244 231zM141 1317q-65 0 -116 -66l-33 29q51 100 149 138q33 12 77 12q95 0 153 -74q59 -74 59 -182v-820q0 -118 12 -160q27 -94 123 -94q97 0 182 134t112 382q7 62 7 105v653l207 74v-1395q0 -233 -174 -377
q-98 -82 -170 -104q-72 -21 -147 -21q-151 0 -281 111l168 148q55 -112 169 -166q36 -18 68 -17q30 -1 58 11q59 24 81 85q21 60 21 150v489q-70 -258 -250 -343q-66 -31 -139 -31q-130 0 -192 83t-62 208v927q0 74 -43 101q-16 10 -39 10z" />
    <glyph glyph-name="ycircumflex" unicode="&#x177;" horiz-adv-x="883" 
d="M210 860l-51 41l279 312l286 -271l-100 -106l-244 231zM340 211q0 -55 30 -55t76 73q108 175 136 506l184 64v-717q0 -214 -142 -380q-88 -102 -200 -144q-56 -20 -123 -21q-67 0 -143 53l112 142q90 -72 156 -72q156 0 156 406v403q-84 -365 -224 -463q-38 -26 -84 -26
q-80 0 -104 72q-12 38 -12 143v432q0 17 -10 35t-31 18q-41 0 -78 -55l-27 30q42 87 124 119q28 10 57 10q147 0 147 -161v-412z" />
    <glyph glyph-name="Ydieresis" unicode="&#x178;" horiz-adv-x="1264" 
d="M752 1691q20 1 37 -7t29 -21t20 -31q7 -18 7 -36q0 -38 -27 -66t-56 -28t-46 8t-30 20q-13 13 -20 30t-7 36q0 18 7 36t20 31t30 21q16 8 36 7zM456 1691q20 1 36 -7q17 -8 30 -21q12 -13 20 -31t8 -36q0 -38 -28 -66t-57 -28t-46 8t-30 20q-13 13 -20 30t-7 36
q0 18 7 36t20 31t30 21t37 7zM141 1317q-65 0 -116 -66l-33 29q51 100 149 138q33 12 77 12q95 0 153 -74q59 -74 59 -182v-820q0 -118 12 -160q27 -94 123 -94q97 0 182 134t112 382q7 62 7 105v653l207 74v-1395q0 -233 -174 -377q-98 -82 -170 -104q-72 -21 -147 -21
q-151 0 -281 111l168 148q55 -112 169 -166q36 -18 68 -17q30 -1 58 11q59 24 81 85q21 60 21 150v489q-70 -258 -250 -343q-66 -31 -139 -31q-130 0 -192 83t-62 208v927q0 74 -43 101q-16 10 -39 10z" />
    <glyph glyph-name="Zacute" unicode="&#x179;" horiz-adv-x="1159" 
d="M625 1498l-25 35l233 279l117 -131zM285 55q-115 0 -203 -61l-31 33q381 541 821 1198h-215q-39 1 -97 1q-253 2 -333 -32q-81 -34 -139 -111l-37 27l201 324h530q38 0 78 -1q145 -4 225 52l31 -33q-598 -894 -913 -1331q80 58 133 84t115 26q73 -1 207 -27t194 -26
q123 0 229 131l35 -26l-198 -324q-563 96 -633 96z" />
    <glyph glyph-name="zacute" unicode="&#x17a;" horiz-adv-x="770" 
d="M425 839l-25 35l233 279l117 -131zM417 6q-79 16 -148 17q-70 0 -193 -41l-43 24l499 619q-98 -37 -196 -37l-182 10q-29 0 -105 -16l127 192l227 -12q164 0 283 35l25 -33l-506 -625q66 45 198 45l154 -8q97 0 174 31l-125 -205q-33 -12 -72 -12q-38 0 -117 16z" />
    <glyph glyph-name="Zdotaccent" unicode="&#x17b;" horiz-adv-x="1159" 
d="M578 1684q20 0 37 -8t30 -20t21 -30t7 -37q0 -38 -28 -66t-57 -28q-29 -1 -46 7t-30 21t-20 30t-7 36t7 37t20 30t30 20q16 8 36 8zM285 55q-115 0 -203 -61l-31 33q381 541 821 1198h-215q-39 1 -97 1q-253 2 -333 -32q-81 -34 -139 -111l-37 27l201 324h530q38 0 78 -1
q145 -4 225 52l31 -33q-598 -894 -913 -1331q80 58 133 84t115 26q73 -1 207 -27t194 -26q123 0 229 131l35 -26l-198 -324q-563 96 -633 96z" />
    <glyph glyph-name="zdotaccent" unicode="&#x17c;" horiz-adv-x="770" 
d="M384 1023q20 1 37 -7t30 -21t21 -31t7 -36q0 -38 -28 -66t-57 -28t-46 8t-30 20q-13 13 -20 30t-7 36q0 18 7 36t20 31t30 21q16 8 36 7zM417 6q-79 16 -148 17q-70 0 -193 -41l-43 24l499 619q-98 -37 -196 -37l-182 10q-29 0 -105 -16l127 192l227 -12q164 0 283 35
l25 -33l-506 -625q66 45 198 45l154 -8q97 0 174 31l-125 -205q-33 -12 -72 -12q-38 0 -117 16z" />
    <glyph glyph-name="Zcaron" unicode="&#x17d;" horiz-adv-x="1159" 
d="M866 1804l-276 -311l-289 270l102 107l244 -232l170 207zM285 55q-115 0 -203 -61l-31 33q381 541 821 1198h-215q-39 1 -97 1q-253 2 -333 -32q-81 -34 -139 -111l-37 27l201 324h530q38 0 78 -1q145 -4 225 52l31 -33q-598 -894 -913 -1331q80 58 133 84t115 26
q73 -1 207 -27t194 -26q123 0 229 131l35 -26l-198 -324q-563 96 -633 96z" />
    <glyph glyph-name="zcaron" unicode="&#x17e;" horiz-adv-x="770" 
d="M663 1131l-276 -311l-289 270l102 107l244 -232l170 207zM417 6q-79 16 -148 17q-70 0 -193 -41l-43 24l499 619q-98 -37 -196 -37l-182 10q-29 0 -105 -16l127 192l227 -12q164 0 283 35l25 -33l-506 -625q66 45 198 45l154 -8q97 0 174 31l-125 -205q-33 -12 -72 -12
q-38 0 -117 16z" />
    <glyph glyph-name="florin" unicode="&#x192;" horiz-adv-x="571" 
d="M324 1167v-393h262l-41 -100h-221v-529q0 -307 -186 -419q-68 -41 -167 -41q-99 1 -181 61q-26 20 -44 43l123 82q44 -113 139 -113q133 0 133 207v709h-100l41 100h59v213q0 308 186 420q68 41 167 41q98 0 180 -60q26 -20 45 -45l-123 -81q-46 112 -139 112
q-133 0 -133 -207z" />
    <glyph glyph-name="AEacute" unicode="&#x1fc;" horiz-adv-x="1976" 
d="M1141 1492l-25 35l233 279l117 -131zM1511 1356q-95 0 -171 -64t-76 -161t78 -166q78 -70 180 -70q54 0 104 18l14 -41q-304 -98 -408 -296q-40 -75 -40 -150q0 -132 64 -206q64 -73 178 -73t268 87q153 87 211 190l35 -31q-93 -171 -253 -288t-329 -117q-170 0 -290 99
t-120 251v293q-40 -184 -71 -270q-65 -181 -149 -271q-104 -113 -247 -113q-185 0 -295 132t-110 354t140 455q140 232 365 378t464 142h12v-45q-200 -10 -377 -147t-281 -340t-104 -402q0 -146 53 -258q66 -140 201 -140q203 0 317 446q60 234 78 522q4 74 4 124l207 76
v-70q66 108 196 177t234 69q186 0 293 -127l-145 -106q-101 139 -230 139zM1163 688q58 44 144 86q-89 15 -144 96v-182z" />
    <glyph glyph-name="aeacute" unicode="&#x1fd;" horiz-adv-x="1356" 
d="M744 853l-25 35l233 279l117 -131zM940 -20q-114 0 -202 66t-122 175q-33 -91 -113 -166t-182 -75t-181 74t-79 188q0 227 145 385q145 157 343 157q112 0 192 -71l-118 -86q-25 95 -129 89q-50 -2 -98 -44t-80 -104q-66 -123 -66 -259t64 -194q26 -23 64 -23
q72 0 145 78t79 156q4 27 8 49q20 95 19 192l80 41q111 180 350 180q143 0 192 -98q17 -34 17 -74q0 -42 -22 -84t-60 -84q-67 -77 -168 -152q-102 -75 -174 -106q82 -104 191 -104q108 0 255 141l33 -32q-116 -149 -271 -198q-54 -17 -112 -17zM1050 656q-29 34 -76 34
q-84 0 -146 -104t-62 -188t45 -160q92 52 152 121q116 133 116 199q0 64 -29 98z" />
    <glyph glyph-name="Oslashacute" unicode="&#x1fe;" 
d="M710 1537l-25 35l233 279l117 -131zM1194 1239q184 -217 184 -535q0 -178 -78 -346q-82 -175 -229 -282q-146 -107 -322 -107t-313 80l-61 -98l-125 82l67 106q-165 163 -215 415q-16 80 -16 166t20 178t59 174q84 177 230 282q147 106 341 106t358 -123l90 142l112 -78z
M372 1186q-77 -144 -77 -346t75 -398q26 -68 62 -127l559 867q-136 176 -348 176q-179 0 -271 -172zM1171 584q0 245 -98 465l-545 -854q128 -117 295 -117q119 0 204 84q108 106 136 310q8 58 8 112z" />
    <glyph glyph-name="oslashacute" unicode="&#x1ff;" horiz-adv-x="856" 
d="M439 864l-25 35l233 279l117 -131zM166 74q-107 98 -107 258t103 285t266 176l29 -35q-147 -108 -198 -272q-17 -54 -17 -123t28 -132l238 361q-54 37 -115 43q53 60 162 139q30 -9 57 -24l60 88l92 -64l-64 -98q95 -107 95 -268t-109 -296t-274 -135q-78 0 -144 29
l-61 -94l-103 68zM554 94q108 54 108 211q0 100 -70 203l-248 -385q53 -47 113 -47q61 0 97 18z" />
    <glyph glyph-name="Scommaaccent" unicode="&#x218;" horiz-adv-x="1106" 
d="M634 -164q0 -102 -113 -169l-26 21q30 28 39 66q-26 8 -44 30t-18 52t24 54t56 25q34 -1 58 -25t24 -54zM522 1360q-118 0 -190 -74q-74 -74 -74 -181q0 -108 74 -191t178 -117q469 -163 469 -424q0 -186 -137 -291t-315 -105q-177 0 -339 132q-48 39 -82 84l162 186
q32 -103 144 -206t215 -103q62 0 125 58t63 108t-18 90q-17 40 -47 74q-54 64 -143 114q-88 50 -161 71q-154 45 -261 161t-107 264q0 193 161 326q161 134 361 134q140 0 260 -62t205 -175l-168 -203q-75 226 -249 303q-62 27 -126 27z" />
    <glyph glyph-name="scommaaccent" unicode="&#x219;" horiz-adv-x="602" 
d="M382 -164q0 -102 -113 -169l-26 21q30 28 39 66q-26 8 -44 30t-18 52t24 54t56 25q34 -1 58 -25t24 -54zM322 750q0 28 -31 28t-31 -36t23 -76q39 68 39 84zM367 760q0 -42 -62 -129q31 -44 83 -86q51 -42 76 -64q85 -75 85 -190q0 -139 -85 -225t-197 -86
q-113 0 -195 45q-28 15 -45 36l118 154q80 -127 169 -127q88 0 124 82q11 25 11 60q1 34 -27 68t-66 66t-78 64q-40 34 -65 74l-104 -152l-39 29l120 166q-30 62 -30 107q0 78 37 133t96 55q31 0 53 -19t21 -61z" />
    <glyph glyph-name="dotlessj" unicode="&#x237;" horiz-adv-x="430" 
d="M311 82q0 -257 -213 -432q-134 -104 -262 -104q-76 0 -135 44l113 142q86 -69 177 -56q40 6 72 27q67 51 65 261q0 54 -1 102v645l184 63v-692z" />
    <glyph glyph-name="circumflex" unicode="&#x2c6;" horiz-adv-x="565" 
d="M51 1511l-51 41l279 312l286 -271l-100 -106l-244 231z" />
    <glyph glyph-name="caron" unicode="&#x2c7;" horiz-adv-x="565" 
d="M565 1798l-276 -311l-289 270l102 107l244 -232l170 207z" />
    <glyph glyph-name="breve" unicode="&#x2d8;" horiz-adv-x="426" 
d="M114 1588q34 -60 85 -60t77 28t27 70q0 81 -65 133l131 84q57 -63 57 -157t-66 -157t-159 -63t-147 51t-54 129t48 152q14 22 32 39l29 -22q-29 -40 -29 -103q0 -64 34 -124z" />
    <glyph glyph-name="dotaccent" unicode="&#x2d9;" horiz-adv-x="188" 
d="M94 1692q20 0 36 -8q17 -8 30 -20q12 -12 20 -30t8 -37q0 -38 -28 -66t-57 -28q-29 -1 -46 7t-30 21t-20 30t-7 36t7 37t20 30t30 20t37 8z" />
    <glyph glyph-name="ring" unicode="&#x2da;" horiz-adv-x="391" 
d="M252 1575q14 7 24 23t12 38t-2 46q-4 25 -16 51t-28 46t-35 32q-19 11 -37 15t-33 -3q-31 -14 -36 -75q-6 -61 37 -115t71 -60q28 -5 43 2zM195 1894q40 0 76 -16q37 -16 63 -42t42 -62t15 -76q1 -40 -15 -76t-42 -62t-63 -42q-36 -16 -76 -15q-39 -1 -75 15t-62 42
t-42 62t-16 76t16 76t42 62t62 42t75 16z" />
    <glyph glyph-name="ogonek" unicode="&#x2db;" horiz-adv-x="233" 
d="M130 18l16 -18q-64 -69 -61 -123q1 -25 16 -41t31 -20q43 -10 78 34l23 -19q-47 -73 -108 -92q-53 -10 -98 30q-45 39 -19 120q34 79 122 129z" />
    <glyph glyph-name="tilde" unicode="&#x2dc;" horiz-adv-x="440" 
d="M82 1511l-39 -20q-54 59 -44 123t39 99q30 35 76 37t71 -10t45 -28t38 -34q16 -18 31 -28q34 -24 61 6q27 29 5 95l38 16q60 -80 27 -176q-27 -67 -80 -85t-92 8q-38 26 -59 47t-51 47t-52 14q-62 -35 -14 -111z" />
    <glyph glyph-name="hungarumlaut" unicode="&#x2dd;" horiz-adv-x="616" 
d="M291 1507l-25 35l234 279l116 -131zM25 1507l-25 35l233 279l117 -131z" />
    <glyph glyph-name="uni0312" unicode="&#x312;" horiz-adv-x="267" 
d="M213 1594q0 -30 -24 -54q-23 -24 -57 -23q-34 -1 -57 23t-23 54q0 102 113 171l25 -23q-32 -32 -38 -66q27 -7 44 -29q17 -23 17 -53z" />
    <glyph glyph-name="uni0315" unicode="&#x315;" horiz-adv-x="261" 
d="M116 1598q-61 18 -61 82q0 31 23 55q22 24 56 24t58 -24q24 -25 24 -55q0 -103 -113 -169l-25 22q32 29 38 65z" />
    <glyph glyph-name="uni0326" unicode="&#x326;" horiz-adv-x="308" 
d="M235 -164q0 -102 -113 -169l-26 21q30 28 39 66q-27 8 -45 30t-17 52q-1 30 23 54t58 25q34 -1 57 -25q24 -24 24 -54z" />
    <glyph glyph-name="Wgrave" unicode="&#x1e80;" horiz-adv-x="1591" 
d="M374 1601l117 133l233 -279l-26 -37zM1393 1049q0 190 -181 348l152 188q72 -52 119 -151q47 -98 47 -189t-26 -173t-94 -242t-173 -393q-104 -234 -209 -472l-256 692l-246 -692l-508 1378l203 91l377 -1084l143 389l-188 510l203 88l352 -1038q231 512 258 596t27 154z
" />
    <glyph glyph-name="wgrave" unicode="&#x1e81;" horiz-adv-x="1118" 
d="M265 1023l117 133l233 -279l-26 -37zM1065 649q0 -75 -29 -135l-233 -500q-17 -32 -66 -13q-13 5 -18 19l-156 551l-139 -544q-16 -35 -53 -35q-36 0 -41 24l-176 562q-26 77 -74 77q-29 0 -66 -34l-20 26q48 91 148 126q32 11 62 11q50 0 82 -55q17 -31 48 -130
q30 -99 106 -343l99 401l-25 80l168 56l164 -582l94 215q14 35 14 78q0 115 -112 172l114 158q109 -55 109 -185z" />
    <glyph glyph-name="Wacute" unicode="&#x1e82;" horiz-adv-x="1591" 
d="M731 1409l-25 35l233 279l117 -131zM1393 1049q0 190 -181 348l152 188q72 -52 119 -151q47 -98 47 -189t-26 -173t-94 -242t-173 -393q-104 -234 -209 -472l-256 692l-246 -692l-508 1378l203 91l377 -1084l143 389l-188 510l203 88l352 -1038q231 512 258 596t27 154z
" />
    <glyph glyph-name="wacute" unicode="&#x1e83;" horiz-adv-x="1118" 
d="M598 836l-25 35l233 279l117 -131zM1065 649q0 -75 -29 -135l-233 -500q-17 -32 -66 -13q-13 5 -18 19l-156 551l-139 -544q-16 -35 -53 -35q-36 0 -41 24l-176 562q-26 77 -74 77q-29 0 -66 -34l-20 26q48 91 148 126q32 11 62 11q50 0 82 -55q17 -31 48 -130
q30 -99 106 -343l99 401l-25 80l168 56l164 -582l94 215q14 35 14 78q0 115 -112 172l114 158q109 -55 109 -185z" />
    <glyph glyph-name="Wdieresis" unicode="&#x1e84;" horiz-adv-x="1591" 
d="M944 1593q20 1 37 -7t29 -21t20 -31q7 -18 7 -36q0 -38 -27 -66t-56 -28t-46 8t-30 20q-13 13 -20 30t-7 36q0 18 7 36t20 31t30 21q16 8 36 7zM648 1593q20 1 36 -7q17 -8 30 -21q12 -13 20 -31t8 -36q0 -38 -28 -66t-57 -28t-46 8t-30 20q-13 13 -20 30t-7 36
q0 18 7 36t20 31t30 21t37 7zM1393 1049q0 190 -181 348l152 188q72 -52 119 -151q47 -98 47 -189t-26 -173t-94 -242t-173 -393q-104 -234 -209 -472l-256 692l-246 -692l-508 1378l203 91l377 -1084l143 389l-188 510l203 88l352 -1038q231 512 258 596t27 154z" />
    <glyph glyph-name="wdieresis" unicode="&#x1e85;" horiz-adv-x="1118" 
d="M758 1032q20 0 37 -8t29 -20t20 -30q7 -18 7 -37q0 -38 -27 -66t-56 -28q-29 -1 -46 7t-30 21t-20 30t-7 36t7 37t20 30t30 20q16 8 36 8zM462 1032q20 0 36 -8q17 -8 30 -20q12 -12 20 -30t8 -37q0 -38 -28 -66t-57 -28q-29 -1 -46 7t-30 21t-20 30t-7 36t7 37t20 30
t30 20t37 8zM1065 649q0 -75 -29 -135l-233 -500q-17 -32 -66 -13q-13 5 -18 19l-156 551l-139 -544q-16 -35 -53 -35q-36 0 -41 24l-176 562q-26 77 -74 77q-29 0 -66 -34l-20 26q48 91 148 126q32 11 62 11q50 0 82 -55q17 -31 48 -130q30 -99 106 -343l99 401l-25 80
l168 56l164 -582l94 215q14 35 14 78q0 115 -112 172l114 158q109 -55 109 -185z" />
    <glyph glyph-name="Ygrave" unicode="&#x1ef2;" horiz-adv-x="1264" 
d="M277 1641l117 133l233 -279l-26 -37zM141 1317q-65 0 -116 -66l-33 29q51 100 149 138q33 12 77 12q95 0 153 -74q59 -74 59 -182v-820q0 -118 12 -160q27 -94 123 -94q97 0 182 134t112 382q7 62 7 105v653l207 74v-1395q0 -233 -174 -377q-98 -82 -170 -104
q-72 -21 -147 -21q-151 0 -281 111l168 148q55 -112 169 -166q36 -18 68 -17q30 -1 58 11q59 24 81 85q21 60 21 150v489q-70 -258 -250 -343q-66 -31 -139 -31q-130 0 -192 83t-62 208v927q0 74 -43 101q-16 10 -39 10z" />
    <glyph glyph-name="ygrave" unicode="&#x1ef3;" horiz-adv-x="883" 
d="M106 1021l117 133l233 -279l-26 -37zM340 211q0 -55 30 -55t76 73q108 175 136 506l184 64v-717q0 -214 -142 -380q-88 -102 -200 -144q-56 -20 -123 -21q-67 0 -143 53l112 142q90 -72 156 -72q156 0 156 406v403q-84 -365 -224 -463q-38 -26 -84 -26q-80 0 -104 72
q-12 38 -12 143v432q0 17 -10 35t-31 18q-41 0 -78 -55l-27 30q42 87 124 119q28 10 57 10q147 0 147 -161v-412z" />
    <glyph glyph-name="endash" unicode="&#x2013;" horiz-adv-x="1034" 
d="M920 836v-162h-820v162h820z" />
    <glyph glyph-name="emdash" unicode="&#x2014;" horiz-adv-x="1853" 
d="M1739 836v-162h-1639v162h1639z" />
    <glyph glyph-name="quoteleft" unicode="&#x2018;" horiz-adv-x="381" 
d="M305 1190q1 -32 -9 -53t-26 -37t-36 -24q-22 -9 -46 -9q-46 -1 -80 33t-34 78q0 142 162 243l36 -32q-45 -42 -55 -95q38 -8 63 -40t25 -64z" />
    <glyph glyph-name="quoteright" unicode="&#x2019;" horiz-adv-x="373" 
d="M263 1170q-46 -61 -116 -103l-36 31q45 42 55 94q-38 12 -63 42t-25 62t9 54q9 20 25 36t36 26q21 10 45 9q24 1 45 -9q20 -10 36 -26q34 -34 35 -95q0 -60 -46 -121z" />
    <glyph glyph-name="quotesinglbase" unicode="&#x201a;" horiz-adv-x="440" 
d="M290 -59q-46 -61 -116 -103l-37 31q45 41 56 94q-39 11 -64 42t-25 63t9 53t25 37t36 26t45 9q23 1 45 -9t38 -26q34 -36 34 -96t-46 -121z" />
    <glyph glyph-name="quotedblleft" unicode="&#x201c;" horiz-adv-x="688" 
d="M305 1190q1 -32 -9 -53t-26 -37t-36 -24q-22 -9 -46 -9q-46 -1 -80 33t-34 78q0 142 162 243l36 -32q-45 -42 -55 -95q38 -8 63 -40t25 -64zM612 1190q0 -32 -10 -53t-24 -37q-16 -16 -37 -24q-21 -9 -45 -9q-48 -1 -82 33t-33 78q0 142 162 243l37 -32q-46 -41 -56 -95
q38 -8 63 -40t25 -64z" />
    <glyph glyph-name="quotedblright" unicode="&#x201d;" horiz-adv-x="680" 
d="M571 1170q-45 -61 -116 -103l-37 31q45 42 55 94q-38 12 -63 42t-25 62t9 54q8 20 24 36t37 26t45 9q24 1 45 -9t37 -26q34 -34 34 -94q0 -61 -45 -122zM263 1170q-46 -61 -116 -103l-36 31q45 42 55 94q-38 12 -63 42t-25 62t9 54q9 20 25 36t36 26q21 10 45 9
q24 1 45 -9q20 -10 36 -26q34 -34 35 -95q0 -60 -46 -121z" />
    <glyph glyph-name="quotedblbase" unicode="&#x201e;" horiz-adv-x="748" 
d="M597 -59q-46 -61 -116 -103l-37 31q45 41 56 94q-38 11 -63 42t-25 63t9 53t25 37t36 26t44 9q24 1 46 -9t36 -26q34 -36 35 -96q0 -60 -46 -121zM290 -59q-46 -61 -116 -103l-37 31q45 41 56 94q-39 11 -64 42t-25 63t9 53t25 37t36 26t45 9q23 1 45 -9t38 -26
q34 -36 34 -96t-46 -121z" />
    <glyph glyph-name="dagger" unicode="&#x2020;" horiz-adv-x="786" 
d="M291 934h-209l20 72h189v426l207 73v-499h207l-19 -72h-188v-1143l-207 -76v1219z" />
    <glyph glyph-name="daggerdbl" unicode="&#x2021;" horiz-adv-x="799" 
d="M504 289v-498l-207 -76v574h-209l21 71h188v574h-209l21 72h188v426l207 73v-499h207l-19 -72h-188v-574h207l-19 -71h-188z" />
    <glyph glyph-name="bullet" unicode="&#x2022;" horiz-adv-x="582" 
d="M500 758q0 -43 -16 -81q-16 -39 -46 -67q-28 -28 -66 -44t-81 -17q-43 1 -81 17t-66 44t-46 67q-16 38 -16 81t16 81q16 39 46 67q28 28 66 44t81 17q43 -1 81 -17t66 -44t46 -67q16 -38 16 -81z" />
    <glyph glyph-name="ellipsis" unicode="&#x2026;" horiz-adv-x="1314" 
d="M1212 76q0 -24 -10 -45t-24 -37q-16 -16 -38 -24q-22 -9 -45 -9q-25 0 -45 9q-20 8 -36 24t-25 37t-9 45t9 45t25 37t36 26t45 9q23 1 45 -9t38 -26t24 -37q10 -21 10 -45zM774 76q0 -24 -10 -45t-24 -37q-16 -16 -38 -24q-22 -9 -45 -9q-25 0 -45 9q-20 8 -36 24t-25 37
t-9 45t9 45t25 37t36 26t45 9q23 1 45 -9t38 -26t24 -37q10 -21 10 -45zM336 76q0 -24 -10 -45t-24 -37q-16 -16 -38 -24q-22 -9 -45 -9q-25 0 -45 9q-20 8 -36 24t-25 37t-9 45t9 45t25 37t36 26t45 9q23 1 45 -9t38 -26t24 -37q10 -21 10 -45z" />
    <glyph glyph-name="perthousand" unicode="&#x2030;" horiz-adv-x="2116" 
d="M1702 698q-79 0 -120 -71q-40 -71 -40 -145q0 -140 63 -258t158 -118q74 0 114 72t40 148q1 74 -15 136t-44 114t-70 88q-40 34 -86 34zM1423 396q0 146 86 259t219 113q134 0 220 -114t86 -259t-86 -257q-86 -113 -220 -113t-219 113q-86 112 -86 258zM376 1341
q-80 0 -119 -71q-40 -71 -40 -178t49 -200q75 -142 175 -142q71 0 111 72t40 147t-16 137t-44 114t-69 86t-87 35zM1046 698q-80 0 -120 -71q-39 -71 -39 -146q0 -140 63 -257q63 -118 158 -118q74 0 114 72t40 148q0 74 -16 136t-44 114t-69 88q-41 34 -87 34zM403 668
q-71 0 -127 32t-96 86q-40 52 -61 118t-21 134t21 134t61 120q40 53 96 86t127 33t127 -33t97 -86q40 -54 61 -120t21 -134t-21 -134t-61 -118q-41 -52 -97 -86q-56 -32 -127 -32zM383 31l-104 69l821 1305l96 -66zM768 396q0 146 86 259t219 113q134 0 220 -114
q85 -114 85 -259q0 -144 -85 -257t-220 -113q-133 0 -219 113q-86 112 -86 258z" />
    <glyph glyph-name="guilsinglleft" unicode="&#x2039;" horiz-adv-x="563" 
d="M455 164l-35 -45l-357 262l357 262l35 -31l-168 -231z" />
    <glyph glyph-name="guilsinglright" unicode="&#x203a;" horiz-adv-x="563" 
d="M500 381l-357 -262l-34 45l167 217l-167 231l34 31z" />
    <glyph glyph-name="fraction" unicode="&#x2044;" horiz-adv-x="852" 
d="M72 31l-105 69l821 1305l97 -66z" />
    <glyph glyph-name="Euro" unicode="&#x20ac;" horiz-adv-x="1022" 
d="M217 639q0 44 14 100h-120l43 111h120q74 143 203 243q129 99 257 99q129 0 172 -99q14 -32 14 -77q0 -94 -71 -182t-167 -119l-16 28q86 43 114 137q8 30 8 62q0 70 -40 119t-102 49q-105 0 -172 -76t-93 -184h215l-41 -111h-193v-16q0 -18 9 -84h225l-41 -109h-147
q86 -172 231 -172q109 0 211 109l24 -25q-94 -129 -246 -178q-50 -16 -102 -16q-103 0 -185 83t-112 199h-118l43 109h63z" />
    <glyph glyph-name="trademark" unicode="&#x2122;" horiz-adv-x="1128" 
d="M373 1421q52 0 78 23l18 -19q-25 -37 -63 -61t-78 -25h-4q-21 -25 -21 -57v-229q0 -93 -84 -148l-20 23q20 21 20 65v250q0 48 53 96h-86q-23 1 -37 -9t-34 -32l-21 23q75 100 137 100h142zM1024 989q-27 -57 -83 -57t-74 57q-5 16 -5 33v328q0 18 -12 18q-28 0 -61 -66
t-33 -155v-174l-84 -31v408q0 18 -13 18q-25 0 -61 -85t-35 -155v-176l-84 -30v485l84 31v-138q46 134 127 134q41 0 54 -19q12 -19 12 -53v-45q23 57 58 87t67 30q65 0 65 -60v-362q0 -29 19 -29t36 27z" />
    <glyph glyph-name="partialdiff" unicode="&#x2202;" horiz-adv-x="956" 
d="M850 467q0 -212 -113 -351t-268 -139q-156 0 -265 136q-110 136 -110 313t138 292q44 37 102 56q109 -79 162 -139q-109 -10 -189 -115t-80 -217q1 -155 109 -209q36 -18 89 -18q107 0 175 112t68 254q0 144 -28 252t-71 197q-128 259 -397 430l29 35q147 -53 241 -119
q94 -67 164 -138t123 -167t87 -220t34 -245z" />
    <glyph glyph-name="summation" unicode="&#x2211;" horiz-adv-x="981" 
d="M887 0h-797v68l410 643l-410 653v70h797v-72h-590l410 -649l-410 -641h590v-72z" />
    <glyph glyph-name="minus" unicode="&#x2212;" horiz-adv-x="1008" 
d="M887 836l-62 -162h-684l64 162h682z" />
    <glyph glyph-name="infinity" unicode="&#x221e;" horiz-adv-x="1186" 
d="M216 810q-34 -32 -34 -72q0 -67 61 -106q61 -40 118 -40q92 0 167 92q-64 108 -158 145q-34 13 -76 13q-44 0 -78 -32zM655 729q95 -158 237 -158q42 1 76 31t33 70q0 68 -59 108t-134 39q-75 0 -153 -90zM848 944q95 0 163 -57t68 -159q0 -101 -73 -184t-183 -83
q-156 0 -256 145q-107 -137 -229 -137q-94 0 -163 56t-69 159q0 102 74 184t182 82q156 0 254 -143q111 137 232 137z" />
    <glyph glyph-name="approxequal" unicode="&#x2248;" horiz-adv-x="776" 
d="M598 1051q66 -78 29 -177q-31 -67 -92 -85t-104 8q-44 26 -68 47t-58 47t-58 15q-71 -34 -18 -111l-43 -21q-60 57 -49 133q25 122 148 127q57 2 98 -27q40 -27 59 -45q20 -18 36 -28q38 -24 70 5q32 30 5 95zM598 743q66 -79 29 -176q-31 -67 -92 -85t-104 8
q-44 26 -68 47t-58 47t-58 14q-70 -35 -18 -111l-43 -20q-60 57 -49 133q25 122 148 127q57 2 98 -27q40 -28 59 -46q20 -18 36 -28q38 -24 70 6t5 95z" />
    <glyph glyph-name="notequal" unicode="&#x2260;" horiz-adv-x="903" 
d="M283 176l-105 62l113 272h-215l63 162h217l68 166h-348l63 161h353l129 316l112 -37l-115 -279h203l-61 -161h-207l-68 -166h336l-61 -162h-340z" />
    <glyph glyph-name="lessequal" unicode="&#x2264;" horiz-adv-x="758" 
d="M641 283l-61 -162h-480l64 162h477zM621 387l-35 -43l-486 361l486 391l35 -29l-248 -362z" />
    <glyph glyph-name="greaterequal" unicode="&#x2265;" horiz-adv-x="762" 
d="M662 283l-62 -162h-479l63 162h478zM662 705l-486 -361l-35 43l248 318l-248 362l35 29z" />
    </font>
</defs>
</svg>
